<svg width="31" height="31" viewBox="0 0 31 31" fill="none" xmlns="http://www.w3.org/2000/svg">
<g clip-path="url(#clip0_82_1513)">
<path d="M7.15571 26.3759C7.09596 26.1744 7.00901 25.9764 6.9834 25.771C6.95336 25.5232 6.96379 25.2685 6.97887 25.0181C6.98936 24.8431 6.92293 24.7817 6.7584 24.7455C6.11573 24.6041 5.47641 24.4486 4.83684 24.2967C4.37254 24.1861 4.27597 24.0317 4.38595 23.5647C5.14496 20.3392 5.88971 17.1103 6.67368 13.8907C6.90061 12.9591 6.99688 12.0311 6.98617 11.0755C6.96424 9.10516 6.98051 7.13504 6.98301 5.16481C6.9832 4.78862 7.13948 4.63355 7.51431 4.63153C7.89549 4.62913 8.27654 4.62732 8.65741 4.63425C8.7935 4.63683 8.86029 4.5955 8.88842 4.45477C8.94898 4.15237 9.02572 3.85315 9.0977 3.55282C9.21086 3.08034 9.37716 2.97591 9.84591 3.0863C11.601 3.49902 13.3612 3.89287 15.1088 4.33456C16.0067 4.56107 16.9038 4.65006 17.8274 4.63935C19.7245 4.61709 21.6222 4.6345 23.5195 4.638C23.9093 4.63888 24.0589 4.7945 24.0611 5.18694C24.0631 5.52727 24.078 5.86876 24.0582 6.20835C24.0471 6.402 24.1247 6.45852 24.2935 6.49263C24.6359 6.56197 24.9744 6.64735 25.3136 6.73035C25.7174 6.82861 25.8319 7.0161 25.7364 7.42438C25.2777 9.37746 24.8362 11.3346 24.3485 13.2802C24.1292 14.1554 24.0478 15.0285 24.0515 15.926C24.0656 19.2421 24.0558 22.5587 24.0536 25.8747C24.0535 26.2797 23.9043 26.4233 23.4909 26.4244C22.8257 26.4264 22.1611 26.4341 21.4961 26.4224C21.3156 26.4193 21.2364 26.4653 21.2047 26.6478C21.1576 26.9195 21.0824 27.1859 21.019 27.455C20.9013 27.9521 20.753 28.0464 20.2623 27.9308C18.61 27.5423 16.9532 27.1703 15.3073 26.7569C14.3718 26.5222 13.4383 26.3964 12.4711 26.4163C10.8417 26.4496 9.21155 26.4249 7.58173 26.4255C7.53465 26.4257 7.48729 26.4377 7.4406 26.4443C7.34523 26.4206 7.25077 26.3983 7.15571 26.3759ZM7.83567 25.5629C12.9698 25.5637 18.0711 25.565 23.1958 25.566C23.1972 18.8638 23.1993 12.1957 23.2008 5.49599C18.0751 5.49403 12.9725 5.49249 7.84111 5.49106C7.83883 12.1836 7.83711 18.8525 7.83567 25.5629ZM6.97588 23.9125C6.97597 21.42 6.97623 18.9614 6.97695 16.5036C6.96734 16.5045 6.95773 16.5053 6.94811 16.5062C6.39852 18.8398 5.84879 21.174 5.29682 23.5177C5.85541 23.6487 6.39723 23.7763 6.97588 23.9125ZM24.0608 7.33702C24.061 8.41997 24.061 9.48471 24.0612 10.5489C24.0732 10.5486 24.0845 10.5487 24.0965 10.5484C24.3339 9.5402 24.5712 8.53261 24.8113 7.51314C24.5634 7.45538 24.3287 7.40012 24.0608 7.33702ZM12.4467 4.63125C12.4465 4.6243 12.4463 4.61734 12.4462 4.60979C11.593 4.40887 10.7393 4.20781 9.89154 4.00815C9.84172 4.21965 9.79653 4.41155 9.74518 4.62958C10.6612 4.63022 11.554 4.63044 12.4467 4.63125ZM17.7567 26.4447C18.6045 26.6443 19.4077 26.8335 20.2169 27.024C20.2649 26.8203 20.3088 26.6337 20.3574 26.4276C19.5395 26.4256 18.738 26.4237 17.9368 26.4231C17.8903 26.4234 17.8438 26.4344 17.7567 26.4447Z" fill="white"/>
<path d="M12.7153 10.5064C13.4148 11.0537 13.6088 11.7847 13.57 12.6152C13.5499 13.0438 13.5696 13.4742 13.5644 13.9037C13.561 14.2189 13.3983 14.3932 13.0864 14.3944C11.9434 14.3992 10.8008 14.3997 9.65745 14.3926C9.33498 14.3906 9.18194 14.2311 9.17764 13.9059C9.16972 13.3058 9.15692 12.7052 9.1807 12.1063C9.20659 11.4559 9.49495 10.9237 10.0284 10.5038C9.37413 9.93776 9.07242 9.23526 9.21131 8.38195C9.29778 7.85239 9.55806 7.41017 9.97765 7.06629C10.8698 6.33458 12.1918 6.4139 12.9573 7.23693C13.739 8.0769 13.8547 9.49997 12.7153 10.5064ZM10.0247 13.5335C10.9441 13.533 11.8151 13.5325 12.7145 13.5318C12.7052 12.9991 12.7285 12.4954 12.6798 11.9992C12.6186 11.3778 12.0596 10.9584 11.362 10.9489C10.7118 10.9407 10.1295 11.366 10.065 11.9647C10.0102 12.4766 10.0357 12.9968 10.0247 13.5335ZM11.6868 7.46128C10.9507 7.29044 10.2371 7.7325 10.0723 8.46181C9.91057 9.17494 10.3639 9.8912 11.0808 10.0556C11.7864 10.2174 12.5224 9.75181 12.6762 9.0456C12.8306 8.33701 12.3848 7.62317 11.6868 7.46128Z" fill="white"/>
<path d="M9.84407 16.2673C9.59885 16.209 9.46192 16.0262 9.4814 15.8157C9.50374 15.5771 9.6593 15.4224 9.92155 15.4165C10.408 15.4063 10.8947 15.4112 11.3814 15.411C14.5596 15.4121 17.7385 15.4133 20.9167 15.4144C20.9819 15.4147 21.0466 15.4142 21.1116 15.4176C21.3724 15.4314 21.558 15.6068 21.5571 15.8373C21.5561 16.0835 21.3947 16.2606 21.1251 16.2711C20.7523 16.2855 20.379 16.2785 20.0067 16.2779C16.7063 16.2763 13.4066 16.2743 10.1063 16.272C10.0085 16.2722 9.91145 16.2688 9.84407 16.2673Z" fill="white"/>
<path d="M9.85157 20.1182C9.60299 20.0634 9.46334 19.8869 9.47869 19.678C9.49656 19.437 9.64907 19.2767 9.90941 19.2709C10.4031 19.2592 10.8978 19.2648 11.3919 19.2651C14.5515 19.2655 17.7109 19.2666 20.8704 19.2676C20.9431 19.2678 21.0163 19.2656 21.0892 19.2677C21.3672 19.2774 21.554 19.4481 21.5556 19.6917C21.5569 19.9416 21.3827 20.1194 21.0998 20.128C20.7354 20.1388 20.3707 20.1325 20.0065 20.132C16.6931 20.1298 13.3796 20.1277 10.0663 20.1249C9.98549 20.1247 9.90445 20.12 9.85157 20.1182Z" fill="white"/>
<path d="M21.1955 17.3574C21.4413 17.4191 21.567 17.5829 21.5554 17.789C21.5424 18.0173 21.3922 18.1863 21.1499 18.1957C20.7532 18.2108 20.3554 18.2036 19.9579 18.2034C16.6418 18.2019 13.3257 18.2003 10.0092 18.198C9.68183 18.1981 9.48297 18.044 9.4776 17.7926C9.47134 17.5077 9.66977 17.3387 10.0178 17.3385C13.6829 17.3389 17.3477 17.3398 21.0125 17.3413C21.0852 17.3415 21.1576 17.3535 21.1955 17.3574Z" fill="white"/>
<path d="M21.5472 21.7137C21.4988 21.9381 21.3384 22.0495 21.0284 22.0505C19.9591 22.0539 18.8896 22.0528 17.8205 22.0525C15.2123 22.0515 12.6034 22.0503 9.99463 22.0486C9.67426 22.0484 9.47393 21.8845 9.47493 21.6327C9.47589 21.357 9.66919 21.1912 10.0021 21.1913C13.6719 21.1902 17.3414 21.1903 21.0117 21.1919C21.3916 21.1924 21.6118 21.4129 21.5472 21.7137Z" fill="white"/>
<path d="M21.5409 11.0514C21.4854 11.271 21.332 11.374 21.0366 11.3741C19.8379 11.3758 18.639 11.3756 17.4409 11.375C16.7199 11.3745 15.9992 11.3753 15.2785 11.3711C14.9698 11.3693 14.7872 11.2128 14.7809 10.9599C14.7738 10.6917 14.9599 10.5167 15.2754 10.5164C17.1947 10.5138 19.1142 10.5137 21.0338 10.5181C21.4174 10.5188 21.62 10.7421 21.5409 11.0514Z" fill="white"/>
<path d="M15.1575 13.2942C14.9025 13.2348 14.7658 13.059 14.7804 12.848C14.7967 12.6136 14.9528 12.4541 15.2164 12.4478C15.7264 12.4362 16.2366 12.4423 16.7465 12.442C18.1719 12.4415 19.5973 12.4411 21.0221 12.4406C21.2265 12.4405 21.413 12.4819 21.5154 12.6834C21.6628 12.9734 21.455 13.2887 21.0948 13.2955C20.4228 13.3078 19.7509 13.3038 19.0788 13.3035C17.8316 13.3032 16.5845 13.3005 15.3377 13.2984C15.2658 13.2978 15.193 13.2951 15.1575 13.2942Z" fill="white"/>
<path d="M9.84492 23.968C9.59987 23.9116 9.46064 23.7333 9.47718 23.5246C9.49599 23.2876 9.65281 23.1277 9.913 23.1225C10.4637 23.1111 11.0152 23.115 11.5657 23.1154C12.7407 23.1156 13.9152 23.1182 15.0906 23.1197C15.147 23.1199 15.2045 23.1177 15.2604 23.1228C15.5487 23.1499 15.7183 23.314 15.7152 23.5616C15.7122 23.8004 15.5261 23.9729 15.2377 23.9752C14.3464 23.9816 13.4552 23.9799 12.5641 23.9801C11.7213 23.9804 10.8787 23.9795 10.0363 23.978C9.96378 23.9772 9.89084 23.9701 9.84492 23.968Z" fill="white"/>
<path d="M17.9615 7.73744C18.18 7.78952 18.3146 7.96608 18.2991 8.17562C18.2819 8.40296 18.1161 8.56394 17.8547 8.56885C17.2969 8.57855 16.7381 8.57361 16.1799 8.57385C15.8563 8.57413 15.5324 8.57812 15.2088 8.57026C14.9626 8.5643 14.7918 8.39491 14.78 8.16264C14.7689 7.93805 14.9108 7.73507 15.1488 7.73092C16.0702 7.71654 16.9923 7.72553 17.9139 7.72625C17.9302 7.72632 17.946 7.7338 17.9615 7.73744Z" fill="white"/>
</g>
<defs>
<clipPath id="clip0_82_1513">
<rect width="25" height="25" fill="white" transform="translate(6.19824 0.466797) rotate(13.2523)"/>
</clipPath>
</defs>
</svg>
