<svg width="34" height="33" viewBox="0 0 34 33" fill="none" xmlns="http://www.w3.org/2000/svg">
<path d="M6.35641 2.19924C6.31058 1.51538 6.3665 0.896607 6.89174 0.430005C7.20432 0.15316 7.5664 0.000987764 7.98531 0.000987764C8.55089 0.00190447 9.06238 0.207246 9.3218 0.699515C9.55188 1.13495 9.62429 1.6538 9.77921 2.18091C11.4842 2.18091 13.29 2.18091 15.1499 2.18091C15.1499 1.99665 15.1453 1.80781 15.1508 1.61805C15.1765 0.718766 15.8951 0.00740466 16.7815 7.10398e-05C17.6863 -0.00817929 18.4196 0.703182 18.4471 1.61805C18.4526 1.79864 18.448 1.98015 18.448 2.17999C20.2823 2.17999 22.0881 2.17999 23.9498 2.17999C23.9498 2.01132 23.947 1.83348 23.9507 1.65655C23.9681 0.718766 24.6969 -0.00542918 25.6135 7.10398e-05C26.5146 0.00648796 27.2287 0.725183 27.2488 1.64922C27.2525 1.81881 27.2498 1.98932 27.2498 2.19924C27.6256 2.19924 27.9767 2.19924 28.3277 2.19924C29.0262 2.19924 29.7257 2.19741 30.4241 2.19924C32.12 2.20474 33.2979 3.3772 33.2988 5.07494C33.3015 11.5029 33.2997 17.9317 33.2997 24.3596C33.2997 26.2728 33.3015 28.1869 33.2988 30.1C33.296 31.8225 32.1282 32.9986 30.4113 32.9986C21.3364 33.0005 12.2615 33.0005 3.18753 32.9986C1.47155 32.9986 0.30098 31.8216 0.30098 30.1C0.300064 21.7699 0.300064 13.4389 0.30098 5.10886C0.30098 3.36529 1.46697 2.20107 3.20953 2.19832C4.23894 2.19832 5.26926 2.19924 6.35641 2.19924ZM1.39913 9.9078C1.39913 10.0636 1.39913 10.1874 1.39913 10.3121C1.39913 16.8894 1.39913 23.4667 1.39913 30.0441C1.39913 31.2386 2.05638 31.9004 3.24253 31.9004C12.2826 31.9004 21.3236 31.9013 30.3636 31.9004C31.5324 31.9004 32.1979 31.2358 32.1979 30.0698C32.1988 23.4695 32.1979 16.8692 32.1979 10.269C32.1979 10.1498 32.1979 10.0297 32.1979 9.90871C21.9112 9.9078 11.6804 9.9078 1.39913 9.9078ZM27.2479 3.30479C27.2479 3.88964 27.258 4.43783 27.2452 4.98602C27.2259 5.81747 26.598 6.49766 25.7822 6.59117C24.9554 6.68559 24.1835 6.14473 24.0002 5.3142C23.9443 5.06119 23.9553 4.79168 23.9507 4.5295C23.9434 4.1234 23.9489 3.71638 23.9489 3.31945C22.0881 3.31945 20.2823 3.31945 18.448 3.31945C18.448 3.88597 18.4581 4.43325 18.4462 4.98052C18.4251 5.89447 17.6872 6.60675 16.7834 6.59942C15.897 6.59208 15.1728 5.88072 15.1526 4.98235C15.1407 4.42683 15.1508 3.87039 15.1508 3.31762C13.2928 3.31762 11.4879 3.31762 9.64904 3.31762C9.64904 3.88139 9.65729 4.42775 9.64721 4.97502C9.63346 5.69463 9.16597 6.31524 8.49772 6.52425C7.44998 6.85151 6.383 6.09248 6.35458 4.98969C6.33991 4.43325 6.35183 3.87681 6.35183 3.30112C5.25184 3.30112 4.19952 3.29837 3.1472 3.30203C2.09579 3.30387 1.4028 3.99598 1.40005 5.0456C1.39638 6.19148 1.39913 7.33644 1.40005 8.48232C1.40005 8.58133 1.41197 8.68033 1.41838 8.7775C11.6877 8.7775 21.9322 8.7775 32.1933 8.7775C32.1933 7.43912 32.218 6.12273 32.1841 4.80818C32.164 4.01615 31.4847 3.3387 30.6946 3.31487C29.5634 3.2782 28.4295 3.30479 27.2479 3.30479ZM8.54906 3.28828C8.54906 2.7731 8.55272 2.25699 8.54814 1.74181C8.54447 1.34212 8.32264 1.09461 7.98898 1.10195C7.66632 1.10836 7.45273 1.34671 7.45182 1.72897C7.44723 2.77126 7.44723 3.81447 7.45182 4.85676C7.45365 5.25553 7.67732 5.50396 8.01006 5.49754C8.33089 5.49112 8.54447 5.25003 8.54814 4.87051C8.55364 4.34249 8.54906 3.81539 8.54906 3.28828ZM17.349 3.32587C17.349 2.79877 17.3526 2.27166 17.348 1.74456C17.3444 1.34396 17.1253 1.09645 16.7916 1.10195C16.4681 1.10653 16.2526 1.34487 16.2517 1.72531C16.2471 2.77951 16.2462 3.83372 16.2517 4.88701C16.2536 5.26103 16.4836 5.5012 16.8063 5.49571C17.128 5.49112 17.3425 5.25095 17.3471 4.87143C17.3535 4.35716 17.349 3.84106 17.349 3.32587ZM26.1489 3.33229C26.1489 2.80518 26.1525 2.27808 26.1479 1.75097C26.1443 1.34671 25.9316 1.10011 25.5979 1.10103C25.2643 1.10195 25.0516 1.34762 25.0498 1.75189C25.0461 2.78318 25.0461 3.81447 25.0498 4.84485C25.0507 5.2482 25.2661 5.4957 25.5989 5.49479C25.9307 5.49479 26.1443 5.24636 26.147 4.84301C26.1516 4.34066 26.1489 3.83647 26.1489 3.33229Z" fill="#009FDA"/>
<path d="M16.8374 21.9148C16.9703 21.1036 17.1005 20.2437 17.2563 19.3893C17.3067 19.1143 17.2572 18.9218 17.0519 18.7229C16.4937 18.1811 15.9602 17.6127 15.4138 17.0591C15.2268 16.8702 15.0848 16.6685 15.1828 16.3899C15.2782 16.1158 15.5027 16.036 15.7713 15.9975C16.5523 15.8875 17.3333 15.7702 18.1088 15.6281C18.2454 15.6033 18.4104 15.475 18.4727 15.3494C18.8449 14.6032 19.1941 13.8451 19.5434 13.087C19.657 12.8404 19.8074 12.6534 20.0998 12.6543C20.3931 12.6552 20.5425 12.8441 20.6553 13.0897C20.9944 13.8268 21.3538 14.5555 21.681 15.2972C21.7818 15.5263 21.9212 15.6189 22.1577 15.6519C22.9277 15.7592 23.6949 15.8875 24.4649 15.9984C24.7234 16.036 24.9287 16.1341 25.0176 16.3908C25.1084 16.653 24.9865 16.8546 24.8077 17.0361C24.2467 17.6082 23.6958 18.1912 23.122 18.7495C22.9322 18.9346 22.8956 19.1134 22.9377 19.3581C23.0817 20.1804 23.2274 21.0027 23.3292 21.8314C23.353 22.0239 23.2567 22.2824 23.1257 22.4309C22.9478 22.6335 22.693 22.5611 22.4638 22.4319C21.7663 22.0395 21.0595 21.6627 20.3665 21.264C20.1722 21.1521 20.0237 21.1586 19.833 21.2676C19.1281 21.6701 18.4177 22.0633 17.7027 22.4474C17.26 22.6839 16.8255 22.4328 16.8374 21.9148ZM22.088 20.9642C21.9853 20.3152 21.9148 19.7248 21.791 19.1455C21.7122 18.7751 21.8048 18.5111 22.0706 18.2563C22.4968 17.8483 22.8974 17.4138 23.3512 16.9472C22.9588 16.884 22.6362 16.8326 22.3135 16.7795C20.8771 16.542 21.1979 16.8024 20.5709 15.497C20.4215 15.1862 20.2712 14.8755 20.0952 14.5088C19.8074 15.1193 19.5461 15.6528 19.3041 16.1946C19.1795 16.4724 18.9934 16.6209 18.6854 16.6621C18.0923 16.74 17.5029 16.8445 16.8493 16.9481C17.3186 17.4312 17.7321 17.8713 18.1638 18.2948C18.3985 18.5249 18.48 18.766 18.415 19.096C18.2958 19.6955 18.2151 20.3033 18.1097 20.967C18.635 20.6773 19.118 20.4399 19.569 20.152C19.9476 19.9109 20.2739 19.9238 20.647 20.1593C21.0971 20.4435 21.5747 20.681 22.088 20.9642Z" fill="#009FDA"/>
<path d="M13.4982 15.4152C13.4982 15.759 13.5046 16.1028 13.4964 16.4465C13.4872 16.8325 13.2828 17.0433 12.8987 17.0479C12.2002 17.0561 11.5008 17.0561 10.8023 17.0479C10.4155 17.0433 10.2056 16.8352 10.201 16.4511C10.1928 15.7526 10.1928 15.0531 10.201 14.3546C10.2056 13.9678 10.4128 13.7578 10.7978 13.7533C11.4962 13.745 12.1957 13.745 12.8941 13.7533C13.281 13.7578 13.4863 13.965 13.4964 14.35C13.5056 14.7048 13.4982 15.0596 13.4982 15.4152ZM11.3157 15.9277C11.686 15.9277 12.0325 15.9277 12.3735 15.9277C12.3735 15.5573 12.3735 15.2108 12.3735 14.868C12.0087 14.868 11.6704 14.868 11.3157 14.868C11.3157 15.2227 11.3157 15.561 11.3157 15.9277Z" fill="#009FDA"/>
<path d="M29.999 15.4108C29.999 15.7426 30.0035 16.0754 29.998 16.4072C29.9916 16.8381 29.7927 17.0443 29.3692 17.048C28.6936 17.0544 28.0171 17.0535 27.3416 17.048C26.9107 17.0443 26.7054 16.8436 26.7017 16.4192C26.6953 15.7435 26.6962 15.067 26.7017 14.3914C26.7054 13.9596 26.9052 13.7552 27.3297 13.7515C28.0052 13.7451 28.6817 13.746 29.3573 13.7515C29.7881 13.7552 29.9907 13.9551 29.999 14.3795C30.0035 14.7233 29.999 15.067 29.999 15.4108ZM27.8274 14.8571C27.8274 15.2137 27.8274 15.5685 27.8274 15.9269C28.1858 15.9269 28.5323 15.9269 28.8724 15.9269C28.8724 15.5565 28.8724 15.21 28.8724 14.8571C28.5167 14.8571 28.1867 14.8571 27.8274 14.8571Z" fill="#009FDA"/>
<path d="M6.37317 22.5508C6.02943 22.5508 5.68568 22.5545 5.34194 22.5499C4.91019 22.5435 4.70486 22.3455 4.70028 21.922C4.69386 21.2464 4.69478 20.5698 4.70028 19.8942C4.70394 19.4624 4.90286 19.2571 5.32727 19.2525C6.00284 19.2461 6.67934 19.247 7.35491 19.2525C7.78574 19.2562 7.99291 19.456 7.99657 19.8795C8.00299 20.5552 8.00207 21.2317 7.99657 21.9073C7.99291 22.351 7.78849 22.5453 7.33475 22.5499C7.01483 22.5536 6.694 22.5508 6.37317 22.5508ZM5.81218 21.4242C6.19351 21.4242 6.54001 21.4242 6.88192 21.4242C6.88192 21.0593 6.88192 20.7202 6.88192 20.3709C6.51801 20.3709 6.17151 20.3709 5.81218 20.3709C5.81218 20.7302 5.81218 21.0685 5.81218 21.4242Z" fill="#009FDA"/>
<path d="M13.4985 20.9021C13.4985 21.2569 13.5067 21.6126 13.4957 21.9673C13.4847 22.3313 13.2776 22.5421 12.9118 22.5467C12.2014 22.5558 11.491 22.5558 10.7806 22.5467C10.4158 22.5421 10.2068 22.3294 10.2022 21.9627C10.193 21.2523 10.193 20.5419 10.2022 19.8314C10.2068 19.4666 10.4185 19.2576 10.7852 19.253C11.4956 19.2438 12.206 19.2438 12.9164 19.253C13.2803 19.2576 13.4857 19.4693 13.4957 19.836C13.5067 20.1917 13.4985 20.5474 13.4985 20.9021ZM12.393 20.3713C12.0163 20.3713 11.6698 20.3713 11.3233 20.3713C11.3233 20.7399 11.3233 21.0864 11.3233 21.4228C11.6945 21.4228 12.0419 21.4228 12.393 21.4228C12.393 21.0653 12.393 20.7353 12.393 20.3713Z" fill="#009FDA"/>
<path d="M29.9989 20.9097C29.9989 21.2416 30.0035 21.5744 29.998 21.9062C29.9916 22.337 29.7926 22.5433 29.3692 22.547C28.6936 22.5534 28.0171 22.5525 27.3415 22.547C26.9107 22.5433 26.7053 22.3435 26.7008 21.9181C26.6943 21.2425 26.6953 20.566 26.7008 19.8904C26.7044 19.4586 26.9043 19.2542 27.3287 19.2496C28.0043 19.2432 28.6807 19.2441 29.3563 19.2496C29.8 19.2533 29.9934 19.4568 29.998 19.9115C30.0016 20.2451 29.9989 20.5779 29.9989 20.9097ZM28.8742 21.435C28.8742 21.0592 28.8742 20.7127 28.8742 20.3771C28.502 20.3771 28.1555 20.3771 27.8173 20.3771C27.8173 20.7438 27.8173 21.0821 27.8173 21.435C28.1747 21.435 28.513 21.435 28.8742 21.435Z" fill="#009FDA"/>
<path d="M4.69996 26.3664C4.69996 26.0227 4.69171 25.6789 4.70179 25.3351C4.71279 24.9685 4.91629 24.7585 5.28203 24.7539C5.99244 24.7448 6.70285 24.7448 7.41326 24.7539C7.779 24.7585 7.99075 24.9685 7.99534 25.3342C8.0045 26.0447 8.0045 26.7551 7.99534 27.4656C7.99075 27.8313 7.779 28.0431 7.41509 28.0477C6.70468 28.0568 5.99427 28.0568 5.28387 28.0477C4.91812 28.0431 4.71187 27.8322 4.70179 27.4665C4.69171 27.0998 4.69996 26.7331 4.69996 26.3664ZM5.82286 25.8659C5.82286 26.239 5.82286 26.5855 5.82286 26.9238C6.19411 26.9238 6.5406 26.9238 6.8816 26.9238C6.8816 26.558 6.8816 26.2198 6.8816 25.8659C6.52502 25.8659 6.18677 25.8659 5.82286 25.8659Z" fill="#009FDA"/>
<path d="M11.8503 24.7512C12.2051 24.7512 12.5607 24.743 12.9155 24.7531C13.2803 24.7631 13.4912 24.9694 13.4957 25.3352C13.5049 26.0456 13.5049 26.7561 13.4957 27.4665C13.4912 27.8313 13.2785 28.0422 12.9137 28.0468C12.2032 28.0559 11.4928 28.0559 10.7824 28.0468C10.4167 28.0422 10.2077 27.8304 10.2022 27.4647C10.193 26.7542 10.193 26.0438 10.2022 25.3333C10.2068 24.9676 10.4176 24.7631 10.7843 24.7531C11.1399 24.743 11.4947 24.7512 11.8503 24.7512ZM12.3802 26.9339C12.3802 26.5544 12.3802 26.2161 12.3802 25.8724C12.0144 25.8724 11.6679 25.8724 11.3251 25.8724C11.3251 26.2418 11.3251 26.5883 11.3251 26.9339C11.6881 26.9339 12.0272 26.9339 12.3802 26.9339Z" fill="#009FDA"/>
<path d="M15.6991 26.3685C15.6991 26.0247 15.6917 25.681 15.7009 25.3372C15.711 24.9696 15.9136 24.7578 16.2784 24.7523C16.9888 24.7423 17.6992 24.7432 18.4096 24.7523C18.7763 24.7569 18.9899 24.965 18.9944 25.3289C19.0045 26.0394 19.0036 26.7498 18.9944 27.4603C18.9899 27.827 18.7799 28.0406 18.417 28.0451C17.7065 28.0552 16.9961 28.0552 16.2857 28.0451C15.9062 28.0396 15.7073 27.8242 15.6991 27.4337C15.6936 27.0789 15.6991 26.7242 15.6991 26.3685ZM16.8165 25.8643C16.8165 26.242 16.8165 26.5802 16.8165 26.9295C17.1804 26.9295 17.5269 26.9295 17.8761 26.9295C17.8761 26.5619 17.8761 26.2163 17.8761 25.8643C17.514 25.8643 17.1758 25.8643 16.8165 25.8643Z" fill="#009FDA"/>
<path d="M22.8151 28.0495C22.4713 28.0495 22.1276 28.0577 21.7838 28.0477C21.4181 28.0367 21.2073 27.8313 21.2027 27.4665C21.1935 26.756 21.1935 26.0456 21.2027 25.3351C21.2073 24.9685 21.4172 24.7585 21.7829 24.7539C22.4933 24.7448 23.2037 24.7448 23.9141 24.7539C24.2799 24.7585 24.4907 24.9685 24.4962 25.3342C24.5054 26.0447 24.5054 26.7551 24.4962 27.4656C24.4916 27.8313 24.2799 28.0376 23.9151 28.0477C23.5484 28.0577 23.1817 28.0495 22.8151 28.0495ZM22.3109 26.9229C22.695 26.9229 23.0415 26.9229 23.3807 26.9229C23.3807 26.5571 23.3807 26.2179 23.3807 25.8714C23.0158 25.8714 22.6693 25.8714 22.3109 25.8714C22.3109 26.2317 22.3109 26.5699 22.3109 26.9229Z" fill="#009FDA"/>
<path d="M28.3709 24.7502C28.7027 24.7502 29.0355 24.7457 29.3673 24.7512C29.7789 24.7585 29.9915 24.9565 29.9961 25.3562C30.0044 26.0547 30.0044 26.7542 29.9961 27.4527C29.9915 27.8359 29.7798 28.043 29.392 28.0476C28.6935 28.055 27.9941 28.0559 27.2956 28.0467C26.9125 28.0421 26.7062 27.8304 26.7016 27.4426C26.6943 26.7441 26.6934 26.0446 26.7016 25.3461C26.7062 24.962 26.9171 24.7603 27.3048 24.7512C27.6605 24.7447 28.0152 24.7502 28.3709 24.7502ZM27.8053 26.9292C28.1821 26.9292 28.5285 26.9292 28.875 26.9292C28.875 26.5607 28.875 26.2142 28.875 25.8778C28.5038 25.8778 28.1564 25.8778 27.8053 25.8778C27.8053 26.2353 27.8053 26.5653 27.8053 26.9292Z" fill="#009FDA"/>
</svg>
