<svg width="36" height="35" viewBox="0 0 36 35" fill="none" xmlns="http://www.w3.org/2000/svg">
<g clip-path="url(#clip0_81_1298)">
<path d="M9.92036 34.9995C9.77424 34.744 9.59223 34.5022 9.4914 34.2305C9.37092 33.9024 9.30342 33.552 9.2436 33.2059C9.20173 32.9641 9.0915 32.9017 8.85566 32.9052C7.93452 32.9188 7.01338 32.912 6.09309 32.9103C5.42488 32.9086 5.24372 32.7291 5.24372 32.0575C5.24287 27.4185 5.22151 22.7794 5.25654 18.1404C5.2668 16.798 5.10017 15.5026 4.77888 14.2038C4.11665 11.5258 3.50654 8.83583 2.87764 6.15016C2.75715 5.63747 2.92036 5.37599 3.43049 5.25295C3.94917 5.12734 4.46785 5.00258 4.98909 4.88979C5.17536 4.84963 5.25312 4.77187 5.24629 4.57106C5.23176 4.13954 5.24031 3.70717 5.24202 3.2748C5.24458 2.59462 5.43769 2.39894 6.11189 2.39894C8.63606 2.39809 11.1611 2.36989 13.6844 2.41091C14.9807 2.43141 16.2316 2.26479 17.4869 1.95375C20.0649 1.31459 22.6566 0.729265 25.2431 0.125139C25.7746 0.00123776 26.0284 0.1653 26.1574 0.699358C26.2694 1.16249 26.3992 1.62306 26.4813 2.09218C26.5283 2.35964 26.6522 2.41176 26.8931 2.40407C27.3819 2.38869 27.8707 2.39638 28.3594 2.40065C28.9414 2.40492 29.1575 2.62367 29.1584 3.21071C29.1601 6.01943 29.1866 8.82814 29.1464 11.636C29.1285 12.8989 29.2977 14.1149 29.5908 15.3368C30.6743 19.8511 31.7253 24.3739 32.7866 28.8933C32.9165 29.4453 32.7592 29.6889 32.1961 29.823C31.2904 30.0392 30.3872 30.2631 29.4771 30.4605C29.2302 30.5143 29.137 30.6023 29.1524 30.8612C29.1755 31.2466 29.1584 31.6337 29.1584 32.0208C29.1575 32.736 28.9858 32.912 28.28 32.912C25.9036 32.9129 23.5264 32.9376 21.1509 32.9026C19.8009 32.8829 18.4884 33.0111 17.1767 33.3486C14.967 33.9169 12.7376 34.4065 10.5168 34.9303C10.4527 34.9457 10.392 34.9773 10.3305 35.0012C10.1929 34.9995 10.0571 34.9995 9.92036 34.9995ZM10.586 33.6734C17.5826 32.0267 24.5347 30.3913 31.5185 28.7481C29.3695 19.6144 27.2324 10.5269 25.0842 1.39662C18.0987 3.03896 11.1448 4.67446 4.15168 6.31935C6.29646 15.4402 8.4344 24.5286 10.586 33.6734ZM8.88472 31.7003C8.08491 28.3037 7.29621 24.9533 6.50837 21.6037C6.49556 21.6079 6.48274 21.6122 6.46992 21.6165C6.46992 24.9729 6.46992 28.3302 6.46992 31.7012C7.27314 31.7003 8.05244 31.7003 8.88472 31.7003ZM26.847 3.62941C27.1948 5.10512 27.5366 6.55605 27.8784 8.00612C27.8946 8.00185 27.91 7.99843 27.9262 7.99416C27.9262 6.54408 27.9262 5.09487 27.9262 3.62856C27.5699 3.62941 27.2324 3.62941 26.847 3.62941ZM10.1519 3.66957C10.1494 3.66017 10.1468 3.65077 10.1442 3.64052C8.91719 3.64052 7.68928 3.64052 6.46992 3.64052C6.46992 3.94472 6.46992 4.22072 6.46992 4.53432C7.71833 4.24123 8.93513 3.95497 10.1519 3.66957ZM24.3886 31.6909C25.608 31.6909 26.7633 31.6909 27.9271 31.6909C27.9271 31.3978 27.9271 31.1295 27.9271 30.833C26.812 31.0928 25.7191 31.3474 24.627 31.6038C24.5638 31.6192 24.504 31.6491 24.3886 31.6909Z" fill="#009FDA"/>
<path d="M12.4035 11.589C13.5322 12.1103 14.0313 13.0442 14.2449 14.1884C14.3551 14.7789 14.52 15.3591 14.6508 15.9461C14.7473 16.3768 14.5816 16.6664 14.1569 16.7681C12.6008 17.1415 11.044 17.509 9.48366 17.8661C9.0436 17.967 8.78383 17.7986 8.6736 17.3569C8.47023 16.5417 8.26003 15.7273 8.10024 14.9036C7.92678 14.009 8.14894 13.1912 8.74111 12.4478C7.66786 11.8864 7.03127 11.0259 6.94667 9.81852C6.89455 9.06913 7.10732 8.38298 7.56874 7.77971C8.5497 6.49626 10.3766 6.1801 11.684 7.05595C13.0187 7.94975 13.6331 9.85185 12.4035 11.589ZM9.70839 16.5776C10.9611 16.2819 12.148 16.0016 13.3733 15.712C13.1896 14.9891 13.0597 14.2952 12.8341 13.6347C12.5513 12.8075 11.6549 12.4153 10.7013 12.6264C9.81264 12.8238 9.15554 13.5903 9.25978 14.4268C9.3495 15.142 9.55117 15.8427 9.70839 16.5776ZM10.0246 7.76945C8.96669 7.77287 8.13613 8.60429 8.14553 9.65104C8.15407 10.6747 9.00173 11.5053 10.0314 11.4993C11.0448 11.4933 11.8985 10.6226 11.8814 9.61088C11.8643 8.59575 11.0277 7.76603 10.0246 7.76945Z" fill="#009FDA"/>
<path d="M10.3397 20.3625C9.98681 20.3616 9.74157 20.1565 9.70055 19.8634C9.65441 19.531 9.81676 19.2704 10.1722 19.1781C10.8319 19.0081 11.4967 18.8585 12.1598 18.7022C16.4912 17.6836 20.8235 16.6651 25.1549 15.6465C25.2438 15.626 25.3318 15.6046 25.4215 15.5884C25.7812 15.5235 26.0906 15.7029 26.1632 16.0174C26.241 16.3532 26.0777 16.6463 25.7137 16.7471C25.2104 16.8864 24.6995 16.9966 24.1919 17.1154C19.6938 18.1724 15.1966 19.2285 10.6986 20.2847C10.5653 20.3163 10.432 20.3428 10.3397 20.3625Z" fill="#009FDA"/>
<path d="M11.5858 25.6065C11.2294 25.6117 10.9825 25.416 10.9364 25.1263C10.8834 24.7922 11.0397 24.5247 11.3926 24.4333C12.0617 24.259 12.7376 24.1077 13.411 23.9497C17.7167 22.9362 22.0225 21.9237 26.3283 20.9111C26.4274 20.888 26.5266 20.8615 26.6265 20.841C27.0085 20.765 27.3178 20.9376 27.3981 21.2691C27.4802 21.6092 27.2999 21.9074 26.9171 22.01C26.424 22.1416 25.925 22.2501 25.4285 22.3663C20.9125 23.4267 16.3966 24.4871 11.8806 25.5467C11.7703 25.5723 11.6584 25.592 11.5858 25.6065Z" fill="#009FDA"/>
<path d="M26.1582 18.2041C26.5128 18.2092 26.7367 18.3921 26.7871 18.6766C26.8427 18.9919 26.6923 19.2705 26.365 19.3611C25.8292 19.5089 25.2849 19.6268 24.7432 19.7542C20.2238 20.8163 15.7044 21.8784 11.1841 22.9397C10.7381 23.0448 10.4176 22.8987 10.3296 22.5577C10.2296 22.1715 10.4458 21.8776 10.9201 21.7656C15.9146 20.5898 20.9091 19.4149 25.9036 18.2408C26.0027 18.2178 26.1052 18.2109 26.1582 18.2041Z" fill="#009FDA"/>
<path d="M28.0356 24.0265C28.0415 24.3478 27.8587 24.5512 27.4366 24.652C25.9805 24.9998 24.5228 25.3416 23.0658 25.6842C19.5112 26.5199 15.9556 27.3556 12.4001 28.1905C11.9634 28.293 11.6379 28.1341 11.5584 27.7906C11.4712 27.4146 11.6814 27.1266 12.1352 27.0198C17.1357 25.8406 22.1362 24.6631 27.1384 23.4873C27.6562 23.366 28.027 23.5959 28.0356 24.0265Z" fill="#009FDA"/>
<path d="M24.6049 9.50003C24.5998 9.81705 24.4237 10.0067 24.0213 10.1016C22.3883 10.4887 20.7545 10.8732 19.1216 11.2569C18.1389 11.4876 17.1571 11.72 16.1736 11.9456C15.7523 12.0421 15.4533 11.8875 15.3636 11.5448C15.2678 11.1817 15.4652 10.8835 15.895 10.7818C18.5098 10.1623 21.1254 9.54617 23.7427 8.93606C24.2657 8.81387 24.6134 9.05313 24.6049 9.50003Z" fill="#009FDA"/>
<path d="M16.6264 14.6052C16.2599 14.6061 16.0172 14.4104 15.9693 14.1182C15.9163 13.7934 16.0778 13.526 16.435 13.4329C17.1263 13.2534 17.8236 13.0979 18.5183 12.9338C20.4605 12.4758 22.4028 12.0178 24.3442 11.5598C24.6228 11.494 24.8902 11.4906 25.0944 11.7324C25.3884 12.0802 25.2064 12.5767 24.7176 12.7014C23.8059 12.9338 22.889 13.144 21.973 13.3594C20.2734 13.7593 18.573 14.1558 16.8734 14.5531C16.7751 14.5753 16.6751 14.595 16.6264 14.6052Z" fill="#009FDA"/>
<path d="M12.8121 30.8554C12.46 30.8571 12.2131 30.6588 12.1687 30.3692C12.1182 30.0402 12.2806 29.7719 12.6335 29.6813C13.3803 29.489 14.1331 29.3173 14.8834 29.1413C16.4847 28.7644 18.086 28.391 19.6882 28.0159C19.7651 27.998 19.8429 27.9766 19.9206 27.9655C20.3222 27.9099 20.6059 28.0791 20.6811 28.4175C20.7537 28.7439 20.5555 29.0387 20.1633 29.1344C18.9508 29.4292 17.7357 29.7129 16.5214 29.9992C15.373 30.27 14.2246 30.5392 13.0761 30.8075C12.977 30.8297 12.8753 30.8434 12.8121 30.8554Z" fill="#009FDA"/>
<path d="M18.6636 6.13216C18.978 6.13302 19.2182 6.3304 19.2643 6.62093C19.3139 6.93624 19.1395 7.20882 18.7849 7.2994C18.0279 7.49166 17.2648 7.66427 16.5043 7.84371C16.0634 7.94796 15.6233 8.05733 15.1798 8.15047C14.8423 8.2214 14.5552 8.04537 14.4646 7.73263C14.3775 7.43014 14.5056 7.10799 14.8286 7.02596C16.0796 6.71065 17.3391 6.42696 18.5952 6.13216C18.6175 6.12703 18.6414 6.13216 18.6636 6.13216Z" fill="#009FDA"/>
</g>
<defs>
<clipPath id="clip0_81_1298">
<rect width="35" height="35" fill="white" transform="translate(0.300293)"/>
</clipPath>
</defs>
</svg>
