<svg width="85" height="85" viewBox="0 0 85 85" fill="none" xmlns="http://www.w3.org/2000/svg">
<g clip-path="url(#clip0_82_1415)">
<circle cx="42.5" cy="42.5" r="42" stroke="#009FDA"/>
<path d="M24 52.0935C24 43.6325 24 35.1706 24 26.7097C24.4898 24.8997 25.7595 24.3535 27.4042 24.3584C37.8759 24.3921 48.3477 24.3753 58.8195 24.3762C59.0174 24.3762 59.2153 24.3743 59.4122 24.3881C60.5691 24.4683 61.5201 25.2223 61.8704 26.3307C61.91 26.4573 61.9575 26.583 62.001 26.7087C62.001 35.1696 62.001 43.6316 62.001 52.0925C61.8981 52.3676 61.8248 52.6585 61.6873 52.9148C61.1064 53.9935 60.1693 54.4408 58.9669 54.4378C55.2698 54.4299 51.5728 54.4348 47.8747 54.4348C47.7173 54.4348 47.56 54.4348 47.3443 54.4348C47.5501 55.1632 47.7371 55.8361 47.9301 56.508C48.3111 57.8261 49.2235 58.5139 50.598 58.5169C51.8597 58.5198 53.1205 58.5149 54.3822 58.5188C54.8077 58.5208 55.0383 58.7118 55.0502 59.0473C55.062 59.3996 54.8245 59.6094 54.3881 59.6292C54.3268 59.6321 54.2644 59.6301 54.2031 59.6301C46.7347 59.6301 39.2653 59.6301 31.7969 59.6282C31.6376 59.6282 31.4318 59.6588 31.3289 59.5747C31.1666 59.4431 31.0063 59.2403 30.9667 59.0433C30.9172 58.794 31.0983 58.6 31.3605 58.5426C31.4911 58.5139 31.6307 58.5179 31.7663 58.5179C33.0151 58.5159 34.264 58.5169 35.5128 58.5169C36.4984 58.5169 37.3297 58.1191 37.7493 57.2522C38.1669 56.3883 38.3747 55.4234 38.6963 54.4348C38.441 54.4348 38.2836 54.4348 38.1263 54.4348C34.4411 54.4348 30.7569 54.4309 27.0717 54.4378C26.2919 54.4388 25.5794 54.2735 24.9708 53.757C24.4493 53.3156 24.1841 52.7298 24 52.0935ZM60.8867 46.6241C60.8867 46.4657 60.8867 46.343 60.8867 46.2203C60.8867 39.9374 60.8867 33.6546 60.8867 27.3717C60.8867 26.1496 60.2316 25.4895 59.0134 25.4895C48.3408 25.4885 37.6671 25.4885 26.9945 25.4895C25.7723 25.4895 25.1133 26.1466 25.1133 27.3638C25.1133 33.6467 25.1133 39.9295 25.1133 46.2124C25.1133 46.344 25.1133 46.4756 25.1133 46.6241C37.0506 46.6241 48.9434 46.6241 60.8867 46.6241ZM60.8788 47.7878C48.9395 47.7878 37.0378 47.7878 25.1182 47.7878C25.1182 49.1416 25.1024 50.4636 25.1261 51.7847C25.1351 52.2904 25.4013 52.6971 25.8129 53.0029C26.2167 53.3028 26.6818 53.3235 27.1568 53.3235C37.7196 53.3225 48.2834 53.3225 58.8462 53.3216C59.0312 53.3216 59.2183 53.3176 59.4014 53.2978C60.191 53.2107 60.8452 52.6041 60.8679 51.8204C60.9075 50.4864 60.8788 49.1515 60.8788 47.7878ZM47.7846 58.501C47.1256 57.8469 46.9227 57.0691 46.7099 56.2933C46.5665 55.7698 46.4042 55.2512 46.2686 54.7268C46.2132 54.514 46.1211 54.4289 45.8906 54.4299C43.9639 54.4388 42.0361 54.4388 40.1094 54.4299C39.8789 54.4289 39.7997 54.518 39.7294 54.7248C39.2999 55.9924 39.2228 57.3937 38.247 58.5C41.4394 58.501 44.5586 58.501 47.7846 58.501Z" fill="#009FDA"/>
<path d="M27.3399 44.397C37.8018 44.397 48.2112 44.397 58.6404 44.397C58.6404 38.8424 58.6404 33.3067 58.6404 27.7443C48.2142 27.7443 37.7968 27.7443 27.3399 27.7443C27.3399 27.8887 27.3399 28.0213 27.3399 28.1539C27.3399 30.331 27.3399 32.5081 27.3389 34.6852C27.3389 34.8089 27.3518 34.9375 27.3231 35.0543C27.2528 35.3393 27.0638 35.5016 26.762 35.4927C26.478 35.4848 26.3068 35.3195 26.2405 35.0504C26.2177 34.9563 26.2266 34.8534 26.2266 34.7545C26.2256 32.2934 26.2256 29.8313 26.2266 27.3702C26.2266 26.7715 26.3948 26.6043 27.0005 26.6043C37.6622 26.6033 48.324 26.6033 58.9858 26.6043C59.6152 26.6043 59.7735 26.7646 59.7735 27.3939C59.7735 33.1701 59.7735 38.9463 59.7735 44.7225C59.7735 45.3638 59.6092 45.5291 58.9571 45.5291C48.3201 45.53 37.683 45.53 27.046 45.5291C26.3919 45.5291 26.2266 45.3648 26.2266 44.7255C26.2256 42.2892 26.2266 39.8518 26.2266 37.4155C26.2266 37.3165 26.2177 37.2156 26.2335 37.1196C26.286 36.8108 26.472 36.6287 26.7897 36.6327C27.1064 36.6367 27.2884 36.8217 27.333 37.1324C27.3488 37.2413 27.3389 37.3551 27.3389 37.4659C27.3389 39.6301 27.3389 41.7954 27.3389 43.9596C27.3399 44.0942 27.3399 44.2297 27.3399 44.397Z" fill="#009FDA"/>
<path d="M42.9931 52.1973C42.0649 52.1934 41.3257 51.4442 41.3355 50.517C41.3454 49.5878 42.0965 48.8555 43.0258 48.8703C43.9401 48.8842 44.6625 49.6175 44.6645 50.5309C44.6655 51.4591 43.9213 52.2013 42.9931 52.1973ZM43.5463 50.5427C43.5502 50.2379 43.3296 50.0024 43.0267 49.9886C42.7071 49.9747 42.4577 50.2083 42.4538 50.5259C42.4498 50.8307 42.6715 51.0672 42.9733 51.0801C43.292 51.0939 43.5413 50.8604 43.5463 50.5427Z" fill="#009FDA"/>
</g>
<defs>
<clipPath id="clip0_82_1415">
<rect width="85" height="85" fill="white"/>
</clipPath>
</defs>
</svg>
