<svg width="85" height="85" viewBox="0 0 85 85" fill="none" xmlns="http://www.w3.org/2000/svg">
<g clip-path="url(#clip0_82_1370)">
<circle cx="42.5" cy="42.5" r="42" stroke="#009FDA"/>
<path d="M54.5809 61C45.5995 61 36.618 61 27.6365 61C27.21 60.8149 27.1675 60.4557 27.1675 60.047C27.1724 48.8578 27.1714 37.6686 27.1714 26.4784C27.1714 26.417 27.1704 26.3547 27.1724 26.2933C27.1883 25.7629 27.4139 25.5343 27.9542 25.5304C28.8201 25.5244 29.685 25.5284 30.5509 25.5284C30.6815 25.5284 30.8131 25.5284 30.9714 25.5284C30.9714 24.9495 30.9883 24.4191 30.9655 23.8906C30.9487 23.4938 31.0595 23.189 31.4217 23C37.4591 23 43.4956 23 49.5331 23C49.6548 23.1019 49.7864 23.1949 49.8982 23.3068C52.7769 26.1825 55.6576 29.0563 58.5214 31.9458C58.6916 32.118 58.7748 32.4119 58.8183 32.6633C58.8688 32.9513 58.8302 33.2551 58.8302 33.5519C58.8302 41.0955 58.8302 48.6391 58.8302 56.1827C58.8302 57.0565 58.6768 57.2069 57.7872 57.2079C56.9955 57.2079 56.2038 57.2069 55.4122 57.2089C55.2934 57.2089 55.1747 57.2218 55.0302 57.2297C55.0302 58.2104 55.0173 59.1614 55.0361 60.1104C55.046 60.5052 54.9441 60.811 54.5809 61ZM57.5319 55.9195C57.5319 48.3017 57.5319 40.7294 57.5319 33.1353C57.3517 33.1353 57.2033 33.1353 57.0559 33.1353C54.5819 33.1353 52.1079 33.1363 49.635 33.1343C48.8908 33.1343 48.7097 32.9532 48.7097 32.219C48.7087 29.7213 48.7097 27.2226 48.7097 24.7248C48.7097 24.5814 48.7097 24.4379 48.7097 24.2815C43.1997 24.2815 37.7382 24.2815 32.2678 24.2815C32.2678 34.8374 32.2678 45.3765 32.2678 55.9195C40.703 55.9195 49.1095 55.9195 57.5319 55.9195ZM28.4708 26.8139C28.4708 37.7953 28.4708 48.7559 28.4708 59.7056C36.9188 59.7056 45.3352 59.7056 53.7467 59.7056C53.7467 58.8645 53.7467 58.052 53.7467 57.2059C53.5696 57.2059 53.4112 57.2059 53.2539 57.2059C46.1655 57.2059 39.0771 57.2059 31.9887 57.2059C31.1308 57.2059 30.9724 57.0466 30.9724 56.1906C30.9724 46.5551 30.9724 36.9195 30.9724 27.2829C30.9724 27.1276 30.9724 26.9732 30.9724 26.8139C30.1036 26.8139 29.2921 26.8139 28.4708 26.8139ZM56.4621 31.8489C54.3038 29.6926 52.1208 27.5115 49.9982 25.3918C49.9982 27.466 49.9982 29.65 49.9982 31.8489C52.196 31.8489 54.3701 31.8489 56.4621 31.8489Z" fill="#009FDA"/>
<path d="M46.7941 51.5002C44.3578 51.5002 41.9214 51.5012 39.4851 51.4992C39.3376 51.4992 39.1852 51.5012 39.0437 51.4655C38.7419 51.3903 38.5796 51.1647 38.5806 50.8688C38.5816 50.5561 38.7567 50.3295 39.0764 50.2592C39.207 50.2305 39.3465 50.2375 39.4821 50.2375C44.3677 50.2365 49.2532 50.2365 54.1378 50.2375C54.2615 50.2375 54.3882 50.2296 54.5069 50.2553C54.8196 50.3246 55.0106 50.5235 55.0215 50.8481C55.0324 51.1736 54.8523 51.3874 54.5445 51.4705C54.405 51.5081 54.2506 51.5002 54.1032 51.5002C51.6678 51.5002 49.2305 51.5002 46.7941 51.5002Z" fill="#009FDA"/>
<path d="M46.7818 43.9047C44.3702 43.9047 41.9586 43.9057 39.547 43.9027C39.3876 43.9027 39.2244 43.8948 39.069 43.8641C38.7404 43.8008 38.5791 43.5662 38.5841 43.2555C38.589 42.9438 38.7612 42.7182 39.0908 42.6627C39.2244 42.64 39.3609 42.636 39.4965 42.636C44.3692 42.635 49.2419 42.635 54.1146 42.635C54.2007 42.635 54.2878 42.633 54.3739 42.64C54.7766 42.6756 55.024 42.9111 55.027 43.2595C55.03 43.6028 54.7846 43.8522 54.3877 43.8958C54.265 43.9096 54.1403 43.9037 54.0176 43.9037C51.605 43.9047 49.1934 43.9047 46.7818 43.9047Z" fill="#009FDA"/>
<path d="M46.8157 46.4385C49.2401 46.4385 51.6636 46.4385 54.0881 46.4395C54.2237 46.4395 54.3622 46.4335 54.4948 46.4563C54.8155 46.5107 55.0015 46.7116 55.0213 47.0342C55.0401 47.341 54.8867 47.5597 54.5918 47.6507C54.4533 47.6933 54.2999 47.7042 54.1544 47.7051C49.257 47.7081 44.3585 47.7081 39.4611 47.7051C39.3027 47.7051 39.1355 47.6943 38.9871 47.6438C38.6932 47.5448 38.5576 47.3103 38.5863 47.0095C38.615 46.7086 38.7911 46.5077 39.0989 46.4583C39.2444 46.4345 39.3948 46.4405 39.5432 46.4405C41.9677 46.4385 44.3912 46.4385 46.8157 46.4385Z" fill="#009FDA"/>
<path d="M46.7872 36.2937C44.3756 36.2937 41.964 36.2937 39.5524 36.2937C39.4168 36.2937 39.2792 36.2986 39.1446 36.2838C38.823 36.2471 38.5826 36.0057 38.5806 35.6969C38.5786 35.3803 38.729 35.1507 39.0496 35.0705C39.1793 35.0379 39.3178 35.0309 39.4524 35.03C44.3499 35.028 49.2473 35.028 54.1457 35.029C54.2685 35.029 54.3951 35.0309 54.5139 35.0577C54.8553 35.1339 55.0641 35.407 55.0205 35.7276C54.975 36.0651 54.7692 36.2541 54.4298 36.2867C54.307 36.2986 54.1824 36.2937 54.0587 36.2937C51.6352 36.2937 49.2117 36.2937 46.7872 36.2937Z" fill="#009FDA"/>
<path d="M46.7967 40.0962C44.3722 40.0962 41.9487 40.0962 39.5242 40.0962C38.882 40.0962 38.5772 39.8943 38.5742 39.4708C38.5713 39.0463 38.8879 38.8286 39.5163 38.8286C44.3772 38.8286 49.237 38.8286 54.0978 38.8286C54.1344 38.8286 54.1721 38.8276 54.2087 38.8286C54.7351 38.8395 55.035 39.0789 55.0251 39.4817C55.0152 39.8755 54.7371 40.0942 54.2166 40.0952C51.7436 40.0972 49.2706 40.0962 46.7967 40.0962Z" fill="#009FDA"/>
<path d="M37.2967 28.7067C37.9023 28.7067 38.5069 28.7008 39.1126 28.7087C39.5885 28.7147 39.8221 28.9383 39.826 29.4133C39.8349 30.6236 39.8349 31.8338 39.826 33.0441C39.8221 33.5349 39.5836 33.7596 39.0848 33.7615C37.8993 33.7675 36.7138 33.7665 35.5273 33.7615C35.0147 33.7596 34.7712 33.524 34.7673 33.0154C34.7594 31.8299 34.7604 30.6443 34.7673 29.4588C34.7703 28.9433 35.0058 28.7127 35.5174 28.7067C36.1102 28.7008 36.7039 28.7067 37.2967 28.7067ZM38.5455 29.9912C37.6905 29.9912 36.8791 29.9912 36.0528 29.9912C36.0528 30.8304 36.0528 31.6508 36.0528 32.4751C36.8969 32.4751 37.7182 32.4751 38.5455 32.4751C38.5455 31.6379 38.5455 30.8274 38.5455 29.9912Z" fill="#009FDA"/>
<path d="M36.034 36.2903C35.8242 36.2903 35.6134 36.3002 35.4036 36.2884C35.0533 36.2686 34.8089 36.041 34.7752 35.7223C34.7426 35.4155 34.9583 35.091 35.2948 35.0642C35.7846 35.0247 36.2824 35.0237 36.7722 35.0642C37.1186 35.0929 37.3135 35.3948 37.2868 35.7223C37.2601 36.0439 37.0216 36.2686 36.6643 36.2893C36.4555 36.3002 36.2448 36.2903 36.034 36.2903Z" fill="#009FDA"/>
<path d="M36.0547 46.4444C36.2645 46.4444 36.4763 46.4315 36.6851 46.4474C37.0413 46.4731 37.2778 46.7046 37.2867 47.0322C37.2956 47.3756 37.1244 47.6349 36.789 47.6635C36.2882 47.7061 35.7786 47.7041 35.2769 47.6626C34.9563 47.6358 34.7524 47.3231 34.7752 47.0282C34.7989 46.7066 35.0374 46.4711 35.3887 46.4474C35.6084 46.4325 35.832 46.4444 36.0547 46.4444Z" fill="#009FDA"/>
<path d="M36.0676 50.2409C36.2774 50.2409 36.4891 50.226 36.6979 50.2438C37.0443 50.2735 37.2778 50.5209 37.2887 50.8445C37.2996 51.181 37.0641 51.467 36.7049 51.4867C36.2615 51.5115 35.8142 51.5105 35.3709 51.4877C35.0186 51.4699 34.7633 51.1721 34.7722 50.8504C34.7821 50.5219 35.0394 50.2636 35.4006 50.2409C35.6223 50.226 35.8449 50.2379 36.0676 50.2379C36.0676 50.2389 36.0676 50.2399 36.0676 50.2409Z" fill="#009FDA"/>
<path d="M36.0488 40.0777C35.8024 40.0777 35.553 40.0975 35.3086 40.0727C34.9771 40.0401 34.798 39.8105 34.7802 39.4998C34.7624 39.188 34.9187 38.908 35.2443 38.8823C35.7698 38.8407 36.3031 38.8387 36.8276 38.8842C37.1473 38.9119 37.3036 39.1841 37.2818 39.5067C37.2611 39.8283 37.076 40.0381 36.7504 40.0737C36.5189 40.0985 36.2824 40.0787 36.0478 40.0787C36.0488 40.0777 36.0488 40.0777 36.0488 40.0777Z" fill="#009FDA"/>
<path d="M36.0568 42.625C36.2913 42.6359 36.5268 42.6309 36.7584 42.6616C37.0839 42.7032 37.2591 42.913 37.2858 43.2346C37.3115 43.5483 37.1117 43.8372 36.7861 43.861C36.2844 43.8976 35.7757 43.8946 35.274 43.86C34.9435 43.8372 34.794 43.575 34.7762 43.2623C34.7594 42.9624 34.9959 42.6962 35.3165 42.6616C35.56 42.6349 35.8094 42.6567 36.0558 42.6567C36.0568 42.6458 36.0568 42.6349 36.0568 42.625Z" fill="#009FDA"/>
</g>
<defs>
<clipPath id="clip0_82_1370">
<rect width="85" height="85" fill="white"/>
</clipPath>
</defs>
</svg>
