<svg width="35" height="34" viewBox="0 0 35 34" fill="none" xmlns="http://www.w3.org/2000/svg">
<g clip-path="url(#clip0_81_1350)">
<path d="M2.41895 32.8593C2.41895 32.6804 2.41895 32.5494 2.41895 32.4174C2.41895 30.0162 2.41807 27.6149 2.41895 25.2137C2.41895 24.2813 2.86697 23.8377 3.8064 23.8369C4.92379 23.836 6.04208 23.836 7.15947 23.8369C8.11484 23.8369 8.55046 24.276 8.55046 25.242C8.55135 27.6326 8.55046 30.0224 8.55046 32.413C8.55046 32.5449 8.55046 32.676 8.55046 32.838C9.12687 32.838 9.68202 32.838 10.2876 32.838C10.2876 32.7025 10.2876 32.5635 10.2876 32.4245C10.2876 27.4334 10.2885 22.4432 10.2859 17.4521C10.2859 17.0404 10.3169 16.6189 10.6719 16.3728C10.9296 16.1948 11.2669 16.0496 11.5733 16.0399C12.7562 16.0018 13.9409 16.0177 15.1247 16.0266C15.9614 16.0328 16.4324 16.5207 16.4333 17.3609C16.4342 22.3848 16.4342 27.4086 16.4342 32.4325C16.4342 32.5635 16.4342 32.6946 16.4342 32.8486C17.0124 32.8486 17.5693 32.8486 18.1652 32.8486C18.1652 32.7149 18.1652 32.5857 18.1652 32.4564C18.1652 29.1812 18.1652 25.9052 18.1652 22.63C18.1652 21.6924 18.6115 21.2382 19.5394 21.2364C20.6789 21.2346 21.8193 21.2337 22.9588 21.2364C23.846 21.239 24.3091 21.6977 24.31 22.5866C24.3127 25.8618 24.3109 29.1378 24.3109 32.413C24.3109 32.5538 24.3109 32.6954 24.3109 32.8566C24.8935 32.8566 25.4424 32.8566 26.049 32.8566C26.049 32.7194 26.049 32.5821 26.049 32.444C26.049 27.4308 26.0507 22.4184 26.0463 17.4052C26.0463 17.0138 26.11 16.6579 26.4005 16.3719C26.6617 16.1151 26.984 16.0239 27.339 16.0239C28.5228 16.0231 29.7075 16.016 30.8913 16.0266C31.7121 16.0337 32.1805 16.518 32.1805 17.3397C32.1822 22.375 32.1813 27.4095 32.1813 32.4449C32.1813 32.5759 32.1813 32.7061 32.1813 32.8858C32.6019 32.8858 32.995 32.8885 33.3891 32.8849C33.6476 32.8823 33.8813 32.9425 33.8751 33.2471C33.8698 33.5277 33.6476 33.5888 33.4006 33.5888C28.9965 33.58 24.5924 33.5738 20.1884 33.5667C17.5436 33.5623 14.8989 33.5543 12.2542 33.5508C8.6576 33.5463 5.06103 33.5446 1.46536 33.5419C1.35468 33.5419 1.244 33.5357 1.13333 33.5401C0.897805 33.5481 0.72869 33.4463 0.725148 33.2081C0.721607 32.9469 0.904003 32.8548 1.15015 32.8575C1.55655 32.8628 1.96473 32.8593 2.41895 32.8593ZM15.7241 32.8522C15.7321 32.7778 15.7427 32.7247 15.7427 32.6707C15.7436 27.5583 15.7445 22.445 15.7418 17.3326C15.7418 16.8872 15.563 16.727 15.1017 16.7261C13.9843 16.7234 12.866 16.7252 11.7486 16.7252C11.1111 16.7252 10.9871 16.8474 10.9871 17.4725C10.9871 22.4742 10.9871 27.4768 10.9871 32.4785C10.9871 32.5972 10.9871 32.7158 10.9871 32.8522C12.5765 32.8522 14.133 32.8522 15.7241 32.8522ZM31.4801 32.8619C31.489 32.784 31.4987 32.7415 31.4987 32.699C31.4996 27.5769 31.5005 22.4547 31.4987 17.3326C31.4987 16.9049 31.3163 16.7287 30.8886 16.727C29.7491 16.7234 28.6096 16.7252 27.47 16.7261C26.8697 16.7261 26.7334 16.8642 26.7334 17.4698C26.7334 22.4813 26.7334 27.4927 26.7334 32.5042C26.7334 32.6211 26.7334 32.738 26.7334 32.8619C28.3369 32.8619 29.8943 32.8619 31.4801 32.8619ZM23.6025 32.8575C23.6079 32.7751 23.6141 32.7309 23.6141 32.6866C23.6149 29.3008 23.6158 25.9149 23.6132 22.5291C23.6132 22.1032 23.4343 21.9244 23.0067 21.9235C21.8778 21.9199 20.7497 21.9217 19.6208 21.9226C18.9931 21.9226 18.8576 22.0554 18.8576 22.6796C18.8567 25.9548 18.8567 29.2299 18.8576 32.5051C18.8576 32.622 18.8673 32.7388 18.8727 32.8584C20.4655 32.8575 22.0221 32.8575 23.6025 32.8575ZM7.86781 32.8477C7.86781 32.7202 7.86781 32.6122 7.86781 32.5033C7.86781 30.0808 7.86781 27.6574 7.86781 25.2349C7.86781 24.6815 7.7102 24.5222 7.15859 24.5213C6.05182 24.5195 4.94593 24.5204 3.83916 24.5213C3.2477 24.5222 3.09984 24.6727 3.09984 25.2748C3.09895 27.6751 3.09984 30.0764 3.09984 32.4768C3.09984 32.5945 3.09984 32.7123 3.09984 32.8477C4.69978 32.8477 6.25635 32.8477 7.86781 32.8477Z" fill="#009FDA" stroke="#009FDA" stroke-width="0.7"/>
<path d="M18.8488 15.0083C17.6686 14.0857 16.5025 13.1737 15.3833 12.2998C14.9123 12.5283 14.4988 12.7965 14.0454 12.9329C13.2787 13.164 12.534 13.025 11.8585 12.5823C11.7283 12.4973 11.6371 12.4353 11.4928 12.5778C10.247 13.8041 8.99414 15.0225 7.74393 16.2444C7.72888 16.2594 7.72268 16.2833 7.71294 16.3028C8.78429 17.9461 8.04674 19.5328 7.0595 20.2155C5.91466 21.007 4.382 20.837 3.44434 19.8011C2.51289 18.7722 2.49164 17.2183 3.39565 16.1602C4.34393 15.0508 5.85268 14.895 7.20648 15.7954C8.5107 14.5249 9.822 13.2472 11.0926 12.0094C10.9305 11.526 10.7234 11.093 10.6437 10.637C10.378 9.1141 11.5397 7.69743 13.1485 7.53186C14.6227 7.38045 16.035 8.60144 16.1085 10.0845C16.1333 10.5821 16.0394 11.0487 15.8375 11.5029C15.8012 11.5853 15.8366 11.765 15.903 11.8182C16.9841 12.6797 18.0759 13.5279 19.1658 14.3788C19.2003 14.4053 19.2375 14.4284 19.2836 14.4602C20.5143 13.4509 21.7787 13.4075 23.0838 14.3673C24.3269 13.2835 25.5665 12.2024 26.7999 11.1266C26.0561 9.37441 26.3696 8.01264 27.6844 7.21399C28.8576 6.50123 30.3876 6.7642 31.2482 7.8267C32.115 8.89717 32.0584 10.436 31.1278 11.4419C30.3017 12.3352 28.7044 12.7726 27.2718 11.634C26.034 12.7133 24.7926 13.7953 23.5336 14.8932C23.9621 15.6122 24.1206 16.3674 23.8851 17.1811C23.7133 17.7752 23.3857 18.2622 22.8934 18.6332C21.8955 19.3849 20.5453 19.3778 19.5625 18.6217C18.4778 17.7868 18.2308 16.572 18.8488 15.0083ZM27.0549 9.55149C27.0513 10.7034 27.9642 11.6251 29.109 11.6251C30.253 11.6251 31.1791 10.7016 31.1782 9.56035C31.1774 8.43498 30.2592 7.50972 29.1347 7.50264C27.9846 7.49467 27.0584 8.40753 27.0549 9.55149ZM7.5456 17.9506C7.54471 16.811 6.60882 15.8796 5.47195 15.8875C4.34658 15.8955 3.42575 16.819 3.42221 17.9435C3.41867 19.0883 4.34127 20.018 5.48169 20.0189C6.62653 20.0189 7.54648 19.0972 7.5456 17.9506ZM13.3716 8.22248C12.2171 8.21717 11.3042 9.12561 11.3033 10.2775C11.3033 11.41 12.2109 12.3352 13.3344 12.3476C14.4651 12.36 15.4169 11.4303 15.4311 10.2979C15.4453 9.16633 14.5138 8.22779 13.3716 8.22248ZM23.2972 16.4365C23.2989 15.2943 22.3675 14.3637 21.2279 14.3708C20.1008 14.3779 19.1773 15.297 19.1685 16.4197C19.1596 17.5512 20.0937 18.4977 21.2279 18.5048C22.3622 18.5128 23.2954 17.5787 23.2972 16.4365Z" fill="#009FDA" stroke="#009FDA" stroke-width="0.7"/>
<path d="M19.5657 5.25756C19.3275 5.25756 19.1407 5.26906 18.9556 5.2549C18.4828 5.21948 18.1508 4.97157 17.9525 4.54745C17.7532 4.11979 17.7683 3.67974 18.0729 3.32735C18.8326 2.44901 19.61 1.58396 20.413 0.745472C20.8611 0.277086 21.6128 0.279742 22.0608 0.748128C22.8559 1.57953 23.6236 2.4375 24.3806 3.30344C24.6985 3.66735 24.7224 4.11448 24.5258 4.55188C24.3284 4.99016 23.9786 5.23808 23.4916 5.26552C23.3163 5.27526 23.1401 5.26729 22.9223 5.26729C22.9152 5.42313 22.9046 5.54974 22.9046 5.67724C22.9046 7.16032 22.9179 8.64339 22.9028 10.1265C22.8904 11.3554 21.7801 12.1488 20.6725 11.7459C19.9951 11.4997 19.5728 10.8764 19.5701 10.0919C19.5648 8.62037 19.5675 7.14792 19.5666 5.67636C19.5657 5.55505 19.5657 5.43464 19.5657 5.25756ZM21.2515 11.1553C21.8102 11.1509 22.214 10.7197 22.2149 10.1096C22.2175 8.43974 22.2149 6.76896 22.2158 5.09907C22.2158 4.7024 22.3193 4.59084 22.6877 4.58464C22.9197 4.5811 23.1614 4.62271 23.3818 4.57136C23.5651 4.52886 23.7998 4.41729 23.8715 4.26854C23.9432 4.11979 23.9113 3.82672 23.8033 3.70099C23.0976 2.87933 22.3645 2.07979 21.6269 1.28558C21.395 1.03589 21.0656 1.0412 20.8336 1.29089C20.1049 2.07802 19.378 2.86782 18.6794 3.68151C18.5687 3.8099 18.5289 4.10032 18.5971 4.25172C18.6661 4.40313 18.8999 4.52 19.0831 4.56782C19.2903 4.62183 19.5223 4.58021 19.7437 4.5811C20.1669 4.58375 20.2625 4.68026 20.2652 5.11412C20.2678 5.50104 20.2661 5.88797 20.2661 6.27578C20.2669 7.55875 20.2625 8.84172 20.2714 10.1247C20.2758 10.7321 20.6955 11.1606 21.2515 11.1553Z" fill="#009FDA" stroke="#009FDA" stroke-width="0.7"/>
</g>
<defs>
<clipPath id="clip0_81_1350">
<rect width="34" height="34" fill="white" transform="translate(0.300293)"/>
</clipPath>
</defs>
</svg>
