<svg width="51" height="39" viewBox="0 0 51 39" fill="none" xmlns="http://www.w3.org/2000/svg">
<g clip-path="url(#clip0_58_460)">
<path fill-rule="evenodd" clip-rule="evenodd" d="M2.24879 10.5063C1.61954 10.5063 1.11408 10.9736 1.11408 11.5552V36.6609C1.11408 37.2425 1.61954 37.7098 2.24879 37.7098H48.7512C49.3701 37.7098 49.8859 37.2425 49.8859 36.6609V11.5552C49.8859 10.9736 49.3805 10.5063 48.7512 10.5063H2.24879ZM48.7512 38.7395H2.24879C1.01092 38.7395 0 37.8051 0 36.6609V11.5552C0 10.411 1.01092 9.47656 2.24879 9.47656H48.7512C49.9891 9.47656 51 10.411 51 11.5552V36.6609C51 37.8051 49.9891 38.7395 48.7512 38.7395Z" fill="#009FDA" stroke="#009FDA" stroke-width="0.5"/>
<path fill-rule="evenodd" clip-rule="evenodd" d="M7.45814 17.5054C6.78763 17.5054 6.24091 18.0107 6.24091 18.6305V29.5862C6.24091 30.206 6.78763 30.7114 7.45814 30.7114H20.2185C20.889 30.7114 21.4357 30.206 21.4357 29.5862V18.6305C21.4357 18.0107 20.889 17.5054 20.2185 17.5054H7.45814ZM20.2081 31.7412H7.45814C6.1687 31.7412 5.12683 30.7686 5.12683 29.5862V18.6305C5.12683 17.4386 6.17902 16.4756 7.45814 16.4756H20.2185C21.5079 16.4756 22.5498 17.4482 22.5498 18.6305V29.5862C22.5498 30.7781 21.4976 31.7412 20.2081 31.7412Z" fill="#009FDA" stroke="#009FDA" stroke-width="0.5"/>
<path fill-rule="evenodd" clip-rule="evenodd" d="M13.8331 20.8518C12.6262 20.8518 11.6359 21.7576 11.6359 22.8828C11.6359 23.9984 12.6159 24.9137 13.8331 24.9137C15.0401 24.9137 16.0303 24.0079 16.0303 22.8828C16.0303 21.7672 15.0401 20.8518 13.8331 20.8518ZM13.8331 25.934C12.0073 25.934 10.5219 24.5609 10.5219 22.8732C10.5219 21.1855 12.0073 19.8125 13.8331 19.8125C15.659 19.8125 17.1444 21.1855 17.1444 22.8732C17.1444 24.5705 15.659 25.934 13.8331 25.934Z" fill="#009FDA" stroke="#009FDA" stroke-width="0.5"/>
<path fill-rule="evenodd" clip-rule="evenodd" d="M18.7536 31.7405C18.4442 31.7405 18.1966 31.5117 18.1966 31.2256V29.5856C18.1966 28.9658 17.6499 28.4604 16.9794 28.4604H10.6869C10.0164 28.4604 9.46967 28.9658 9.46967 29.5856V31.2256C9.46967 31.5117 9.2221 31.7405 8.91263 31.7405C8.60316 31.7405 8.35559 31.5117 8.35559 31.2256V29.5856C8.35559 28.3937 9.39746 27.4307 10.6869 27.4307H16.9794C18.2688 27.4307 19.3107 28.4032 19.3107 29.5856V31.2256C19.3107 31.5117 19.0631 31.7405 18.7536 31.7405Z" fill="#009FDA" stroke="#009FDA" stroke-width="0.5"/>
<path fill-rule="evenodd" clip-rule="evenodd" d="M40.406 18.8395H26.9236C26.6141 18.8395 26.3665 18.6108 26.3665 18.325C26.3665 18.0392 26.6141 17.8105 26.9236 17.8105H40.406C40.7154 17.8105 40.963 18.0392 40.963 18.325C40.963 18.6108 40.7154 18.8395 40.406 18.8395Z" fill="#009FDA" stroke="#009FDA" stroke-width="0.5"/>
<path fill-rule="evenodd" clip-rule="evenodd" d="M45.3162 22.691H26.9236C26.6141 22.691 26.3665 22.4624 26.3665 22.1766C26.3665 21.8908 26.6141 21.6621 26.9236 21.6621H45.3265C45.6359 21.6621 45.8835 21.8908 45.8835 22.1766C45.8835 22.4624 45.6256 22.691 45.3162 22.691Z" fill="#009FDA" stroke="#009FDA" stroke-width="0.5"/>
<path fill-rule="evenodd" clip-rule="evenodd" d="M45.3162 26.5533H26.9236C26.6141 26.5533 26.3665 26.3247 26.3665 26.0389C26.3665 25.7531 26.6141 25.5244 26.9236 25.5244H45.3265C45.6359 25.5244 45.8835 25.7531 45.8835 26.0389C45.8732 26.3247 45.6256 26.5533 45.3162 26.5533Z" fill="#009FDA" stroke="#009FDA" stroke-width="0.5"/>
<path fill-rule="evenodd" clip-rule="evenodd" d="M45.3162 30.4049H26.9236C26.6141 30.4049 26.3665 30.1763 26.3665 29.8904C26.3665 29.6046 26.6141 29.376 26.9236 29.376H45.3265C45.6359 29.376 45.8835 29.6046 45.8835 29.8904C45.8835 30.1763 45.6256 30.4049 45.3162 30.4049Z" fill="#009FDA" stroke="#009FDA" stroke-width="0.5"/>
<path fill-rule="evenodd" clip-rule="evenodd" d="M18.8259 10.5065C18.7846 10.5065 18.733 10.4969 18.6814 10.4874C18.3823 10.4111 18.2069 10.1346 18.2791 9.85807L19.4139 5.82476C19.4757 5.59592 19.7027 5.44336 19.9503 5.44336H23.21C23.5194 5.44336 23.767 5.6722 23.767 5.95825C23.767 6.2443 23.5194 6.47314 23.21 6.47314H20.3835L19.352 10.1251C19.3004 10.3539 19.0734 10.5065 18.8259 10.5065ZM32.1742 10.5065C31.9266 10.5065 31.6997 10.3539 31.6378 10.1251L30.6062 6.47314H27.7797C27.4703 6.47314 27.2227 6.2443 27.2227 5.95825C27.2227 5.6722 27.4703 5.44336 27.7797 5.44336H31.0395C31.2973 5.44336 31.514 5.60545 31.5759 5.82476L32.7106 9.85807C32.7931 10.1346 32.6074 10.4111 32.3083 10.4874C32.267 10.5065 32.2154 10.5065 32.1742 10.5065Z" fill="#009FDA" stroke="#009FDA" stroke-width="0.5"/>
<path fill-rule="evenodd" clip-rule="evenodd" d="M23.7773 6.50163H27.2124V3.336C27.2124 2.45878 26.4387 1.74365 25.4897 1.74365C24.5407 1.74365 23.767 2.45878 23.767 3.336L23.7773 6.50163ZM27.7694 7.53141H23.2203C22.9108 7.53141 22.6632 7.30257 22.6632 7.01652V3.336C22.6632 1.88667 23.932 0.713867 25.5 0.713867C27.0577 0.713867 28.3368 1.88667 28.3368 3.336V7.01652C28.3265 7.30257 28.0789 7.53141 27.7694 7.53141Z" fill="#009FDA" stroke="#009FDA" stroke-width="0.5"/>
</g>
<defs>
<clipPath id="clip0_58_460">
<rect width="51" height="38.0257" fill="white" transform="translate(0 0.713867)"/>
</clipPath>
</defs>
</svg>
