<svg width="85" height="85" viewBox="0 0 85 85" fill="none" xmlns="http://www.w3.org/2000/svg">
<circle cx="42.5" cy="42.5" r="42" stroke="#009FDA"/>
<path d="M66.9432 29.4567C66.6679 29.4567 66.4123 29.3584 66.2157 29.1618L56.1684 19.0949C55.7555 18.682 55.7555 18.0331 56.1684 17.6202C56.5813 17.2073 57.2302 17.2073 57.6431 17.6202L67.6903 27.6675C68.1032 28.0804 68.1032 28.7292 67.6903 29.1421C67.474 29.3584 67.2184 29.4567 66.9432 29.4567Z" fill="#009FDA"/>
<path d="M63.4827 39.8582C63.2074 39.8582 62.9518 39.7599 62.7552 39.5632L45.7673 22.5753C45.3544 22.1624 45.3544 21.5136 45.7673 21.1007C46.1802 20.6878 46.829 20.6878 47.2419 21.1007L64.2298 38.0886C64.6427 38.5015 64.6427 39.1503 64.2298 39.5632C64.0135 39.7599 63.7383 39.8582 63.4827 39.8582Z" fill="#009FDA"/>
<path d="M54.9691 31.3637C54.6938 31.3637 54.4382 31.2654 54.2416 31.0687C53.8287 30.6558 53.8287 30.007 54.2416 29.5941L61.1822 22.6534C61.5951 22.2405 62.244 22.2405 62.6569 22.6534C63.0698 23.0663 63.0698 23.7152 62.6569 24.1281L55.7162 31.0687C55.4999 31.2654 55.2443 31.3637 54.9691 31.3637Z" fill="#009FDA"/>
<path d="M33.4196 64.2586C33.1443 64.2586 32.8887 64.1603 32.6921 63.9636L21.1898 52.4614C20.7769 52.0485 20.7769 51.3997 21.1898 50.9868L48.402 23.755C48.8149 23.3421 49.4637 23.3421 49.8766 23.755L61.3788 35.2572C61.7917 35.6701 61.7917 36.319 61.3788 36.7319L34.1471 63.9636C33.9504 64.1603 33.6752 64.2586 33.4196 64.2586ZM23.3723 51.7143L33.4196 61.7615L59.1767 36.0044L49.1295 25.9571L23.3723 51.7143Z" fill="#009FDA"/>
<path d="M18.4372 67.9156C18.1816 67.9156 17.9063 67.8173 17.7097 67.6207C17.2968 67.2078 17.2968 66.5589 17.7097 66.146L27.0294 56.8263C27.4423 56.4134 28.0912 56.4134 28.5041 56.8263C28.917 57.2392 28.917 57.888 28.5041 58.3009L19.1647 67.6207C18.968 67.8173 18.6928 67.9156 18.4372 67.9156Z" fill="#009FDA"/>
<path d="M50.2305 35.9448C49.9553 35.9448 49.6997 35.8465 49.503 35.6499L43.7421 29.8693C43.3292 29.4564 43.3292 28.8075 43.7421 28.3946C44.155 27.9817 44.8038 27.9817 45.2167 28.3946L50.9777 34.1556C51.3906 34.5685 51.3906 35.2173 50.9777 35.6302C50.7614 35.8465 50.4861 35.9448 50.2305 35.9448Z" fill="#009FDA"/>
<path d="M45.7476 40.4086C45.4723 40.4086 45.2167 40.3102 45.0201 40.1136L39.2592 34.3527C38.8463 33.9398 38.8463 33.2909 39.2592 32.878C39.6721 32.4651 40.3209 32.4651 40.7338 32.878L46.4948 38.639C46.9077 39.0519 46.9077 39.7007 46.4948 40.1136C46.2785 40.3102 46.0229 40.4086 45.7476 40.4086Z" fill="#009FDA"/>
<path d="M41.2647 44.891C41.0091 44.891 40.7338 44.7927 40.5372 44.596L34.7762 38.8351C34.3633 38.4222 34.3633 37.7734 34.7762 37.3605C35.1891 36.9476 35.838 36.9476 36.2509 37.3605L42.0118 43.1214C42.4247 43.5343 42.4247 44.1831 42.0118 44.596C41.7956 44.7927 41.5399 44.891 41.2647 44.891Z" fill="#009FDA"/>
<path d="M36.8014 49.3744C36.5262 49.3744 36.2706 49.2761 36.0739 49.0794L30.313 43.3185C29.9001 42.9056 29.9001 42.2568 30.313 41.8439C30.7259 41.431 31.3747 41.431 31.7876 41.8439L37.5486 47.6048C37.9615 48.0177 37.9615 48.6665 37.5486 49.0794C37.3323 49.2761 37.057 49.3744 36.8014 49.3744Z" fill="#009FDA"/>
<path d="M32.3185 53.8373C32.0432 53.8373 31.7876 53.739 31.591 53.5423L25.8301 47.7814C25.4172 47.3685 25.4172 46.7196 25.8301 46.3067C26.243 45.8938 26.8918 45.8938 27.3047 46.3067L33.0657 52.0677C33.4786 52.4806 33.4786 53.1294 33.0657 53.5423C32.8494 53.739 32.5938 53.8373 32.3185 53.8373Z" fill="#009FDA"/>
</svg>
