<svg width="85" height="85" viewBox="0 0 85 85" fill="none" xmlns="http://www.w3.org/2000/svg">
<circle cx="42.5" cy="42.5" r="42" stroke="#009FDA"/>
<path d="M51.4023 29.8294C51.1512 29.8294 50.9168 29.729 50.7661 29.5281C50.7494 29.5113 48.8742 27.5357 43.5 27.5357C38.109 27.5357 36.2339 29.5113 36.2171 29.5281C36.0162 29.7457 35.6981 29.8629 35.3968 29.7959C35.0954 29.729 34.861 29.5113 34.7606 29.2267L32.0316 20.638C31.9814 20.4873 31.9814 20.3199 32.0149 20.1692C32.0651 19.9515 33.5049 14.6777 43.5 14.6777C53.4951 14.6777 54.9182 19.9515 54.9852 20.1692C55.0186 20.3199 55.0186 20.4873 54.9684 20.638L52.2227 29.2434C52.1222 29.5448 51.8878 29.7625 51.5865 29.8127C51.5195 29.8294 51.4693 29.8294 51.4023 29.8294ZM33.7393 20.3868L36.0162 27.5692C37.2384 26.8158 39.5656 25.8448 43.4833 25.8448C47.4009 25.8448 49.7448 26.8158 50.9503 27.5692L53.244 20.3868C52.8924 19.5497 51.0675 16.3854 43.4833 16.3854C35.9325 16.3854 34.0909 19.533 33.7393 20.3868Z" fill="#009FDA"/>
<path d="M31.8977 51.075C31.5293 51.075 31.1945 50.8407 31.0773 50.4556C30.6085 48.8483 30.056 45.7175 30.0728 40.0084C30.123 30.817 34.3922 27.05 34.5597 26.8993C34.9113 26.5979 35.447 26.6314 35.7651 26.983C36.0665 27.3346 36.033 27.8704 35.6814 28.1885C35.6312 28.2387 31.8307 31.6876 31.7972 40.0252C31.7805 45.818 32.3664 48.7479 32.7348 49.9868C32.8687 50.4388 32.6008 50.9076 32.1488 51.0416C32.0651 51.0583 31.9814 51.075 31.8977 51.075Z" fill="#009FDA"/>
<path d="M55.0856 51.0749C55.0019 51.0749 54.9182 51.0581 54.8512 51.0414C54.3992 50.9075 54.1481 50.4387 54.2653 49.9866C54.6336 48.7477 55.2196 45.8178 55.2028 40.025C55.1693 31.6037 51.3521 28.2385 51.3186 28.205C50.967 27.9037 50.9168 27.3679 51.2349 26.9996C51.5363 26.648 52.0888 26.5978 52.4404 26.9159C52.6245 27.0666 56.877 30.8336 56.9273 40.025C56.944 45.7341 56.3915 48.8649 55.9227 50.4722C55.7888 50.8237 55.4539 51.0749 55.0856 51.0749Z" fill="#009FDA"/>
<path d="M62.1341 59.9656C61.7825 59.9656 61.4476 59.7479 61.3304 59.3796C59.5892 54.2397 48.3217 51.1257 48.2213 51.1089C47.853 51.0085 47.5851 50.6736 47.5851 50.2886V48.179C47.5851 47.7103 47.9702 47.3252 48.4389 47.3252C48.9077 47.3252 49.2928 47.7103 49.2928 48.179V49.6524C51.8376 50.4225 61.163 53.57 62.9544 58.8438C63.1051 59.2959 62.8707 59.7647 62.4187 59.9153C62.3182 59.9488 62.2345 59.9656 62.1341 59.9656Z" fill="#009FDA"/>
<path d="M24.8492 59.9656C24.7655 59.9656 24.665 59.9488 24.5813 59.9153C24.1293 59.7647 23.8949 59.2791 24.0456 58.8438C25.8202 53.57 35.1456 50.4225 37.7072 49.6524V48.179C37.7072 47.7103 38.0923 47.3252 38.5611 47.3252C39.0298 47.3252 39.4149 47.7103 39.4149 48.179V50.2886C39.4149 50.6736 39.1638 51.0085 38.7787 51.1089C38.6615 51.1424 27.394 54.2565 25.6696 59.3963C25.5356 59.7479 25.2008 59.9656 24.8492 59.9656Z" fill="#009FDA"/>
<path d="M44.1697 65.2221H42.7968C42.6462 65.2221 42.4955 65.1887 42.3783 65.1049C38.2095 62.6941 35.9158 55.361 35.8153 55.0596C35.6814 54.6076 35.9325 54.1388 36.3846 53.9881C36.8366 53.8542 37.3054 54.1053 37.4561 54.5574C37.4728 54.6243 39.5823 61.3212 43.0647 63.5144H43.952C47.4177 61.3212 49.5272 54.6243 49.5607 54.5574C49.6946 54.1053 50.1801 53.8542 50.6322 53.9881C51.0842 54.1221 51.3354 54.6076 51.2014 55.0596C51.101 55.3777 48.8073 62.7108 44.6385 65.1049C44.4711 65.1719 44.3204 65.2221 44.1697 65.2221Z" fill="#009FDA"/>
<path d="M43.5 49.3336C42.7801 49.3336 42.0434 49.0992 41.4407 48.6305L38.6113 46.454C37.4561 45.5666 36.6859 44.2942 36.4683 42.8544L35.2963 35.5046C35.2628 35.2702 35.3131 35.0525 35.447 34.8684C35.5809 34.6842 35.7819 34.567 36.0162 34.5335C45.643 33.2444 48.0371 29.9797 48.0539 29.9462C48.2883 29.6113 48.7236 29.4941 49.0919 29.6448C49.4602 29.7955 49.6779 30.1973 49.5942 30.5824C49.5774 30.6493 49.2928 32.5747 51.486 34.7679C51.6869 34.9688 51.7707 35.2367 51.7204 35.5046L50.5485 42.8544C50.3141 44.2942 49.5607 45.5666 48.4055 46.454L45.576 48.6305C44.9566 49.0992 44.2199 49.3336 43.5 49.3336ZM37.0877 36.0906L38.1258 42.5865C38.2932 43.5911 38.8289 44.4951 39.6326 45.1146L42.462 47.2911C43.0647 47.7599 43.9018 47.7599 44.5045 47.2911L47.334 45.1146C48.1376 44.4951 48.6733 43.5911 48.8408 42.5865L49.9458 35.6553C48.7905 34.3996 48.2548 33.1942 48.0204 32.2399C46.4299 33.462 43.1652 35.1697 37.0877 36.0906Z" fill="#009FDA"/>
<path d="M43.5 24.1705C43.0312 24.1705 42.6461 23.7854 42.6461 23.3166V18.9134C42.6461 18.4446 43.0312 18.0596 43.5 18.0596C43.9688 18.0596 44.3539 18.4446 44.3539 18.9134V23.3166C44.3371 23.7854 43.9688 24.1705 43.5 24.1705Z" fill="#009FDA"/>
<path d="M45.6932 21.9606H41.29C40.8213 21.9606 40.4362 21.5756 40.4362 21.1068C40.4362 20.638 40.8213 20.2529 41.29 20.2529H45.6932C46.162 20.2529 46.5471 20.638 46.5471 21.1068C46.5471 21.5756 46.162 21.9606 45.6932 21.9606Z" fill="#009FDA"/>
</svg>
