<svg width="85" height="85" viewBox="0 0 85 85" fill="none" xmlns="http://www.w3.org/2000/svg">
<circle cx="42.5" cy="42.5" r="42" stroke="#009FDA"/>
<path d="M43.0402 55.2576C43.0202 55.2576 43.0001 55.2576 43.0001 55.2576C41.5966 55.2576 40.2733 54.7964 39.2909 53.9744C38.2282 53.1122 37.6668 51.9493 37.6668 50.7062C37.6668 50.205 38.0879 49.804 38.5891 49.804C39.0904 49.804 39.4914 50.225 39.4914 50.7263C39.4914 51.408 39.8322 52.0696 40.4337 52.5709C41.1154 53.1323 42.0177 53.433 43.0001 53.433C43.0202 53.433 43.0202 53.433 43.0402 53.433C44.0026 53.433 44.9049 53.1323 45.5866 52.5909C46.2081 52.0897 46.569 51.4481 46.569 50.7664C46.569 50.0847 46.2282 49.423 45.6267 48.9218C44.945 48.3604 44.0427 48.0596 43.0603 48.0596C40.0929 48.0396 37.7069 45.9945 37.727 43.5083C37.747 41.0221 40.153 39.0371 43.0803 39.0371C43.1004 39.0371 43.1004 39.0371 43.1204 39.0371C44.5239 39.0371 45.8472 39.4983 46.8297 40.3203C47.8923 41.1825 48.4537 42.3454 48.4537 43.5885C48.4537 44.0897 48.0327 44.4907 47.5314 44.4907C47.0302 44.4907 46.6292 44.0697 46.6292 43.5684C46.6292 42.8867 46.2883 42.2251 45.6668 41.7238C44.9851 41.1624 44.0828 40.8617 43.1004 40.8617C41.1355 40.8617 39.5515 42.0446 39.5515 43.5283C39.5515 45.012 41.1154 46.2351 43.0803 46.2351C44.4838 46.2351 45.8071 46.6962 46.7896 47.5183C47.8522 48.3804 48.4136 49.5433 48.4136 50.7864C48.4136 52.0295 47.8121 53.1924 46.7495 54.0345C45.7269 54.8165 44.4237 55.2576 43.0402 55.2576Z" fill="#009FDA"/>
<path d="M43.1004 40.8412C42.5791 40.8412 42.1781 40.4202 42.1781 39.9189L42.1981 37.6132C42.1981 37.1119 42.6192 36.7109 43.1204 36.7109C43.6217 36.7109 44.0227 37.132 44.0227 37.6332L44.0026 39.939C44.0026 40.4402 43.6016 40.8412 43.1004 40.8412Z" fill="#009FDA"/>
<path d="M42.9801 57.5629C42.4588 57.5629 42.0578 57.1419 42.0578 56.6406L42.0778 54.3349C42.0778 53.8336 42.4989 53.4326 43.0001 53.4326C43.5014 53.4326 43.9024 53.8537 43.9024 54.3549L43.8823 56.6607C43.9024 57.1619 43.4813 57.5629 42.9801 57.5629Z" fill="#009FDA"/>
<path d="M42.96 64.0793C32.2132 64.0793 24.9551 62.2548 21.3862 58.6658C18.88 56.1596 18.9 53.4528 18.9 52.4303V52.33C18.9 50.0644 19.2008 45.9541 21.286 43.8689C21.5867 43.5682 21.9075 43.2474 22.2484 42.9266C23.9727 41.2424 25.9376 39.3176 27.1005 37.3527C28.6243 34.7462 30.4689 32.7211 32.4137 31.458C34.3987 30.1948 41.5164 30.2349 42.96 30.255C44.4036 30.2349 51.5214 30.1948 53.5063 31.458C55.4712 32.7211 57.2958 34.7462 58.8196 37.3527C59.9825 39.3176 61.9273 41.2424 63.6516 42.9266C63.9925 43.2674 64.3133 43.5682 64.614 43.889C66.6792 45.9541 67 50.0644 67 52.3501V52.4503C67 53.4729 67.02 56.1796 64.5138 58.6859C60.9649 62.2748 53.7068 64.0793 42.96 64.0793ZM42.0778 32.0595C38.8097 32.0595 34.4388 32.3201 33.4162 32.9818C31.6919 34.0845 30.0679 35.9091 28.6844 38.2549C27.4012 40.4404 25.2559 42.5256 23.5316 44.2098C23.1907 44.5306 22.8699 44.8514 22.5892 45.1521C21.4263 46.315 20.7446 48.9817 20.7446 52.31V52.4303C20.7446 53.3927 20.7246 55.3977 22.6895 57.3626C24.915 59.5881 30.2283 62.2347 42.9801 62.2347C55.7319 62.2347 61.0451 59.5881 63.2707 57.3626C65.2356 55.3977 65.2356 53.3927 65.2155 52.4303V52.31C65.2155 48.9817 64.5338 46.315 63.3709 45.1521C63.0702 44.8514 62.7494 44.5306 62.4085 44.2098C60.6842 42.5256 58.5389 40.4404 57.2757 38.2549C55.8923 35.9091 54.2682 34.0845 52.5439 32.9818C51.4211 32.26 46.2883 32.0194 43.0001 32.0595H42.9801C42.6593 32.0795 42.3786 32.0595 42.0778 32.0595Z" fill="#009FDA"/>
<path d="M62.9699 44.4306C62.7694 44.4306 62.589 44.3705 62.4286 44.2502C62.0677 43.9695 61.9674 43.4682 62.1679 43.0873C62.2281 42.9269 62.5489 41.6838 61.9073 36.9921C61.2055 31.8192 57.6767 29.9946 53.4863 28.3104C49.7169 26.7866 43.0402 26.6864 42.96 26.6864C42.9199 26.6864 36.2232 26.7866 32.4739 28.3104C28.2834 29.9946 24.7546 31.8192 24.0529 36.9921C23.4113 41.7038 23.7321 42.9269 23.7922 43.0873C24.0128 43.4883 23.9125 43.9695 23.5316 44.2502C23.1306 44.5509 22.5491 44.4707 22.2484 44.0697C21.5466 43.1274 21.8474 39.5585 22.2283 36.7314C23.1306 30.0748 28.3235 27.9896 31.7721 26.6062C35.8623 24.9621 42.6593 24.8418 42.96 24.8418C43.2808 24.8418 50.0778 24.9621 54.168 26.6062C57.6166 27.9896 62.8296 30.0949 63.7318 36.7314C64.1128 39.5585 64.4336 43.1274 63.7118 44.0697C63.5313 44.2903 63.2506 44.4306 62.9699 44.4306ZM62.2481 42.967C62.2281 42.967 62.2281 42.967 62.2481 42.967C62.2281 42.967 62.2281 42.967 62.2481 42.967Z" fill="#009FDA"/>
<path d="M39.1305 23.4782C37.2458 23.4782 35.7019 21.9343 35.7019 20.0496C35.7019 18.1649 37.2458 16.6211 39.1305 16.6211C41.0152 16.6211 42.559 18.1649 42.559 20.0496C42.559 21.9343 41.0152 23.4782 39.1305 23.4782ZM39.1305 18.4456C38.2483 18.4456 37.5265 19.1674 37.5265 20.0496C37.5265 20.9318 38.2483 21.6536 39.1305 21.6536C40.0127 21.6536 40.7345 20.9318 40.7345 20.0496C40.7345 19.1674 40.0127 18.4456 39.1305 18.4456Z" fill="#009FDA"/>
<path d="M46.8096 23.4782C44.9249 23.4782 43.3811 21.9343 43.3811 20.0496C43.3811 18.1649 44.9249 16.6211 46.8096 16.6211C48.6943 16.6211 50.2382 18.1649 50.2382 20.0496C50.2382 21.9343 48.6943 23.4782 46.8096 23.4782ZM46.8096 18.4456C45.9274 18.4456 45.2056 19.1674 45.2056 20.0496C45.2056 20.9318 45.9274 21.6536 46.8096 21.6536C47.6918 21.6536 48.4136 20.9318 48.4136 20.0496C48.3936 19.1674 47.6918 18.4456 46.8096 18.4456Z" fill="#009FDA"/>
<path d="M34.0779 27.7689C33.8774 27.7689 33.6769 27.7088 33.5165 27.5684C33.1155 27.2476 33.0553 26.6862 33.3561 26.2852L37.0252 21.5735C37.326 21.1725 37.9074 21.1123 38.3084 21.4131C38.7094 21.7339 38.7696 22.2953 38.4688 22.6963L34.7997 27.4281C34.6192 27.6486 34.3586 27.7689 34.0779 27.7689Z" fill="#009FDA"/>
<path d="M51.8422 27.7686C51.5615 27.7686 51.3008 27.6483 51.1204 27.4077L47.4512 22.696C47.1304 22.295 47.2106 21.7336 47.6116 21.4128C48.0126 21.092 48.5941 21.1722 48.8948 21.5732L52.564 26.2849C52.8647 26.6859 52.8046 27.2473 52.4036 27.5681C52.2432 27.7085 52.0427 27.7686 51.8422 27.7686Z" fill="#009FDA"/>
</svg>
