<svg width="85" height="85" viewBox="0 0 85 85" fill="none" xmlns="http://www.w3.org/2000/svg">
<circle cx="42.5" cy="42.5" r="42" stroke="#009FDA"/>
<path d="M42.2284 50.5916C42.0415 50.5916 41.8547 50.5293 41.7093 50.384L34.6505 43.3252C34.3599 43.0345 34.3599 42.557 34.6505 42.2664C34.9412 41.9757 35.4187 41.9757 35.7093 42.2664L42.2284 48.7854L58.6298 32.384C58.9204 32.0934 59.3979 32.0934 59.6886 32.384C59.9792 32.6747 59.9792 33.1522 59.6886 33.4428L42.7682 50.3632C42.6021 50.5086 42.4152 50.5916 42.2284 50.5916Z" fill="#009FDA"/>
<path d="M41.9585 65C41.8547 65 41.7301 64.9792 41.6263 64.917C25.4118 56.9654 24.0623 49.0969 24 48.7647C24 48.7232 24 48.6817 24 48.6609V29.4152C24 29 24.3322 28.6678 24.7474 28.6678C32.1176 28.6678 41.3979 21.1938 41.481 21.1107C41.7509 20.8824 42.1453 20.8824 42.4152 21.1107C42.4983 21.1938 51.7785 28.6678 59.1488 28.6678C59.564 28.6678 59.8962 29 59.8962 29.4152V32.9239C59.8962 33.3391 59.564 33.6713 59.1488 33.6713C58.7336 33.6713 58.4014 33.3391 58.4014 32.9239V30.1419C51.5917 29.7474 43.9308 24.1626 41.9585 22.6263C39.9654 24.1626 32.3045 29.7474 25.4948 30.1419V48.5986C25.6194 49.2007 27.4671 56.2388 41.9585 63.4429C56.5329 56.1972 58.2976 49.2215 58.4221 48.5986V45.09C58.4221 44.6747 58.7543 44.3426 59.1695 44.3426C59.5848 44.3426 59.917 44.6747 59.917 45.09V48.6609C59.917 48.7024 59.917 48.7439 59.917 48.7647C59.8754 49.0969 58.5052 56.9654 42.3114 64.917C42.1661 64.9792 42.0623 65 41.9585 65Z" fill="#009FDA"/>
</svg>
