<svg width="20" height="20" viewBox="0 0 20 20" fill="none" xmlns="http://www.w3.org/2000/svg">
<path d="M0 20V10H4V6C4 4.33333 4.58333 2.91667 5.75 1.75C6.91667 0.583333 8.33333 0 10 0H14C15.6667 0 17.0833 0.583333 18.25 1.75C19.4167 2.91667 20 4.33333 20 6V20H18V17H14V20H0ZM14 15H18V6C18 4.9 17.6083 3.95833 16.825 3.175C16.0417 2.39167 15.1 2 14 2H10C8.9 2 7.95833 2.39167 7.175 3.175C6.39167 3.95833 6 4.9 6 6V10H14V15ZM8 8V6H16V8H8ZM7 16.6L12 13.75V12L7 14.85L2 12V13.75L7 16.6Z" fill="white"/>
</svg>
