<svg width="23" height="19" viewBox="0 0 23 19" fill="none" xmlns="http://www.w3.org/2000/svg">
<path d="M22.0938 2.37393C21.2859 2.73334 20.4067 2.99201 19.5011 3.09276C20.4413 2.51671 21.1454 1.60664 21.4812 0.533309C20.599 1.07458 19.6325 1.45412 18.6246 1.65511C18.2033 1.19067 17.6939 0.820675 17.1279 0.568181C16.5619 0.315688 15.9516 0.186107 15.3349 0.187511C12.84 0.187511 10.8335 2.27319 10.8335 4.83264C10.8335 5.19205 10.8757 5.55146 10.9444 5.89726C7.20854 5.69577 3.87666 3.85514 1.66157 1.03703C1.25796 1.748 1.04645 2.55752 1.04905 3.38137C1.04905 4.99328 1.84374 6.41459 3.05557 7.2505C2.34142 7.22149 1.644 7.01905 1.02001 6.65965V6.71682C1.02001 8.97404 2.56715 10.8446 4.62911 11.2748C4.24195 11.3785 3.84368 11.4316 3.44368 11.4327C3.15062 11.4327 2.8734 11.4028 2.59355 11.362C3.16382 13.2026 4.82448 14.5395 6.80196 14.583C5.25483 15.8328 3.31695 16.568 1.21275 16.568C0.835203 16.568 0.486702 16.5544 0.125 16.5108C2.12096 17.8314 4.48918 18.5938 7.03957 18.5938C15.3191 18.5938 19.8496 11.5199 19.8496 5.37992C19.8496 5.17843 19.8496 4.97695 19.8364 4.77546C20.7129 4.11381 21.4812 3.29424 22.0938 2.37393Z" fill="white"/>
</svg>
