<svg width="85" height="85" viewBox="0 0 85 85" fill="none" xmlns="http://www.w3.org/2000/svg">
<circle cx="42.5" cy="42.5" r="42" stroke="#009FDA"/>
<path d="M43.2443 57.7744H40.9748C39.0867 57.7744 37.5609 56.2486 37.5609 54.3605C37.5609 53.96 37.8851 53.6549 38.2666 53.6549C38.6671 53.6549 38.9722 53.9791 38.9722 54.3605C38.9722 55.4667 39.8686 56.3631 40.9748 56.3631H43.2443C44.3505 56.3631 45.2469 55.4667 45.2469 54.3605C45.2469 53.2544 44.3505 52.358 43.2443 52.358H40.9748C39.0867 52.358 37.5609 50.8322 37.5609 48.9441C37.5609 47.056 39.0867 45.5303 40.9748 45.5303H43.2443C45.1324 45.5303 46.6582 47.056 46.6582 48.9441C46.6582 49.3446 46.3339 49.6498 45.9525 49.6498C45.552 49.6498 45.2469 49.3256 45.2469 48.9441C45.2469 47.838 44.3505 46.9416 43.2443 46.9416H40.9748C39.8686 46.9416 38.9722 47.838 38.9722 48.9441C38.9722 50.0503 39.8686 50.9467 40.9748 50.9467H43.2443C45.1324 50.9467 46.6582 52.4724 46.6582 54.3605C46.6582 56.2296 45.1324 57.7744 43.2443 57.7744Z" fill="#009FDA"/>
<path d="M42.1 46.9229C41.6995 46.9229 41.3943 46.5987 41.3943 46.2173V43.6998C41.3943 43.2993 41.7186 42.9941 42.1 42.9941C42.5005 42.9941 42.8057 43.3184 42.8057 43.6998V46.2173C42.8057 46.5987 42.5005 46.9229 42.1 46.9229Z" fill="#009FDA"/>
<path d="M42.1 60.2735C41.6995 60.2735 41.3943 59.9493 41.3943 59.5679V57.0504C41.3943 56.6499 41.7186 56.3447 42.1 56.3447C42.5005 56.3447 42.8057 56.6689 42.8057 57.0504V59.5679C42.8057 59.9684 42.5005 60.2735 42.1 60.2735Z" fill="#009FDA"/>
<path d="M49.271 31.6656C49.1566 31.6656 49.0421 31.6274 48.9277 31.5702C48.5844 31.3795 48.47 30.9409 48.6607 30.5976C50.5488 27.2409 52.5704 23.2358 52.9519 21.8817C52.5132 21.8817 51.7885 22.0152 51.2163 22.1106C50.2055 22.2823 49.0612 22.492 47.8787 22.492C45.7427 22.492 43.1871 20.4895 42.1191 19.5741C41.0701 20.4895 38.5145 22.492 36.3594 22.492C35.1769 22.492 34.0326 22.3013 33.0218 22.1106C32.4497 22.0152 31.7249 21.8817 31.2863 21.8817C31.6486 23.2168 33.6702 27.2219 35.5774 30.5976C35.7681 30.9409 35.6537 31.3795 35.3104 31.5702C34.9671 31.7609 34.5285 31.6465 34.3378 31.3032C28.826 21.5385 29.6461 21.0617 30.2373 20.7184C30.9048 20.3369 31.8966 20.5086 33.2507 20.7374C34.2043 20.9091 35.2914 21.0807 36.3403 21.0807C38.1331 21.0807 40.7459 18.9447 41.6041 18.1055C41.8711 17.8385 42.3098 17.8385 42.5959 18.1055C43.4541 18.9256 46.0669 21.0807 47.8597 21.0807C48.9277 21.0807 49.9957 20.89 50.9493 20.7374C52.3034 20.5086 53.2951 20.3369 53.9627 20.7184C54.5539 21.0617 55.393 21.5385 49.8813 31.3032C49.7478 31.5321 49.5189 31.6656 49.271 31.6656Z" fill="#009FDA"/>
<path d="M49.271 35.7659H34.9481C34.5475 35.7659 34.2424 35.4417 34.2424 35.0603V31.4176C34.2424 31.0171 34.5666 30.7119 34.9481 30.7119H49.271C49.6715 30.7119 49.9766 31.0361 49.9766 31.4176V35.0603C49.9766 35.4608 49.6524 35.7659 49.271 35.7659ZM35.6537 34.3546H48.5653V32.1423H35.6537V34.3546Z" fill="#009FDA"/>
<path d="M42.4052 67.845H41.8139C34.5476 67.845 29.341 66.1858 26.3467 62.9245C22.6277 58.8622 23.1045 53.2932 23.3906 49.9747L23.4287 49.5742C24.1534 40.9728 34.1471 34.7173 34.5666 34.4693C34.8909 34.2596 35.3295 34.374 35.5393 34.6982C35.7491 35.0224 35.6347 35.4611 35.3104 35.6709C35.2151 35.7281 25.5075 41.812 24.84 49.6887L24.8019 50.0892C24.5158 53.3886 24.0962 58.3663 27.3956 61.9518C30.1038 64.908 34.9672 66.4146 41.8139 66.4146H42.4052C49.2519 66.4146 54.1153 64.908 56.8235 61.9518C60.1229 58.3473 59.6842 53.3886 59.3982 50.0892L59.36 49.6887C58.6925 41.7929 48.9849 35.7281 48.8896 35.6709C48.5654 35.4611 48.4509 35.0224 48.6607 34.6982C48.8705 34.374 49.3092 34.2596 49.6334 34.4693C50.053 34.7363 60.0466 40.9728 60.7713 49.5742L60.8095 49.9747C61.0955 53.2932 61.5723 58.8622 57.8533 62.9054C54.8591 66.1858 49.6715 67.845 42.4052 67.845Z" fill="#009FDA"/>
</svg>
