<svg width="85" height="85" viewBox="0 0 85 85" fill="none" xmlns="http://www.w3.org/2000/svg">
<circle cx="42.5" cy="42.5" r="42" stroke="#009FDA"/>
<path d="M63.2415 59.0004H22.7437C21.5748 59.0004 20.6007 58.0507 20.6007 56.8574V30.143C20.6007 28.9741 21.5504 28 22.7437 28H63.2415C64.4104 28 65.3844 28.9497 65.3844 30.143V56.8574C65.3844 58.0507 64.4104 59.0004 63.2415 59.0004ZM22.7437 29.4611C22.3784 29.4611 22.0618 29.7777 22.0618 30.143V56.8574C22.0618 57.2227 22.3784 57.5393 22.7437 57.5393H63.2415C63.6067 57.5393 63.9233 57.2227 63.9233 56.8574V30.143C63.9233 29.7777 63.6067 29.4611 63.2415 29.4611H22.7437Z" fill="#009FDA"/>
<path d="M49.6042 26.5144C49.1902 26.5144 48.8736 26.1978 48.8736 25.7838V23.8356C48.8736 23.2999 48.4353 22.8615 47.8995 22.8615H38.0856C37.5499 22.8615 37.1115 23.2999 37.1115 23.8356V25.7838C37.1115 26.1978 36.7949 26.5144 36.3809 26.5144C35.967 26.5144 35.6504 26.1978 35.6504 25.7838V23.8356C35.6504 22.4962 36.7462 21.4004 38.0856 21.4004H47.8995C49.2389 21.4004 50.3348 22.4962 50.3348 23.8356V25.7838C50.3348 26.1734 50.0182 26.5144 49.6042 26.5144Z" fill="#009FDA"/>
<path d="M42.9804 47.8708C41.0809 47.8708 39.2058 47.5055 37.4037 46.7993L21.0634 40.2486C20.6981 40.1025 20.5033 39.6641 20.6494 39.2988C20.7955 38.9336 21.2338 38.7387 21.5991 38.8849L37.9638 45.4356C41.2027 46.7263 44.7825 46.7263 48.0457 45.4356L64.4104 38.8849C64.7756 38.7387 65.214 38.9092 65.3601 39.2988C65.5062 39.6641 65.3357 40.1025 64.9461 40.2486L48.5814 46.7993C46.7793 47.5055 44.8799 47.8708 42.9804 47.8708Z" fill="#009FDA"/>
<path d="M42.9804 42.392C42.5664 42.392 42.2498 42.0754 42.2498 41.6614V34.4288C42.2498 34.0148 42.5664 33.6982 42.9804 33.6982C43.3944 33.6982 43.711 34.0148 43.711 34.4288V41.6614C43.711 42.0511 43.3944 42.392 42.9804 42.392Z" fill="#009FDA"/>
<path d="M46.6089 38.7883H39.3763C38.9623 38.7883 38.6457 38.4717 38.6457 38.0577C38.6457 37.6437 38.9623 37.3271 39.3763 37.3271H46.6089C47.0229 37.3271 47.3394 37.6437 47.3394 38.0577C47.3394 38.4474 46.9985 38.7883 46.6089 38.7883Z" fill="#009FDA"/>
</svg>
