<svg width="85" height="85" viewBox="0 0 85 85" fill="none" xmlns="http://www.w3.org/2000/svg">
<circle cx="42.5" cy="42.5" r="42" stroke="#009FDA"/>
<path d="M42.2 67.8C42.1019 67.8 42.0038 67.7755 41.9057 67.7509C35.4547 65.0038 30.3528 60.417 26.7226 54.1377C22.3321 46.534 20.9585 37.8264 20.566 31.866C20.5415 31.6698 20.6151 31.4736 20.7623 31.3264C20.9094 31.1792 21.0811 31.0811 21.3019 31.0811C26.3792 31.0075 30.5 26.8132 30.5 21.7358C30.5 21.3189 30.8189 21 31.2358 21H52.8943C53.3113 21 53.6302 21.3189 53.6302 21.7358C53.6302 26.8868 57.8245 31.0811 62.9755 31.0811H63.0981C63.2943 31.0811 63.4906 31.1547 63.6377 31.3019C63.7849 31.4491 63.8585 31.6453 63.834 31.8415C63.4415 37.8264 62.0679 46.534 57.6774 54.1132C54.0472 60.3925 48.9453 64.9792 42.4943 67.7264C42.3962 67.7755 42.2981 67.8 42.2 67.8ZM22.0868 32.5038C22.5283 38.2925 23.9264 46.3623 27.9981 53.3774C31.4075 59.2887 36.1906 63.6057 42.2 66.2547C48.2094 63.6302 52.9925 59.2887 56.4019 53.4019C60.4491 46.3868 61.8472 38.317 62.3132 32.5283C56.917 32.1849 52.5509 27.8679 52.2075 22.4717H31.9472C31.5792 27.7453 27.3604 32.0623 22.0868 32.5038Z" fill="#009FDA"/>
<path d="M42.2981 50.1399C41.8811 50.1399 41.5623 49.8211 41.5623 49.4041V36.1343C41.5623 35.7173 41.8811 35.3984 42.2981 35.3984C42.7151 35.3984 43.034 35.7173 43.034 36.1343V49.4041C43.034 49.7966 42.6906 50.1399 42.2981 50.1399Z" fill="#009FDA"/>
<path d="M48.9207 43.4922H35.6509C35.234 43.4922 34.9151 43.1733 34.9151 42.7564C34.9151 42.3394 35.234 42.0205 35.6509 42.0205H48.9207C49.3377 42.0205 49.6566 42.3394 49.6566 42.7564C49.6566 43.1733 49.3377 43.4922 48.9207 43.4922Z" fill="#009FDA"/>
</svg>
