<svg width="85" height="85" viewBox="0 0 85 85" fill="none" xmlns="http://www.w3.org/2000/svg">
<circle cx="42.5" cy="42.5" r="42" stroke="#009FDA"/>
<path d="M48.6538 57.4478C48.2808 57.4478 47.9855 57.1525 47.9855 56.7795V54.8524L44.2246 53.547C43.9604 53.4537 43.7739 53.2051 43.7739 52.9098V43.7096C43.7739 43.461 43.9138 43.2434 44.1314 43.1191C52.2282 38.6744 52.8032 26.5369 52.7565 22.5896C52.4302 22.4963 51.6065 22.3098 49.6173 22.1078C44.8929 21.6105 40.1063 21.6105 35.3818 22.1078C33.3926 22.3098 32.5689 22.4963 32.2426 22.5896C32.196 26.5369 32.771 38.6744 40.8678 43.1191C41.0853 43.2434 41.2252 43.461 41.2252 43.7096V52.9098C41.2252 53.1895 41.0387 53.4537 40.7745 53.547L37.0136 54.8524V56.7795C37.0136 57.1525 36.7184 57.4478 36.3454 57.4478C35.9724 57.4478 35.6771 57.1525 35.6771 56.7795V54.3707C35.6771 54.0909 35.8636 53.8267 36.1278 53.7335L39.8887 52.428V44.0981C31.3101 39.0473 30.8439 26.2106 30.9061 22.3564V22.2321C30.9061 21.4706 31.5277 21.1443 35.242 20.7557C40.0597 20.2429 44.9395 20.2429 49.7727 20.7557C53.487 21.1443 54.1086 21.4706 54.1086 22.2321V22.3564C54.1708 26.2106 53.7045 39.0629 45.126 44.0981V52.428L48.8869 53.7335C49.1511 53.8267 49.3376 54.0754 49.3376 54.3707V56.7795C49.3376 57.1525 49.0267 57.4478 48.6538 57.4478ZM52.7565 22.2166C52.7565 22.2321 52.7565 22.2321 52.7565 22.2166V22.2166ZM32.2581 22.2166C32.2581 22.2321 32.2581 22.2321 32.2581 22.2166V22.2166Z" fill="#009FDA"/>
<path d="M33.6723 43.3366C33.2994 43.3366 33.0041 43.0413 33.0041 42.6683C33.0041 42.2954 33.2994 42.0001 33.6723 42.0001C35.2575 42.0001 35.7082 41.6271 35.8325 41.4717C35.8792 41.4251 35.9879 41.2541 35.8792 40.8501C35.7704 40.446 35.444 40.0575 34.9778 39.7933C22.5451 32.7222 23.0113 26.0551 23.0424 25.7599C23.0424 24.6098 23.5708 23.4287 24.5032 22.6051C25.4823 21.7192 26.8344 21.2996 28.1864 21.4395C30.2378 21.6726 31.9318 23.2578 32.2115 25.2315C32.4757 27.143 31.4345 28.9924 29.6317 29.816C29.2898 29.9714 28.8858 29.816 28.7304 29.4897C28.5749 29.1478 28.7304 28.7437 29.0567 28.5883C30.3155 28.0133 31.0459 26.7389 30.8595 25.418C30.673 24.0504 29.4763 22.947 28.0155 22.7916C27.0519 22.6828 26.0884 22.9936 25.3891 23.6152C24.7363 24.2058 24.3789 24.9828 24.3789 25.8376C24.3789 25.9619 24.0525 32.0384 35.6305 38.6277C36.4075 39.0629 36.9515 39.7311 37.1535 40.4926C37.3866 41.3629 37.138 41.9535 36.8738 42.2954C36.3609 42.9792 35.3041 43.3366 33.6723 43.3366Z" fill="#009FDA"/>
<path d="M51.3268 43.3367C49.695 43.3367 48.6382 42.9948 48.0943 42.2799C47.8301 41.938 47.5814 41.3474 47.8145 40.4772C48.0321 39.7157 48.576 39.0629 49.3531 38.6123C60.931 32.0229 60.6202 25.9309 60.6047 25.8843C60.6047 24.9829 60.2472 24.1903 59.5945 23.6153C58.8952 22.9937 57.9317 22.6829 56.9681 22.7916C55.5073 22.947 54.3262 24.0504 54.1397 25.418C53.9532 26.739 54.6836 28.0134 55.9424 28.5884C56.2843 28.7438 56.4242 29.1479 56.2688 29.4898C56.1134 29.8317 55.7093 29.9715 55.3674 29.8161C53.5491 28.9924 52.5234 27.1431 52.7876 25.2316C53.0518 23.2579 54.7458 21.6727 56.8127 21.4551C58.1648 21.3153 59.5013 21.7349 60.4959 22.6207C61.4283 23.4444 61.9567 24.6255 61.9567 25.8376C61.9723 26.0552 62.454 32.7378 50.0213 39.8089C49.5707 40.0731 49.2443 40.4461 49.12 40.8657C49.0112 41.2697 49.1355 41.4251 49.1666 41.4873C49.2909 41.6427 49.7416 42.0157 51.3268 42.0157C51.6998 42.0157 51.995 42.311 51.995 42.684C51.995 43.0569 51.6998 43.3367 51.3268 43.3367Z" fill="#009FDA"/>
<path d="M52.5856 60.4006H32.4291C32.0561 60.4006 31.7608 60.1053 31.7608 59.7324V56.7796C31.7608 56.4066 32.0561 56.1113 32.4291 56.1113H52.5856C52.9586 56.1113 53.2538 56.4066 53.2538 56.7796V59.7324C53.2538 60.1053 52.9586 60.4006 52.5856 60.4006ZM33.0973 59.0641H51.9018V57.4478H33.0973V59.0641Z" fill="#009FDA"/>
<path d="M56.937 63.3684H28.0621C27.6891 63.3684 27.3938 63.0731 27.3938 62.7001V59.7474C27.3938 59.3744 27.6891 59.0791 28.0621 59.0791H56.937C57.31 59.0791 57.6053 59.3744 57.6053 59.7474V62.7001C57.6208 63.0576 57.31 63.3684 56.937 63.3684ZM28.7303 62.0163H56.2688V60.4001H28.7303V62.0163Z" fill="#009FDA"/>
</svg>
