<svg width="85" height="85" viewBox="0 0 85 85" fill="none" xmlns="http://www.w3.org/2000/svg">
<circle cx="42.5" cy="42.5" r="42" stroke="#009FDA"/>
<path fill-rule="evenodd" clip-rule="evenodd" d="M46.8289 28.7003C45.2361 28.7003 43.5277 28.8292 42.6158 29.7321C42.102 30.2351 41.8579 30.9573 41.8579 31.9246V56.4037C41.8579 58.1706 43.2965 59.6151 45.0563 59.6151H59.0572C60.817 59.6151 62.2556 58.1706 62.2556 56.4037V31.9375C62.2556 30.9702 62.0116 30.248 61.4849 29.745C60.3417 28.6229 57.9783 28.6745 56.0772 28.7132C55.7176 28.7261 55.3707 28.7261 55.0368 28.7261C54.7542 28.7261 54.5101 28.5068 54.4844 28.2231C54.3431 26.8818 53.2256 25.8629 51.8769 25.8629C50.5282 25.8629 49.4107 26.8689 49.2694 28.2231C49.2437 28.5068 48.9997 28.7261 48.7171 28.7261C48.4345 28.7261 48.1262 28.7261 47.8179 28.7132C47.4968 28.7132 47.1628 28.7003 46.8289 28.7003ZM59.0572 60.7372H45.0563C42.68 60.7372 40.7532 58.7897 40.7532 56.4166V31.9375C40.7532 30.6607 41.1257 29.6547 41.8451 28.9453C43.2837 27.5266 45.8141 27.5653 47.8565 27.604C47.9978 27.604 48.1391 27.604 48.2675 27.6169C48.6657 25.9532 50.1429 24.7666 51.8898 24.7666C53.6367 24.7666 55.1138 25.9661 55.512 27.6169C55.6919 27.6169 55.8717 27.604 56.0644 27.604C58.1709 27.5524 60.7913 27.5008 62.2684 28.9453C63.0006 29.6676 63.3731 30.6736 63.3731 31.9375V56.4166C63.3603 58.8026 61.4335 60.7372 59.0572 60.7372Z" fill="#009FDA" stroke="#009FDA" stroke-width="0.5"/>
<path fill-rule="evenodd" clip-rule="evenodd" d="M52.0439 64.2065C50.9136 64.2065 49.8474 63.8582 49.051 63.2134C48.1262 62.4782 47.6381 61.4207 47.6381 60.1825C47.6381 59.873 47.8822 59.6279 48.1904 59.6279C48.4987 59.6279 48.7428 59.873 48.7428 60.1825C48.7428 62.1816 50.4511 63.0973 52.0439 63.0973C52.9045 63.0973 53.7394 62.8265 54.3303 62.3493C54.9725 61.8334 55.3194 61.0853 55.3194 60.1825C55.3194 59.873 55.5634 59.6279 55.8717 59.6279C56.18 59.6279 56.424 59.873 56.424 60.1825C56.4369 62.8265 54.2275 64.2065 52.0439 64.2065Z" fill="#009FDA" stroke="#009FDA" stroke-width="0.5"/>
<path fill-rule="evenodd" clip-rule="evenodd" d="M46.4821 37.239H41.2927C40.9845 37.239 40.7404 36.994 40.7404 36.6845C40.7404 36.3749 40.9845 36.1299 41.2927 36.1299H46.4821C46.7903 36.1299 47.0344 36.3749 47.0344 36.6845C47.0344 36.994 46.7903 37.239 46.4821 37.239Z" fill="#009FDA" stroke="#009FDA" stroke-width="0.5"/>
<path fill-rule="evenodd" clip-rule="evenodd" d="M46.4821 40.9656H41.2927C40.9845 40.9656 40.7404 40.7206 40.7404 40.411C40.7404 40.1015 40.9845 39.8564 41.2927 39.8564H46.4821C46.7903 39.8564 47.0344 40.1015 47.0344 40.411C47.0344 40.7206 46.7903 40.9656 46.4821 40.9656Z" fill="#009FDA" stroke="#009FDA" stroke-width="0.5"/>
<path fill-rule="evenodd" clip-rule="evenodd" d="M46.4821 44.6932H41.2927C40.9845 44.6932 40.7404 44.4481 40.7404 44.1386C40.7404 43.829 40.9845 43.584 41.2927 43.584H46.4821C46.7903 43.584 47.0344 43.829 47.0344 44.1386C47.0344 44.4481 46.7903 44.6932 46.4821 44.6932Z" fill="#009FDA" stroke="#009FDA" stroke-width="0.5"/>
<path fill-rule="evenodd" clip-rule="evenodd" d="M46.4821 48.4207H41.2927C40.9845 48.4207 40.7404 48.1756 40.7404 47.8661C40.7404 47.5566 40.9845 47.3115 41.2927 47.3115H46.4821C46.7903 47.3115 47.0344 47.5566 47.0344 47.8661C47.0344 48.1756 46.7903 48.4207 46.4821 48.4207Z" fill="#009FDA" stroke="#009FDA" stroke-width="0.5"/>
<path fill-rule="evenodd" clip-rule="evenodd" d="M46.4821 52.1609H41.2927C40.9845 52.1609 40.7404 51.9159 40.7404 51.6063C40.7404 51.2968 40.9845 51.0518 41.2927 51.0518H46.4821C46.7903 51.0518 47.0344 51.2968 47.0344 51.6063C47.0344 51.9159 46.7903 52.1609 46.4821 52.1609Z" fill="#009FDA" stroke="#009FDA" stroke-width="0.5"/>
<path fill-rule="evenodd" clip-rule="evenodd" d="M52.0311 25.8761C51.7228 25.8761 51.4787 25.631 51.4787 25.3215V22.1229C51.4787 21.8134 51.7228 21.5684 52.0311 21.5684C52.3393 21.5684 52.5834 21.8134 52.5834 22.1229V25.3215C52.5834 25.6181 52.3393 25.8761 52.0311 25.8761Z" fill="#009FDA" stroke="#009FDA" stroke-width="0.5"/>
<path fill-rule="evenodd" clip-rule="evenodd" d="M52.0568 22.7291C50.3227 22.7291 48.9098 21.3104 48.9098 19.5692C48.9098 19.2597 49.1538 19.0146 49.4621 19.0146C49.7704 19.0146 50.0144 19.2597 50.0144 19.5692C50.0144 20.6913 50.9264 21.607 52.0439 21.607C53.1614 21.607 54.0734 20.6913 54.0734 19.5692C54.0734 19.2597 54.3175 19.0146 54.6257 19.0146C54.934 19.0146 55.1781 19.2597 55.1781 19.5692C55.2038 21.3104 53.7908 22.7291 52.0568 22.7291Z" fill="#009FDA" stroke="#009FDA" stroke-width="0.5"/>
<path fill-rule="evenodd" clip-rule="evenodd" d="M22.552 20.124C22.2437 20.124 21.9997 19.8661 21.9997 19.5565C21.9997 19.247 22.2437 19.002 22.552 19.002H49.4492C49.7575 19.002 50.0016 19.247 50.0016 19.5565C50.0016 19.8661 49.7575 20.1111 49.4492 20.1111H22.552V20.124Z" fill="#009FDA" stroke="#009FDA" stroke-width="0.5"/>
<path fill-rule="evenodd" clip-rule="evenodd" d="M22.4303 60.3625C22.19 60.3625 21.9997 60.2036 21.9997 60.0028V19.3617C21.9997 19.1609 22.19 19.002 22.4303 19.002C22.6707 19.002 22.861 19.1609 22.861 19.3617V59.9944C22.871 60.1952 22.6707 60.3625 22.4303 60.3625Z" fill="#009FDA" stroke="#009FDA" stroke-width="0.5"/>
<path fill-rule="evenodd" clip-rule="evenodd" d="M22.5519 43.8292C22.4363 43.8292 22.3207 43.7905 22.218 43.7131C21.9739 43.5196 21.9225 43.1714 22.1152 42.9263L40.0981 19.2211C40.2779 18.9761 40.6376 18.9245 40.8816 19.1179C41.1257 19.3114 41.177 19.6596 40.9844 19.9047L23.0015 43.6099C22.8859 43.7518 22.7189 43.8292 22.5519 43.8292Z" fill="#009FDA" stroke="#009FDA" stroke-width="0.5"/>
<path fill-rule="evenodd" clip-rule="evenodd" d="M52.0311 69.9208C51.7228 69.9208 51.4787 69.6757 51.4787 69.3662V63.872C51.4787 63.5624 51.7228 63.3174 52.0311 63.3174C52.3393 63.3174 52.5834 63.5624 52.5834 63.872V69.3662C52.5834 69.6629 52.3393 69.9208 52.0311 69.9208Z" fill="#009FDA" stroke="#009FDA" stroke-width="0.5"/>
</svg>
