<svg width="22" height="23" viewBox="0 0 22 23" fill="none" xmlns="http://www.w3.org/2000/svg">
<g clip-path="url(#clip0_79_812)">
<path d="M10.8807 22.1637C4.96181 22.1637 0.193848 17.3957 0.193848 11.4769C0.193848 5.55801 4.96181 0.790039 10.8807 0.790039C16.7995 0.790039 21.5675 5.55801 21.5675 11.4769C21.5675 17.3957 16.7995 22.1637 10.8807 22.1637ZM10.8807 2.43417C5.86608 2.43417 1.83797 6.46227 1.83797 11.4769C1.83797 16.4914 5.86608 20.5196 10.8807 20.5196C15.8953 20.5196 19.9234 16.4914 19.9234 11.4769C19.9234 6.46227 15.8953 2.43417 10.8807 2.43417Z" fill="#009FDA"/>
<path d="M15.8128 12.2984H5.94804C5.4548 12.2984 5.12598 11.9696 5.12598 11.4764C5.12598 10.9831 5.4548 10.6543 5.94804 10.6543H15.8128C16.306 10.6543 16.6349 10.9831 16.6349 11.4764C16.6349 11.9696 16.306 12.2984 15.8128 12.2984Z" fill="#009FDA"/>
</g>
<defs>
<clipPath id="clip0_79_812">
<rect width="21.3736" height="21.3736" fill="white" transform="translate(0.193848 0.790039)"/>
</clipPath>
</defs>
</svg>
