<svg width="239" height="71" viewBox="0 0 239 71" fill="none" xmlns="http://www.w3.org/2000/svg">
<path d="M68.9546 60.5139C68.8775 60.3692 68.7233 60.2969 68.5691 60.2969H67.3354C67.1812 60.2969 67.027 60.3692 66.9499 60.5139L63.4032 68.835C63.326 68.9797 63.4032 69.052 63.4803 69.1967C63.5574 69.2691 63.6345 69.3415 63.7887 69.3415H64.9452C65.0994 69.3415 65.2536 69.2691 65.3307 69.1244L66.1789 67.026H69.4172L70.2654 69.1244C70.3425 69.2691 70.4967 69.3415 70.6509 69.3415H72.0387C72.1929 69.3415 72.27 69.2691 72.3471 69.1967C72.4242 69.1244 72.4242 68.9797 72.4242 68.835L68.9546 60.5139ZM68.8004 65.4342H66.8728L67.798 63.1911L68.8004 65.4342Z" fill="white"/>
<path d="M79.5584 60.367H78.4104C78.1644 60.367 78.0004 60.5072 78.0004 60.7176V65.8358C78.0004 66.6071 77.9184 66.9576 77.7544 67.168C77.5904 67.3783 77.4264 67.5185 77.2624 67.6587C77.0164 67.7289 76.6884 67.799 76.3604 67.799C75.7863 67.799 75.3763 67.6587 75.0483 67.3783C74.7203 67.0978 74.5563 66.5369 74.5563 65.7657V60.6474C74.5563 60.4371 74.3923 60.2969 74.1463 60.2969H72.8343C72.5883 60.2969 72.4243 60.4371 72.4243 60.6474V65.7657C72.4243 66.6772 72.5883 67.3082 72.8343 67.799C73.1623 68.2898 73.5723 68.6403 74.1463 68.9208C74.7203 69.2012 75.4583 69.3415 76.2784 69.3415C77.0984 69.3415 77.8364 69.2012 78.3284 68.9208C78.8204 68.6403 79.2304 68.2898 79.5584 67.8691C79.8864 67.4484 79.9684 66.7473 79.9684 65.7657V60.6474C79.9684 60.5072 79.8044 60.367 79.5584 60.367Z" fill="white"/>
<path d="M84.403 64.0655L83.9614 63.7229C83.7406 63.5858 83.5197 63.3803 83.4093 63.3117C83.2989 63.2432 83.1885 63.1062 83.1333 62.9691C83.0781 62.8321 83.0229 62.7636 83.0229 62.6265C83.0229 62.4895 83.0781 62.2839 83.1885 62.1469C83.2989 62.0099 83.5197 61.8728 83.7958 61.8728C83.9614 61.8728 84.127 61.8728 84.2926 61.9413C84.403 61.9413 84.679 62.0784 85.231 62.3525C85.3414 62.421 85.3966 62.3525 85.507 62.2839C85.5622 62.2154 85.6174 62.1469 85.6174 62.0099V60.9821C85.6174 60.845 85.5622 60.708 85.3966 60.6395C84.8446 60.4339 84.2926 60.2969 83.7406 60.2969C83.2989 60.2969 82.9125 60.4339 82.5813 60.6395C82.2501 60.845 82.0293 61.1191 81.8085 61.5302C81.6429 61.9413 81.5325 62.3525 81.5325 62.7636C81.5325 63.2432 81.6429 63.7229 81.8637 64.134C82.0845 64.5451 82.5261 64.8877 83.1333 65.3673L83.5749 65.7099C84.127 66.0525 84.2926 66.3266 84.2926 66.3951C84.403 66.5322 84.403 66.7377 84.403 66.9433C84.403 67.2174 84.3478 67.4229 84.1822 67.56C84.0166 67.7655 83.7958 67.834 83.5197 67.834C83.3541 67.834 83.1333 67.834 82.9125 67.7655C82.6917 67.697 82.3605 67.56 81.8637 67.2859C81.7533 67.2174 81.6981 67.2174 81.5877 67.2859C81.5325 67.3544 81.4773 67.4229 81.4773 67.56V68.6563C81.4773 68.7933 81.5325 68.9303 81.6981 68.9989C82.1397 69.1359 82.4709 69.2729 82.7469 69.2729C82.9677 69.3415 83.1885 69.3415 83.4645 69.3415C84.2926 69.3415 84.8998 69.0674 85.3414 68.5877C85.783 68.0396 86.0038 67.4229 86.0038 66.7377C86.0038 66.1896 85.8934 65.7784 85.6726 65.3673C85.4518 64.9562 85.0654 64.5451 84.403 64.0655Z" fill="white"/>
<path d="M93.2686 60.2969H87.792C87.6244 60.2969 87.5126 60.4416 87.5126 60.6587V61.5269C87.5126 61.744 87.6244 61.8887 87.792 61.8887H89.8038V68.9797C89.8038 69.1967 89.9156 69.3415 90.0833 69.3415H90.9774C91.145 69.3415 91.2568 69.1967 91.2568 68.9797V61.8887H93.2686C93.4362 61.8887 93.548 61.744 93.548 61.5269V60.6587C93.548 60.4416 93.4362 60.2969 93.2686 60.2969Z" fill="white"/>
<path d="M99.8851 65.2171C100.207 65.0724 100.448 64.9277 100.609 64.7106C100.931 64.4212 101.173 64.1318 101.253 63.77C101.414 63.4082 101.495 63.0464 101.495 62.6846C101.495 62.0334 101.253 61.5269 100.77 61.0204C100.287 60.5139 99.4828 60.2969 98.2757 60.2969H95.4592C95.2178 60.2969 95.0568 60.4416 95.0568 60.6587V68.9797C95.0568 69.1967 95.2178 69.3415 95.4592 69.3415H96.7467C96.9881 69.3415 97.1491 69.1967 97.1491 68.9797V65.796H97.7929L100.287 69.1967C100.368 69.2691 100.448 69.3415 100.609 69.3415H102.219C102.38 69.3415 102.541 69.2691 102.541 69.1244C102.621 68.9797 102.621 68.835 102.541 68.7626L99.8851 65.2171ZM97.31 61.8887H97.7124C98.3561 61.8887 98.678 61.9611 98.839 62.0334C98.9999 62.1058 99.1609 62.1781 99.2413 62.3229C99.3218 62.4676 99.4023 62.6123 99.4023 62.8294C99.4023 63.1911 99.2413 63.4806 98.9999 63.77C98.7585 64.0594 98.1952 64.2041 97.31 64.2041V61.8887Z" fill="white"/>
<path d="M108.698 60.5122C108.634 60.3687 108.506 60.2969 108.377 60.2969H107.349C107.221 60.2969 107.092 60.3687 107.028 60.5122L104.136 68.839C104.072 68.9826 104.136 69.0543 104.201 69.1979C104.265 69.2697 104.329 69.3415 104.458 69.3415H105.422C105.55 69.3415 105.679 69.2697 105.743 69.1261L106.45 67.0444H109.148L109.855 69.1261C109.919 69.2697 110.048 69.3415 110.176 69.3415H111.333C111.461 69.3415 111.526 69.2697 111.59 69.1979C111.654 69.1261 111.654 68.9826 111.654 68.839L108.698 60.5122ZM108.57 65.3934H106.964L107.735 63.1682L108.57 65.3934Z" fill="white"/>
<path d="M118.734 67.7496H115.175V60.6587C115.175 60.4416 115.02 60.2969 114.788 60.2969H113.55C113.318 60.2969 113.163 60.4416 113.163 60.6587V68.9797C113.163 69.1967 113.318 69.3415 113.55 69.3415H118.811C119.044 69.3415 119.198 69.1967 119.198 68.9797V68.1114C119.121 67.8943 118.966 67.7496 118.734 67.7496Z" fill="white"/>
<path d="M121.926 60.2969H120.997C120.823 60.2969 120.707 60.4416 120.707 60.6587V68.9797C120.707 69.1967 120.823 69.3415 120.997 69.3415H121.926C122.1 69.3415 122.216 69.1967 122.216 68.9797V60.6587C122.216 60.4416 122.1 60.2969 121.926 60.2969Z" fill="white"/>
<path d="M132.778 68.835L129.308 60.5139C129.231 60.3692 129.077 60.2969 128.923 60.2969H127.689C127.535 60.2969 127.381 60.3692 127.303 60.5139L123.757 68.835C123.68 68.9797 123.757 69.052 123.834 69.1967C123.911 69.2691 123.988 69.3415 124.142 69.3415H125.299C125.453 69.3415 125.607 69.2691 125.684 69.1244L126.532 67.026H129.771L130.619 69.1244C130.696 69.2691 130.85 69.3415 131.004 69.3415H132.392C132.546 69.3415 132.624 69.2691 132.701 69.1967C132.778 69.052 132.778 68.9073 132.778 68.835ZM129.077 65.3618H127.149L128.152 63.1188L129.077 65.3618Z" fill="white"/>
<path d="M53.7147 29.6962C53.7147 29.8469 53.5638 29.9976 53.4129 29.9976H13.1269C12.976 29.9976 12.8251 29.8469 12.8251 29.6962V27.1335C12.8251 26.9828 12.976 26.832 13.1269 26.832H53.4129C53.5638 26.832 53.7147 26.9828 53.7147 27.1335V29.6962Z" fill="white"/>
<path d="M21.1237 36.329C21.1237 36.4798 20.9729 36.6305 20.822 36.6305H13.1269C12.976 36.6305 12.8251 36.4798 12.8251 36.329V31.656C12.8251 31.5052 12.976 31.3545 13.1269 31.3545H20.822C20.9729 31.3545 21.1237 31.5052 21.1237 31.656V36.329Z" fill="white"/>
<path d="M21.1237 69.7939C21.1237 69.9446 20.9729 70.0953 20.822 70.0953H13.1269C12.976 70.0953 12.8251 69.9446 12.8251 69.7939V65.1208C12.8251 64.9701 12.976 64.8193 13.1269 64.8193H20.822C20.9729 64.8193 21.1237 64.9701 21.1237 65.1208V69.7939Z" fill="white"/>
<path d="M45.416 36.329C45.416 36.4798 45.5669 36.6305 45.7178 36.6305H53.4129C53.5638 36.6305 53.7147 36.4798 53.7147 36.329V31.656C53.7147 31.5052 53.5638 31.3545 53.4129 31.3545H45.7178C45.5669 31.3545 45.416 31.5052 45.416 31.656V36.329Z" fill="white"/>
<path d="M45.416 69.7939C45.416 69.9446 45.5669 70.0953 45.7178 70.0953H53.4129C53.5638 70.0953 53.7147 69.9446 53.7147 69.7939V65.1208C53.7147 64.9701 53.5638 64.8193 53.4129 64.8193H45.7178C45.5669 64.8193 45.416 64.9701 45.416 65.1208V69.7939Z" fill="white"/>
<path d="M50.5461 38.2888C50.5461 38.138 50.3952 37.9873 50.0935 37.9873H45.7178C45.5669 37.9873 45.2652 38.138 45.2652 38.2888V63.0107C45.2652 63.1614 45.416 63.4629 45.7178 63.4629H50.0935C50.2443 63.4629 50.5461 63.3121 50.5461 63.0107V38.2888Z" fill="white"/>
<path d="M21.1237 38.2888C21.1237 38.138 20.9729 37.9873 20.6711 37.9873H16.2955C16.1446 37.9873 15.8428 38.138 15.8428 38.2888V63.0107C15.8428 63.1614 15.9937 63.4629 16.2955 63.4629H20.6711C20.822 63.4629 21.1237 63.3121 21.1237 63.0107V38.2888Z" fill="white"/>
<path d="M39.5316 34.8217L24.2923 31.3546C23.8397 31.2039 23.5379 31.5054 23.5379 31.9576V69.6434C23.5379 70.0956 23.8397 70.2464 24.2923 70.2464L39.5316 66.1763C39.9842 66.0256 40.286 65.5733 40.286 65.2718V35.7262C40.286 35.274 39.9842 34.8217 39.5316 34.8217ZM27.0082 53.2124V66.0256C27.0082 66.6285 25.8012 67.6837 25.8012 67.6837V53.2124V52.1572H27.0082C28.2153 52.1572 29.875 52.0064 30.3277 52.0064C31.0821 52.0064 31.6856 52.9109 31.6856 52.9109L27.0082 53.2124ZM27.0082 44.0171V49.2931C27.0082 49.896 25.8012 50.6498 25.8012 50.6498V44.0171V42.9619L27.0082 43.1126C28.2153 43.2633 29.875 43.4141 30.3277 43.4141C31.0821 43.4141 31.6856 44.4693 31.6856 44.4693L27.0082 44.0171ZM27.0082 34.8217V40.0977C27.0082 40.7007 25.8012 41.3037 25.8012 41.3037V34.671V33.6158L27.0082 33.9173C28.2153 34.2188 29.875 34.5202 30.3277 34.5202C31.0821 34.671 31.6856 35.7262 31.6856 35.7262L27.0082 34.8217ZM35.156 52.9109V64.5181C35.156 65.1211 34.0998 65.8748 34.0998 65.8748V52.9109V52.0064H35.156C36.2121 52.0064 37.5701 51.8557 37.8719 51.8557C38.4754 51.8557 39.0789 52.6094 39.0789 52.6094L35.156 52.9109ZM35.156 44.62V49.4438C35.156 50.0468 34.0998 50.6498 34.0998 50.6498V44.62V43.7156L35.156 43.8663C36.2121 44.0171 37.5701 44.0171 37.8719 44.0171C38.4754 44.0171 39.0789 44.9215 39.0789 44.9215L35.156 44.62ZM35.156 36.3292V41.1529C35.156 41.7559 34.0998 42.2081 34.0998 42.2081V36.1784V35.274L35.156 35.4247C36.2121 35.5755 37.5701 35.8769 37.8719 36.0277C38.4754 36.1784 39.0789 37.0829 39.0789 37.0829L35.156 36.3292Z" fill="white"/>
<path d="M27.7626 25.6261H38.928C39.0789 25.6261 39.2298 25.4753 39.2298 25.3246C39.0789 22.3097 36.5139 19.7471 33.3453 19.7471C30.1768 19.7471 27.6118 22.159 27.4609 25.3246C27.4609 25.4753 27.6118 25.6261 27.7626 25.6261Z" fill="white"/>
<path d="M32.44 10.5521C32.44 10.5521 32.2891 10.4014 32.1383 10.4014C30.1768 10.5521 28.0644 11.0043 26.2538 12.0595C26.1029 12.0595 26.1029 12.2103 26.1029 12.2103C26.1029 12.361 26.1029 12.361 26.1029 12.5118L29.7241 18.6922C29.7241 18.843 29.875 18.843 30.0259 18.843H30.1768C30.7803 18.5415 31.5347 18.3908 32.1383 18.24C32.2891 18.24 32.44 18.0893 32.44 17.9385V10.8536C32.5909 10.7029 32.5909 10.5521 32.44 10.5521Z" fill="white"/>
<path d="M26.2538 22.4609L19.9167 19.1445C19.7658 19.1445 19.7658 19.1445 19.6149 19.1445C19.464 19.1445 19.464 19.2953 19.464 19.2953C18.5587 21.1042 18.106 23.2146 18.106 25.325C18.106 25.4757 18.106 25.4757 18.2569 25.6265C18.2569 25.6265 18.4078 25.7772 18.5587 25.7772H25.8011C25.952 25.7772 26.1029 25.6265 26.1029 25.4757C26.1029 24.722 26.2538 23.8176 26.5555 23.2146C26.4047 22.7624 26.4047 22.6116 26.2538 22.4609Z" fill="white"/>
<path d="M28.6679 19.2951L24.8958 13.1146C24.8958 12.9639 24.7449 12.9639 24.7449 12.9639C24.594 12.9639 24.594 12.9639 24.4432 12.9639C22.7834 14.1698 21.2746 15.6772 20.2184 17.3354C20.2184 17.4862 20.2184 17.4862 20.2184 17.6369C20.2184 17.7876 20.3693 17.7876 20.3693 17.7876L26.7064 21.104H26.8573C27.0082 21.104 27.0082 21.104 27.1591 20.9533C27.6117 20.3503 28.0644 19.898 28.517 19.4458C28.8188 19.5966 28.8188 19.4458 28.6679 19.2951Z" fill="white"/>
<path d="M46.1704 17.4858C45.1142 15.6769 43.6054 14.1695 41.9457 13.1143C41.7948 13.1143 41.7948 13.1143 41.6439 13.1143C41.493 13.1143 41.493 13.265 41.493 13.265L37.8718 19.2947C37.7209 19.4455 37.8718 19.5962 38.0227 19.747C38.6262 20.1992 39.0789 20.6514 39.3807 21.2544C39.3807 21.4051 39.5315 21.4051 39.6824 21.4051H39.8333L46.0196 18.0888C46.1704 18.0888 46.1704 17.938 46.1704 17.938C46.3213 17.7873 46.3213 17.6366 46.1704 17.4858Z" fill="white"/>
<path d="M40.4369 12.3607C40.4369 12.2099 40.286 12.2099 40.286 12.2099C38.4754 11.1547 36.5139 10.7025 34.4015 10.5518C34.2506 10.5518 34.2506 10.5518 34.0997 10.7025C34.0997 10.7025 33.9489 10.8532 33.9489 11.004V18.0889C33.9489 18.2397 34.0997 18.3904 34.2506 18.3904C34.8542 18.3904 35.6086 18.6919 36.2121 18.9934H36.363C36.5139 18.9934 36.6648 18.9934 36.6648 18.8426L40.286 12.8129C40.5877 12.5114 40.5877 12.3607 40.4369 12.3607Z" fill="white"/>
<path d="M47.0758 19.2953C47.0758 19.1445 46.9249 19.1445 46.9249 19.1445C46.774 19.1445 46.774 19.1445 46.6231 19.1445L40.4369 22.4609C40.286 22.6116 40.1351 22.7624 40.286 22.9131C40.5877 23.6668 40.7386 24.4205 40.7386 25.1743C40.7386 25.325 40.8895 25.4757 41.0404 25.4757H48.1319C48.2828 25.4757 48.2828 25.4757 48.4337 25.325C48.4337 25.325 48.5846 25.1743 48.5846 25.0235C48.4337 23.2146 47.9811 21.2549 47.0758 19.2953Z" fill="white"/>
<path d="M81.035 53.4837L86.6541 38.8194V54.8585C86.6541 55.3167 87.1224 55.775 87.5907 55.775H91.1026C91.5709 55.775 92.0391 55.3167 92.0391 54.8585V28.0503C92.0391 27.5921 91.5709 27.1338 91.1026 27.1338H86.42C85.9517 27.1338 85.7176 27.3629 85.4835 27.8212L78.6937 45.9224L72.1381 27.8212C71.9039 27.3629 71.6698 27.1338 71.2015 27.1338H65.8166C65.3483 27.1338 64.88 27.5921 64.88 28.0503V54.6293C64.88 55.0876 65.3483 55.5459 65.8166 55.5459H69.0944C69.5626 55.5459 70.0309 55.0876 70.0309 54.6293V38.5903L75.4159 53.2546C75.65 53.7128 75.8842 53.9419 76.3524 53.9419H80.0985C80.5667 53.9419 80.8009 53.7128 81.035 53.4837Z" fill="white"/>
<path d="M126.199 55.775H130.303C130.786 55.775 131.269 55.3167 131.269 54.8585V28.0503C131.269 27.5921 130.786 27.1338 130.303 27.1338H126.199C125.716 27.1338 125.234 27.5921 125.234 28.0503V54.6293C125.234 55.3167 125.716 55.775 126.199 55.775Z" fill="white"/>
<path d="M117.723 43.6382C117.246 42.9505 115.336 40.8874 110.801 38.8244C108.176 37.449 106.266 36.3029 106.028 34.6983C106.028 34.2398 106.266 31.9476 109.847 31.9476C111.995 31.9476 113.666 32.6352 116.052 33.5522C117.007 33.7814 117.485 33.0937 117.485 32.6352V29.1968C117.485 28.7384 117.246 28.2799 116.769 28.2799C115.336 27.8215 112.472 27.1338 109.608 27.1338C103.88 27.1338 101.97 30.343 101.254 31.0307C100.061 32.8645 99.106 36.3029 101.493 39.7413C104.357 43.4089 110.563 45.0135 112.234 47.3058C112.711 47.9935 113.427 50.0565 111.756 51.4319C110.801 52.3488 108.653 52.578 106.028 52.1196C105.073 51.8904 103.402 51.2027 101.254 50.2858C100.777 50.0565 99.5833 50.2858 99.5833 51.2027V55.0995C99.5833 55.558 99.822 56.0164 100.299 56.0164C107.221 58.0795 112.711 57.621 116.052 54.6411C119.633 51.6611 120.11 47.0766 117.723 43.6382Z" fill="white"/>
</svg>
