<?xml version="1.0" standalone="no"?>
<svg xmlns:xlink="http://www.w3.org/1999/xlink" id="wave" style="transform:rotate(0deg); transition: 0.3s" viewBox="0 0 1440 490" version="1.1" xmlns="http://www.w3.org/2000/svg"><defs><linearGradient id="sw-gradient-0" x1="0" x2="0" y1="1" y2="0"><stop stop-color="rgba(229.716, 247.869, 255, 1)" offset="0%"/><stop stop-color="rgba(129, 223, 255, 0.7686274509803922)" offset="100%"/></linearGradient></defs><path style="transform:translate(0, 0px); opacity:1" fill="url(#sw-gradient-0)" d="M0,147L80,196C160,245,320,343,480,343C640,343,800,245,960,196C1120,147,1280,147,1440,171.5C1600,196,1760,245,1920,236.8C2080,229,2240,163,2400,138.8C2560,114,2720,131,2880,171.5C3040,212,3200,278,3360,269.5C3520,261,3680,180,3840,171.5C4000,163,4160,229,4320,228.7C4480,229,4640,163,4800,163.3C4960,163,5120,229,5280,220.5C5440,212,5600,131,5760,147C5920,163,6080,278,6240,269.5C6400,261,6560,131,6720,114.3C6880,98,7040,196,7200,212.3C7360,229,7520,163,7680,171.5C7840,180,8000,261,8160,318.5C8320,376,8480,408,8640,359.3C8800,310,8960,180,9120,130.7C9280,82,9440,114,9600,138.8C9760,163,9920,180,10080,196C10240,212,10400,229,10560,228.7C10720,229,10880,212,11040,187.8C11200,163,11360,131,11440,114.3L11520,98L11520,490L11440,490C11360,490,11200,490,11040,490C10880,490,10720,490,10560,490C10400,490,10240,490,10080,490C9920,490,9760,490,9600,490C9440,490,9280,490,9120,490C8960,490,8800,490,8640,490C8480,490,8320,490,8160,490C8000,490,7840,490,7680,490C7520,490,7360,490,7200,490C7040,490,6880,490,6720,490C6560,490,6400,490,6240,490C6080,490,5920,490,5760,490C5600,490,5440,490,5280,490C5120,490,4960,490,4800,490C4640,490,4480,490,4320,490C4160,490,4000,490,3840,490C3680,490,3520,490,3360,490C3200,490,3040,490,2880,490C2720,490,2560,490,2400,490C2240,490,2080,490,1920,490C1760,490,1600,490,1440,490C1280,490,1120,490,960,490C800,490,640,490,480,490C320,490,160,490,80,490L0,490Z"/></svg>