<svg width="35" height="35" viewBox="0 0 35 35" fill="none" xmlns="http://www.w3.org/2000/svg">
<g clip-path="url(#clip0_77_2)">
<path d="M2.66082 35C2.19342 34.8086 1.67901 34.6865 1.26886 34.4104C0.439144 33.8525 0.0717121 33.0014 0.0717121 32.011C0.0665851 24.518 0.0691486 17.025 0.0700031 9.53191C0.0700031 9.07732 0.303279 8.79961 0.660457 8.80645C1.02618 8.81328 1.2304 9.08928 1.2304 9.58403C1.23126 16.9634 1.2304 24.3428 1.23126 31.7222C1.23126 31.847 1.22784 31.9726 1.23382 32.0973C1.27826 33.0886 1.98748 33.7944 2.9804 33.8354C3.08294 33.8396 3.18463 33.8371 3.28717 33.8371C7.6878 33.8371 12.0876 33.8371 16.4882 33.8371C16.6232 33.8371 16.7582 33.8371 16.9454 33.8371C16.9454 33.4004 16.9565 32.9852 16.9343 32.5724C16.9308 32.5015 16.7924 32.4118 16.6993 32.3759C15.2654 31.8282 13.788 31.5018 12.2448 31.5129C9.23272 31.5351 6.2608 31.876 3.33416 32.6015C2.67877 32.7638 2.39337 32.5365 2.39337 31.8512C2.39251 23.4721 2.39251 15.0921 2.39251 6.71209C2.39251 6.14043 2.50701 5.99602 3.0556 5.85589C6.07794 5.08086 9.15753 4.74676 12.2687 4.73223C14.105 4.72368 15.873 5.12017 17.5674 5.84478C17.9964 6.02764 18.1229 6.30962 18.122 6.74456C18.1152 13.4985 18.1169 20.2524 18.1169 27.0063C18.1169 27.5617 18.1169 28.118 18.1169 28.7383C18.2792 28.652 18.3946 28.5931 18.5082 28.5307C21.493 26.8815 24.535 25.3563 27.753 24.207C27.9606 24.1326 28.0213 24.0232 28.0213 23.8096C28.0162 16.4755 28.017 9.14226 28.0162 1.80816C28.0162 1.72954 28.0076 1.65178 27.9999 1.52703C27.8658 1.57573 27.7521 1.61248 27.6428 1.65862C24.975 2.77031 22.4269 4.11699 19.9429 5.58928C19.8062 5.67046 19.6712 5.75676 19.5259 5.81914C19.2294 5.94732 18.9321 5.85247 18.7842 5.59697C18.633 5.33721 18.6894 5.03728 18.9517 4.8416C19.1423 4.69976 19.3525 4.58355 19.5584 4.46306C22.3355 2.83867 25.1793 1.34844 28.1871 0.188894C28.2717 0.156423 28.3545 0.114553 28.4417 0.0923362C28.7647 0.010305 29.0706 0.185476 29.1467 0.512746C29.1817 0.664846 29.1808 0.828054 29.1808 0.986135C29.1826 8.71758 29.1826 16.4499 29.1817 24.1813C29.1817 24.8572 29.1202 24.9538 28.4913 25.176C24.8802 26.4517 21.4827 28.1778 18.1639 30.0688C17.8827 30.2294 17.6076 30.4644 17.2521 30.2619C16.8984 30.0602 16.9488 29.7082 16.9488 29.3809C16.9479 22.0126 16.9462 14.6452 16.9556 7.27691C16.9556 6.95733 16.8693 6.80095 16.56 6.69072C14.98 6.12847 13.3633 5.85503 11.68 5.8969C9.08062 5.96099 6.51715 6.2763 3.97674 6.82061C3.66143 6.88811 3.54437 6.99321 3.54522 7.34185C3.55719 15.1878 3.55462 23.0329 3.55462 30.8788C3.55462 31.0138 3.55462 31.1489 3.55462 31.3292C3.87249 31.2668 4.15704 31.2129 4.44073 31.1548C7.12127 30.6071 9.82745 30.3191 12.5661 30.3567C14.1999 30.379 15.7576 30.7592 17.2769 31.336C17.4478 31.4009 17.6802 31.4103 17.8511 31.3514C20.2813 30.5105 22.7713 30.2226 25.3365 30.3978C27.4044 30.5387 29.4457 30.8224 31.5102 31.3129C31.5102 31.1694 31.5102 31.0514 31.5102 30.9335C31.5102 23.0654 31.5085 15.1972 31.5162 7.32903C31.5162 7.03936 31.4572 6.88555 31.1428 6.87529C30.9881 6.87017 30.83 6.81804 30.6813 6.76507C30.3985 6.66338 30.2712 6.44634 30.3028 6.15325C30.3327 5.87383 30.5814 5.63543 30.8685 5.67217C31.3504 5.73369 31.8349 5.82 32.2989 5.96013C32.451 6.00628 32.5578 6.24382 32.6544 6.41216C32.6996 6.49077 32.6732 6.61211 32.6732 6.71465C32.674 15.0835 32.674 23.4516 32.674 31.8205C32.674 31.8888 32.6774 31.9572 32.6723 32.0247C32.6373 32.5075 32.3373 32.7322 31.8605 32.6237C31.0086 32.4306 30.1635 32.2024 29.3047 32.0427C27.1309 31.6376 24.934 31.4513 22.7234 31.5342C21.2161 31.5906 19.7601 31.9589 18.3322 32.4306C18.2468 32.4588 18.1331 32.5682 18.1288 32.6451C18.1075 33.0279 18.1194 33.4133 18.1194 33.8379C18.2724 33.8379 18.3937 33.8379 18.5159 33.8379C22.9618 33.8379 27.4078 33.8388 31.8537 33.8379C33.132 33.8379 33.837 33.133 33.837 31.8547C33.8378 24.4864 33.837 17.1189 33.837 9.75066C33.837 9.64812 33.837 9.54558 33.8378 9.4439C33.8404 9.13628 33.9754 8.91582 34.2787 8.83208C34.5565 8.75518 34.7632 8.87822 34.9196 9.10466C34.9444 9.14141 34.9726 9.17559 34.9991 9.21148C34.9991 16.9438 34.9991 24.6761 34.9991 32.4084C34.8017 32.8835 34.6658 33.397 34.3932 33.8243C33.9429 34.5309 33.2089 34.8437 32.4066 35.0009C22.4919 35 12.5764 35 2.66082 35Z" fill="#009FDA"/>
<path d="M32.4075 34.9998C33.2098 34.8425 33.9447 34.5298 34.3942 33.8231C34.6659 33.3959 34.8026 32.8823 35 32.4072C35 33.2711 35 34.1359 35 34.9998C34.1361 34.9998 33.2714 34.9998 32.4075 34.9998Z" fill="white"/>
<path d="M10.8794 20.9785C11.7254 21.0665 12.7961 21.1768 13.8659 21.2904C13.9667 21.3015 14.0675 21.3271 14.1649 21.3571C14.5008 21.4604 14.6734 21.7476 14.5956 22.062C14.523 22.3534 14.2427 22.5251 13.9095 22.4841C13.2233 22.3995 12.5388 22.2833 11.8493 22.238C10.1941 22.1287 8.56204 22.3303 6.94534 22.6781C6.83426 22.702 6.72488 22.7319 6.61294 22.7516C6.28226 22.8097 6.00198 22.6448 5.92337 22.3491C5.83877 22.0304 5.99344 21.7228 6.33438 21.6365C6.8616 21.5032 7.3948 21.3767 7.93313 21.3032C8.83291 21.1802 9.73782 21.1016 10.8794 20.9785Z" fill="#009FDA"/>
<path d="M11.4552 24.4971C12.1235 24.5817 13.1147 24.6945 14.1008 24.8389C14.4784 24.8944 14.663 25.1918 14.6023 25.5242C14.5434 25.842 14.2366 26.0454 13.8752 25.9719C11.4664 25.478 9.08403 25.6985 6.71282 26.2283C6.41631 26.2949 6.1668 26.2573 5.99248 25.9941C5.76177 25.6472 5.95061 25.202 6.40264 25.1115C7.30327 24.932 8.20818 24.7628 9.11821 24.6432C9.78044 24.556 10.4538 24.5552 11.4552 24.4971Z" fill="#009FDA"/>
<path d="M11.199 10.4971C12.0851 10.6064 13.0652 10.715 14.041 10.8525C14.464 10.9124 14.67 11.2072 14.6007 11.5592C14.5358 11.8873 14.2299 12.0728 13.8334 11.9924C11.4596 11.5105 9.11148 11.7292 6.77188 12.236C6.62064 12.2684 6.44803 12.2949 6.30447 12.2556C6.03616 12.1821 5.89432 11.9711 5.90457 11.6899C5.91568 11.3712 6.1182 11.1935 6.41043 11.1302C6.97611 11.0081 7.54092 10.8679 8.11343 10.7979C9.10208 10.6765 10.0984 10.6013 11.199 10.4971Z" fill="#009FDA"/>
<path d="M13.9838 18.9594C13.3421 18.8902 12.7003 18.8064 12.0569 18.7543C10.3086 18.6107 8.59022 18.8363 6.88466 19.2012C6.81801 19.2157 6.75221 19.2328 6.68556 19.2448C6.2737 19.3174 5.99 19.1636 5.91823 18.8278C5.84389 18.4843 6.02418 18.1929 6.42921 18.1177C7.38795 17.9391 8.34755 17.758 9.31483 17.6435C10.8683 17.4597 12.4209 17.5085 13.959 17.8161C14.0368 17.8315 14.1145 17.8494 14.1897 17.875C14.4999 17.9827 14.6528 18.2296 14.6016 18.5304C14.5529 18.8184 14.3068 18.9995 13.9838 18.9594Z" fill="#009FDA"/>
<path d="M11.157 13.9902C12.0439 14.0962 13.0343 14.2081 14.0229 14.3372C14.3391 14.3782 14.5826 14.538 14.6057 14.8986C14.633 15.3292 14.2964 15.5582 13.7811 15.4805C13.277 15.4044 12.7728 15.3207 12.2661 15.2745C10.4264 15.1071 8.61741 15.3267 6.82298 15.724C6.75633 15.7385 6.69053 15.7565 6.62303 15.7642C6.24876 15.8103 5.98729 15.6505 5.91807 15.3361C5.84459 15.002 6.01548 14.7174 6.39232 14.6311C6.97764 14.4969 7.56639 14.3602 8.16197 14.285C9.11815 14.1637 10.0803 14.0928 11.157 13.9902Z" fill="#009FDA"/>
<path d="M25.6176 20.457C25.9748 20.4656 26.1611 20.616 26.2371 20.8826C26.3106 21.1398 26.2149 21.3517 25.9953 21.5021C25.9304 21.5465 25.856 21.579 25.7834 21.6106C24.1769 22.3232 22.5705 23.0359 20.964 23.7485C20.8914 23.781 20.8231 23.8229 20.7496 23.8528C20.3873 23.998 20.0685 23.9041 19.9301 23.6152C19.7797 23.3016 19.8925 22.9675 20.2608 22.8C21.9228 22.0447 23.5908 21.303 25.2587 20.5604C25.392 20.5023 25.5399 20.4792 25.6176 20.457Z" fill="#009FDA"/>
<path d="M20.3762 13.5028C20.2335 13.3815 20.0002 13.2781 19.9464 13.1149C19.8866 12.9337 19.9754 12.6945 20.0327 12.4894C20.0515 12.4219 20.1651 12.3672 20.2455 12.3313C21.9416 11.57 23.6395 10.8112 25.3382 10.055C25.4305 10.0139 25.5339 9.98404 25.6339 9.97805C25.9321 9.96011 26.1423 10.1045 26.2295 10.3839C26.3243 10.6864 26.203 10.9308 25.9236 11.0607C25.6262 11.1991 25.3041 11.2829 25.005 11.4179C23.6523 12.0323 22.3039 12.6577 20.953 13.2764C20.7906 13.3516 20.6189 13.408 20.3762 13.5028Z" fill="#009FDA"/>
<path d="M26.3107 17.6118C26.1774 17.7545 26.056 17.9835 25.8689 18.069C24.1787 18.8423 22.4766 19.5917 20.777 20.3445C20.395 20.5137 20.0712 20.4197 19.9302 20.1155C19.7823 19.7984 19.896 19.4746 20.2685 19.3063C21.9519 18.5449 23.6387 17.7904 25.3323 17.0504C25.7322 16.8752 26.0142 16.9632 26.1722 17.2392C26.2201 17.3264 26.2432 17.4281 26.3107 17.6118Z" fill="#009FDA"/>
<path d="M26.2594 7.19783C26.1714 7.28755 26.0441 7.50972 25.8544 7.59602C24.1736 8.36506 22.4834 9.11018 20.7941 9.86042C20.4121 10.0305 20.0883 9.94844 19.937 9.65364C19.779 9.34517 19.8875 8.99995 20.2515 8.83503C21.9554 8.06343 23.6626 7.29866 25.3785 6.55354C25.839 6.35444 26.268 6.6313 26.2594 7.19783Z" fill="#009FDA"/>
<path d="M26.2584 14.183C26.1798 14.2676 26.0636 14.4872 25.8842 14.5692C24.1829 15.346 22.4713 16.1013 20.7606 16.8584C20.3932 17.0208 20.0805 16.9293 19.9352 16.6371C19.7788 16.3243 19.8882 15.9885 20.2548 15.8228C21.9475 15.0546 23.6428 14.2915 25.3484 13.5507C25.8397 13.337 26.2695 13.6045 26.2584 14.183Z" fill="#009FDA"/>
</g>
<defs>
<clipPath id="clip0_77_2">
<rect width="35" height="35" fill="white"/>
</clipPath>
</defs>
</svg>
