<svg width="41" height="31" viewBox="0 0 41 31" fill="none" xmlns="http://www.w3.org/2000/svg">
<path d="M41 12.4233C40.9124 12.8102 40.8413 13.202 40.733 13.5831C40.3759 14.842 39.6915 15.9008 38.7682 16.8217C36.0049 19.5775 33.2531 22.3442 30.4898 25.0992C30.284 25.305 30.2112 25.4836 30.2567 25.7911C30.513 27.5335 28.9854 29.0098 27.1611 28.7966C26.9247 28.7693 26.7858 28.8379 26.5998 28.9701C26.1725 29.2743 25.7038 29.5207 25.25 29.786C25.1368 29.8521 25.0062 29.891 24.8979 29.9637C23.6853 30.7829 22.2329 30.6622 21.1741 29.6422C20.9732 29.4487 20.7938 29.2322 20.502 28.9148C20.2838 29.1834 20.1226 29.4297 19.9168 29.6289C18.8414 30.6721 17.4081 30.7837 16.1624 29.9538C15.9797 29.8315 15.7375 29.8009 15.5466 29.6876C15.1837 29.4719 14.8217 29.2471 14.491 28.9858C14.3141 28.847 14.1819 28.7635 13.9347 28.7924C12.0046 29.0181 10.5812 27.541 10.8284 25.6125C10.8466 25.4679 10.7366 25.2645 10.6234 25.1513C7.85429 22.3648 5.07941 19.5833 2.29874 16.8076C0.810867 15.3222 0.0148546 13.55 0.0884216 11.4347C0.141324 9.90388 0.665386 8.53504 1.74492 7.43236C3.43035 5.70973 5.10999 3.97718 6.8632 2.32482C8.69081 0.602192 10.8821 0.248409 13.2503 0.966721C15.5268 1.65776 17.7933 2.38516 20.059 3.11009C20.3913 3.21672 20.6839 3.2192 21.0203 3.11091C23.2728 2.38599 25.5269 1.66519 27.791 0.977467C30.3716 0.193853 32.648 0.70717 34.5707 2.64802C36.0421 4.13341 37.5167 5.61632 39.0079 7.08188C40.0709 8.1267 40.7421 9.3575 40.9355 10.8421C40.9421 10.8908 40.976 10.9371 40.9975 10.9842C41 11.4645 41 11.9439 41 12.4233ZM18.1983 3.99289C18.195 3.959 18.1917 3.92511 18.1884 3.89122C16.2856 3.29855 14.3976 2.64719 12.475 2.12892C10.5978 1.62386 8.92143 2.09998 7.53027 3.49363C5.97792 5.04928 4.42309 6.60328 2.86744 8.1548C2.32106 8.70035 1.89371 9.32278 1.67135 10.0642C1.01173 12.2638 1.56142 14.1766 3.15096 15.7785C7.18558 19.8437 11.2417 23.8874 15.3003 27.9286C15.5466 28.1733 15.8615 28.3973 16.1872 28.5056C17.2229 28.8495 18.2033 27.9906 17.9784 26.9235C17.9016 26.5581 17.6759 26.1771 17.4122 25.9068C15.8128 24.2668 14.1827 22.6566 12.5626 21.0365C12.0906 20.5645 12.0162 20.1917 12.3287 19.8759C12.6419 19.5602 13.0222 19.6337 13.49 20.1016C16.2971 22.9079 19.101 25.7175 21.9147 28.5172C22.1362 28.7379 22.4016 28.9412 22.6843 29.0669C23.2439 29.3157 23.7886 29.228 24.2325 28.7899C24.6805 28.3477 24.7441 27.7956 24.5127 27.2393C24.3945 26.9549 24.1829 26.692 23.9622 26.4705C21.1625 23.6568 18.3537 20.8521 15.5474 18.045C15.0597 17.5573 14.9886 17.2126 15.3094 16.8861C15.6301 16.5588 15.9921 16.6266 16.4716 17.1068C19.7209 20.3562 22.9678 23.608 26.2246 26.8508C26.4461 27.0715 26.7139 27.2707 26.9966 27.3971C27.5091 27.6244 28.0158 27.5459 28.4556 27.183C28.9011 26.816 29.0639 26.3143 28.9094 25.7836C28.8069 25.4315 28.5895 25.0744 28.3291 24.8124C25.0822 21.5415 21.8188 18.2872 18.5604 15.0279C18.457 14.9246 18.3438 14.8254 18.2644 14.7048C18.0702 14.4121 18.0917 14.1162 18.343 13.8699C18.5943 13.6244 18.8918 13.6145 19.1811 13.8062C19.3018 13.8856 19.3994 14.0005 19.5027 14.1038C21.9808 16.5803 24.4532 19.0617 26.9429 21.5258C27.1975 21.7779 27.5306 22.0052 27.8687 22.1102C28.8994 22.4301 29.8442 21.5399 29.5731 20.4975C29.4781 20.133 29.245 19.7635 28.978 19.4924C25.9609 16.4439 22.9198 13.4194 19.9019 10.3717C19.5738 10.0411 19.2613 9.91628 18.7935 9.94273C17.1394 10.0386 15.6962 9.13597 15.144 7.63818C14.9548 7.12404 14.9159 6.5512 14.839 6.00069C14.7266 5.19641 14.8233 5.06498 15.5945 4.82197C16.4641 4.54836 17.3312 4.2698 18.1983 3.99289ZM29.6062 24.104C29.6607 24.0544 29.75 23.9775 29.8335 23.894C31.0197 22.707 32.205 21.52 33.3903 20.3322C34.9427 18.7774 36.5033 17.23 38.0449 15.6653C40.0907 13.588 40.3503 10.0907 37.9945 7.91592C36.4892 6.52558 35.0758 5.0344 33.6358 3.57463C32.0744 1.99087 30.2344 1.59989 28.1423 2.24795C26.847 2.64884 25.5559 3.06214 24.2631 3.46965C21.6775 4.2855 19.0902 5.09805 16.5079 5.92382C16.3782 5.96515 16.1889 6.11476 16.1872 6.21643C16.1632 7.6886 17.4131 8.79707 18.8836 8.64001C19.7441 8.54826 20.6045 8.4656 21.4659 8.37964C21.7709 8.34905 22.0263 8.44163 22.1701 8.7235C22.3197 9.01694 22.266 9.29633 22.0329 9.52695C21.8477 9.71046 21.6477 9.87908 21.4501 10.0576C21.5948 10.2097 21.675 10.2982 21.7593 10.3825C23.2455 11.872 24.7326 13.3607 26.2188 14.8494C27.5074 16.1405 28.806 17.4218 30.0823 18.7253C31.6165 20.2925 31.0122 22.8368 29.0028 23.3948C28.968 23.4047 28.9399 23.4386 28.8722 23.4882C29.1193 23.6956 29.3433 23.8833 29.6062 24.104ZM19.3101 27.8063C19.1729 28.1212 19.0464 28.4122 18.9538 28.6238C19.1266 28.4742 19.3531 28.2783 19.5944 28.07C19.4903 27.9733 19.4051 27.8947 19.3101 27.8063Z" fill="#009FDA"/>
</svg>
