<svg width="35" height="35" viewBox="0 0 35 35" fill="none" xmlns="http://www.w3.org/2000/svg">
<path d="M0 21.3965C0 20.7585 0 20.1205 0 19.4825C0.0665365 19.0003 0.12487 18.5163 0.201432 18.036C1.17214 12.0104 5.98372 7.12402 12.0158 6.07676C16.2741 5.33756 20.1195 6.32285 23.5503 8.9442C23.8264 9.15566 24.0917 9.38171 24.356 9.59681C24.7971 9.21582 24.7971 9.21582 24.7971 8.68262C24.7971 7.78301 24.7935 6.8834 24.799 5.98379C24.8008 5.58457 24.9256 5.24733 25.2264 4.95111C26.7276 3.47272 28.2069 1.97246 29.7053 0.491341C29.9077 0.291732 30.1793 0.163216 30.419 0.000976562C30.6013 0.000976562 30.7836 0.000976562 30.9659 0.000976562C31.2612 0.241602 31.3724 0.55332 31.3624 0.931575C31.3478 1.53496 31.3587 2.13835 31.3587 2.74173C31.3587 3.03249 31.3587 3.32415 31.3587 3.64043C32.2839 3.64043 33.1598 3.64954 34.0339 3.63587C34.4221 3.62949 34.7503 3.72155 34.9982 4.03327C34.9982 4.21556 34.9982 4.39785 34.9982 4.58014C34.8359 4.81986 34.7074 5.09238 34.5078 5.29473C33.0522 6.76947 31.572 8.22142 30.1228 9.70254C29.7637 10.0689 29.3672 10.2093 28.8786 10.2048C28.0018 10.1965 27.1241 10.2248 26.2482 10.192C25.8499 10.1774 25.6102 10.3396 25.416 10.6386C25.4297 10.6696 25.4342 10.6942 25.4479 10.7106C25.5053 10.7817 25.5655 10.8492 25.6238 10.9193C29.1111 15.184 30.1447 19.9829 28.3217 25.1818C26.4943 30.3926 22.7099 33.5563 17.2995 34.7321C16.7134 34.8597 16.1118 34.9117 15.5167 34.9991C14.8786 34.9991 14.2406 34.9991 13.6026 34.9991C13.5388 34.98 13.4759 34.949 13.4112 34.9445C10.665 34.723 8.17578 33.7978 5.97096 32.1545C2.91302 29.8758 0.99349 26.8607 0.261589 23.1083C0.152214 22.5423 0.0865885 21.9671 0 21.3965ZM21.8322 14.279C25.2346 18.365 24.6139 24.1874 20.9134 27.4769C17.1937 30.7837 11.5919 30.6861 8.02812 27.27C4.46068 23.8502 4.11068 18.2949 7.22422 14.4321C10.4526 10.4271 16.5758 9.65332 20.7329 13.167C21.5888 12.3157 22.4419 11.4662 23.296 10.6167C19.0695 6.59173 11.2055 5.77598 5.77956 10.6577C0.261588 15.6225 -0.00820314 24.1902 5.16341 29.5851C10.1846 34.8232 18.8562 34.8497 23.9376 29.6571C29.1448 24.336 28.6234 16.2286 24.3997 11.7114C23.5493 12.5609 22.699 13.4122 21.8322 14.279ZM19.6674 14.2863C16.9276 11.8499 12.1798 11.5173 8.92227 14.7812C5.70299 18.0068 5.78594 23.0609 9.08359 26.2118C12.312 29.2971 17.377 29.1485 20.4176 25.8755C23.5694 22.4821 22.9861 17.83 20.7411 15.3782C19.9017 16.2204 19.0613 17.0635 18.2164 17.912C19.4842 19.8197 19.0768 22.4274 17.4143 23.7928C15.7628 25.1508 13.2608 25.1217 11.6594 23.7153C10.0789 22.3262 9.73255 19.8571 10.8746 18.0451C11.4297 17.1646 12.2072 16.5549 13.207 16.255C14.6034 15.8357 15.9241 16.0308 17.1555 16.8229C17.9785 16.0007 18.7833 15.195 19.5872 14.3902C19.6191 14.3592 19.6419 14.3209 19.6674 14.2863ZM16.048 17.9348C14.9324 17.1646 13.2535 17.46 12.3484 18.551C11.3677 19.7331 11.4616 21.4512 12.5654 22.514C13.6582 23.5667 15.3617 23.6032 16.5083 22.5997C17.5592 21.6791 17.8263 20.0002 17.0698 18.9712C16.3999 19.6356 15.7299 20.2973 15.0637 20.9618C14.8741 21.1514 14.3382 21.2161 14.0839 21.0511C13.8104 20.8743 13.732 20.5963 13.8214 20.3037C13.8715 20.1406 13.9991 19.9883 14.124 19.8617C14.7538 19.22 15.3927 18.5883 16.048 17.9348ZM26.2509 8.75006C27.1131 8.75006 27.9298 8.75553 28.7474 8.74368C28.8431 8.74186 28.9561 8.66621 29.0299 8.59329C30.1283 7.50319 31.2211 6.40853 32.3139 5.31387C32.3586 5.26921 32.3978 5.21908 32.4935 5.11061C31.9029 5.11061 31.3852 5.11152 30.8684 5.11061C30.1118 5.10879 29.8931 4.89004 29.8913 4.13626C29.8904 3.61855 29.8913 3.10085 29.8913 2.5485C29.8165 2.5877 29.7846 2.5959 29.7637 2.61686C28.628 3.7498 27.4932 4.88275 26.3621 6.02025C26.3047 6.07767 26.2573 6.17428 26.2564 6.25358C26.2473 7.06934 26.2509 7.88691 26.2509 8.75006Z" fill="#009FDA"/>
</svg>
