<svg width="85" height="85" viewBox="0 0 85 85" fill="none" xmlns="http://www.w3.org/2000/svg">
<g clip-path="url(#clip0_64_1605)">
<circle cx="42.5" cy="42.5" r="42" stroke="#009FDA"/>
<path d="M41.5349 44.3457L36.0203 59.348L33.6569 65.4204C33.0267 67.0476 31.2147 67.8414 29.5997 67.2064C27.9847 66.5714 27.1969 64.7457 27.8272 63.1185L29.0483 59.9831C29.6785 58.3558 31.4904 57.562 33.1054 58.1971L36.0203 59.348" stroke="#009FDA" stroke-width="1.5" stroke-miterlimit="10" stroke-linecap="round" stroke-linejoin="round"/>
<path d="M43.4257 44.3457L48.9403 59.348L51.3037 65.4204C51.9339 67.0476 53.7459 67.8414 55.3609 67.2064C56.9758 66.5714 57.7637 64.7457 57.1334 63.1185L55.9123 59.9831C55.2821 58.3558 53.4701 57.562 51.8551 58.1971L48.9403 59.348" stroke="#009FDA" stroke-width="1.5" stroke-miterlimit="10" stroke-linecap="round" stroke-linejoin="round"/>
<path d="M42.5591 39.9404C43.7802 39.9404 44.7255 40.9326 44.7255 42.1233C44.7255 43.3537 43.7408 44.3062 42.5591 44.3062C41.3774 44.3062 40.3926 43.314 40.3926 42.1233C40.3532 40.9326 41.338 39.9404 42.5591 39.9404Z" stroke="#009FDA" stroke-width="1.5" stroke-miterlimit="10" stroke-linecap="round" stroke-linejoin="round"/>
<path d="M44.5679 41.1306C47.1283 39.9796 49.3341 37.9158 50.6734 35.4154C52.0127 32.915 52.4853 29.9384 52.052 27.1602" stroke="#009FDA" stroke-width="1.5" stroke-miterlimit="10" stroke-linecap="round" stroke-linejoin="round"/>
<path d="M50.2401 30.5342C49.1372 31.1692 47.6404 31.2486 46.4587 30.8517C46.8526 28.1131 46.8132 25.2952 46.4193 22.5964C46.3011 21.7233 46.1041 20.8501 46.3405 19.977C47.3252 16.0478 54.573 16.2065 54.573 26.3272C54.573 28.3513 53.0368 29.3435 52.2096 29.7404" stroke="#009FDA" stroke-width="1.5" stroke-miterlimit="10" stroke-linecap="round" stroke-linejoin="round"/>
<path d="M34.7204 30.5342C35.8233 31.1692 37.3202 31.2486 38.5019 30.8517C38.108 28.1131 38.1474 25.2952 38.5413 22.5964C38.6594 21.7233 38.8564 20.8501 38.62 19.977C37.6353 16.0478 30.3875 16.2065 30.3875 26.3272C30.3875 28.3513 31.9237 29.3435 32.7509 29.7404" stroke="#009FDA" stroke-width="1.5" stroke-miterlimit="10" stroke-linecap="round" stroke-linejoin="round"/>
<path d="M40.3532 41.1306C37.7929 39.9796 35.587 37.9158 34.2478 35.4154C32.9085 32.915 32.4358 29.9384 32.8691 27.1602" stroke="#009FDA" stroke-width="1.5" stroke-miterlimit="10" stroke-linecap="round" stroke-linejoin="round"/>
<path d="M50.4371 63.0397C48.1918 64.27 45.4739 64.9447 42.559 64.9447C39.6048 64.9447 36.8475 64.2304 34.6022 63" stroke="#009FDA" stroke-width="1.5" stroke-miterlimit="10" stroke-linecap="round" stroke-linejoin="round"/>
<path d="M49.5311 19.9766C49.4917 19.9766 49.4523 19.9766 49.3735 19.9766C49.0584 19.9766 48.7039 20.1353 48.5857 20.5719C48.5069 20.8894 48.5857 21.445 48.7039 22.0007L48.7433 22.2388C48.9008 23.3104 49.019 24.4217 49.0584 25.4933C49.8856 24.7392 50.9097 24.2233 51.9733 23.8661C51.5794 21.3657 50.5158 20.0956 49.5311 19.9766Z" fill="#009FDA"/>
<path d="M35.3113 19.9766C35.3507 19.9766 35.39 19.9766 35.4688 19.9766C35.7839 19.9766 36.1385 20.1353 36.2566 20.5719C36.3354 20.8894 36.2566 21.445 36.1385 22.0007L36.0991 22.2388C35.9415 23.3104 35.8233 24.4217 35.7839 25.4933C34.9568 24.7392 33.9326 24.2233 32.8691 23.8661C33.3024 21.3657 34.3265 20.0956 35.3113 19.9766Z" fill="#009FDA"/>
</g>
<defs>
<clipPath id="clip0_64_1605">
<rect width="85" height="85" fill="white"/>
</clipPath>
</defs>
</svg>
