<svg width="32" height="33" viewBox="0 0 32 33" fill="none" xmlns="http://www.w3.org/2000/svg">
<path d="M31.3288 8.064C31.1548 8.064 30.9931 8.00207 30.8688 7.87822L24.5154 1.53704C24.2543 1.27695 24.2543 0.868239 24.5154 0.608152C24.7765 0.348064 25.1868 0.348064 25.4479 0.608152L31.8013 6.93695C32.0624 7.19704 32.0624 7.60575 31.8013 7.86584C31.6645 8.00207 31.5029 8.064 31.3288 8.064Z" fill="#009FDA"/>
<path d="M29.1405 14.615C28.9665 14.615 28.8048 14.553 28.6805 14.4292L17.9381 3.72844C17.677 3.46835 17.677 3.05965 17.9381 2.79956C18.1992 2.53947 18.6095 2.53947 18.8706 2.79956L29.613 13.5003C29.8741 13.7604 29.8741 14.1691 29.613 14.4292C29.4762 14.553 29.3022 14.615 29.1405 14.615Z" fill="#009FDA"/>
<path d="M23.7569 9.26469C23.5829 9.26469 23.4212 9.20276 23.2969 9.07891C23.0358 8.81882 23.0358 8.41011 23.2969 8.15002L27.6858 3.77807C27.9469 3.51799 28.3572 3.51799 28.6183 3.77807C28.8794 4.03816 28.8794 4.44687 28.6183 4.70696L24.2294 9.07891C24.0926 9.20276 23.931 9.26469 23.7569 9.26469Z" fill="#009FDA"/>
<path d="M10.13 29.9858C9.95595 29.9858 9.79431 29.9238 9.66998 29.8L2.39651 22.5547C2.13541 22.2946 2.13541 21.8859 2.39651 21.6258L19.6042 4.47241C19.8653 4.21232 20.2756 4.21232 20.5367 4.47241L27.8101 11.7177C28.0712 11.9778 28.0712 12.3865 27.8101 12.6466L10.59 29.8C10.4657 29.9238 10.2916 29.9858 10.13 29.9858ZM3.7766 22.0841L10.13 28.4129L26.4176 12.1883L20.0642 5.85954L3.7766 22.0841Z" fill="#009FDA"/>
<path d="M0.655856 32.2887C0.494223 32.2887 0.320157 32.2268 0.195824 32.1029C-0.0652747 31.8428 -0.0652747 31.4341 0.195824 31.174L6.0892 25.3035C6.3503 25.0434 6.7606 25.0434 7.0217 25.3035C7.2828 25.5636 7.2828 25.9723 7.0217 26.2323L1.11589 32.1029C0.991555 32.2268 0.817489 32.2887 0.655856 32.2887Z" fill="#009FDA"/>
<path d="M20.7604 12.1502C20.5863 12.1502 20.4247 12.0882 20.3003 11.9644L16.6574 8.32317C16.3963 8.06308 16.3963 7.65437 16.6574 7.39428C16.9185 7.1342 17.3288 7.1342 17.5899 7.39428L21.2328 11.0231C21.4939 11.2832 21.4939 11.6919 21.2328 11.952C21.0961 12.0882 20.922 12.1502 20.7604 12.1502Z" fill="#009FDA"/>
<path d="M17.9256 14.962C17.7516 14.962 17.5899 14.9001 17.4656 14.7762L13.8227 11.1474C13.5616 10.8873 13.5616 10.4786 13.8227 10.2185C14.0838 9.95842 14.4941 9.95842 14.7552 10.2185L18.3981 13.8473C18.6592 14.1074 18.6592 14.5161 18.3981 14.7762C18.2613 14.9001 18.0997 14.962 17.9256 14.962Z" fill="#009FDA"/>
<path d="M15.0908 17.7862C14.9292 17.7862 14.7551 17.7243 14.6308 17.6004L10.9878 13.9716C10.7267 13.7115 10.7267 13.3028 10.9878 13.0427C11.2489 12.7826 11.6592 12.7826 11.9203 13.0427L15.5633 16.6716C15.8244 16.9317 15.8244 17.3404 15.5633 17.6004C15.4265 17.7243 15.2649 17.7862 15.0908 17.7862Z" fill="#009FDA"/>
<path d="M12.2684 20.6095C12.0943 20.6095 11.9327 20.5475 11.8084 20.4237L8.16543 16.7948C7.90433 16.5348 7.90433 16.1261 8.16543 15.866C8.42653 15.6059 8.83683 15.6059 9.09793 15.866L12.7409 19.4948C13.002 19.7549 13.002 20.1636 12.7409 20.4237C12.6041 20.5475 12.43 20.6095 12.2684 20.6095Z" fill="#009FDA"/>
<path d="M9.4337 23.422C9.25963 23.422 9.098 23.36 8.97366 23.2362L5.33071 19.6073C5.06961 19.3473 5.06961 18.9386 5.33071 18.6785C5.59181 18.4184 6.00211 18.4184 6.26321 18.6785L9.90616 22.3073C10.1673 22.5674 10.1673 22.9761 9.90616 23.2362C9.76939 23.36 9.60776 23.422 9.4337 23.422Z" fill="#009FDA"/>
</svg>
