<svg width="30" height="39" viewBox="0 0 30 39" fill="none" xmlns="http://www.w3.org/2000/svg">
<path d="M14.875 34.129V31.1445" stroke="#009FDA" stroke-miterlimit="10"/>
<path d="M20.3435 30.4492V34.1291" stroke="#009FDA" stroke-miterlimit="10"/>
<path d="M11.9371 16.8593L13.9733 18.8876C14.2351 19.1484 14.6132 19.1484 14.875 18.8876L16.0967 17.6707L13.1588 14.7441L11.9371 15.9611C11.6753 16.2219 11.6753 16.6275 11.9371 16.8593Z" stroke="#009FDA" stroke-miterlimit="10"/>
<path d="M11.588 25.7262L5.07233 19.2646" stroke="#009FDA" stroke-miterlimit="10" stroke-linecap="round"/>
<path d="M7.07937 21.2354L3.58881 24.7124C3.18158 25.118 3.18158 25.7845 3.58881 26.2191L4.60689 27.2332C5.01412 27.6389 5.68315 27.6389 6.11947 27.2332L9.61003 23.7562" stroke="#009FDA" stroke-miterlimit="10" stroke-linecap="round"/>
<path d="M23.2523 12.4261L24.3577 13.5271C24.7067 13.8748 25.3176 13.8748 25.6666 13.5271L26.5393 12.6579C26.8883 12.3102 26.8883 11.7017 26.5393 11.354L25.4339 10.2529" stroke="#009FDA" stroke-miterlimit="10" stroke-linecap="round"/>
<path d="M26.3357 13.2959C29.9426 16.9178 29.1572 23.1185 24.5322 27.7546C19.8781 32.3907 12.3734 32.3907 7.71932 27.7546L6.64307 26.6825" stroke="#009FDA" stroke-miterlimit="10"/>
<path d="M12.6352 14.2234L16.6203 18.193C16.8239 18.3958 17.1438 18.3958 17.3184 18.193L28.2845 7.2693C28.4882 7.06647 28.4882 6.74774 28.2845 6.57389L24.3286 2.60427C24.125 2.40144 23.805 2.40144 23.6305 2.60427L12.6352 13.528C12.4316 13.7308 12.4316 14.0495 12.6352 14.2234Z" stroke="#009FDA" stroke-miterlimit="10"/>
<path d="M26.6847 1.58987L29.3026 4.19765C29.5644 4.45843 29.5644 4.83511 29.3026 5.09588L27.7901 6.0231L24.8522 3.09659L25.783 1.58987C26.0157 1.35806 26.4229 1.35806 26.6847 1.58987Z" stroke="#009FDA" stroke-miterlimit="10"/>
<path d="M1 27.291L3.53066 29.7829" stroke="#009FDA" stroke-miterlimit="10" stroke-linecap="round"/>
<path d="M24.6776 38.2734H10.5699L10.9772 36.332C11.239 35.0571 12.3734 34.1299 13.7115 34.1299H21.5652C22.8742 34.1299 24.0086 35.0571 24.2995 36.332L24.6776 38.2734Z" stroke="#009FDA" stroke-miterlimit="10" stroke-linecap="round"/>
<path d="M24.0958 8.94952L21.9142 6.77637" stroke="#009FDA" stroke-miterlimit="10" stroke-linecap="round"/>
</svg>
