<svg width="30" height="36" viewBox="0 0 30 36" fill="none" xmlns="http://www.w3.org/2000/svg">
<path fill-rule="evenodd" clip-rule="evenodd" d="M18.0676 7.05465C16.9728 7.05465 15.7985 7.14296 15.1717 7.7611C14.8185 8.10549 14.6508 8.60001 14.6508 9.2623V26.0227C14.6508 27.2325 15.6396 28.2216 16.8492 28.2216H26.4727C27.6822 28.2216 28.6711 27.2325 28.6711 26.0227V9.27113C28.6711 8.60884 28.5033 8.11432 28.1413 7.76993C27.3556 7.00167 25.731 7.03699 24.4244 7.06349C24.1771 7.07232 23.9388 7.07232 23.7092 7.07232C23.515 7.07232 23.3472 6.9222 23.3296 6.72792C23.2325 5.80954 22.4643 5.11193 21.5373 5.11193C20.6103 5.11193 19.8422 5.80071 19.745 6.72792C19.7274 6.9222 19.5596 7.07232 19.3654 7.07232C19.1712 7.07232 18.9593 7.07232 18.7474 7.06349C18.5267 7.06349 18.2971 7.05465 18.0676 7.05465ZM26.4727 28.9898H16.8492C15.2158 28.9898 13.8915 27.6564 13.8915 26.0316V9.27113C13.8915 8.3969 14.1475 7.70812 14.6419 7.22244C15.6308 6.25107 17.3701 6.27756 18.7739 6.30406C18.871 6.30406 18.9681 6.30406 19.0564 6.31289C19.3301 5.17374 20.3454 4.36133 21.5461 4.36133C22.7469 4.36133 23.7622 5.18257 24.0359 6.31289C24.1595 6.31289 24.2831 6.30406 24.4155 6.30406C25.8635 6.26873 27.6646 6.23341 28.6799 7.22244C29.1831 7.71695 29.4392 8.40573 29.4392 9.27113V26.0316C29.4303 27.6652 28.106 28.9898 26.4727 28.9898Z" fill="#009FDA" stroke="#009FDA" stroke-width="0.5"/>
<path fill-rule="evenodd" clip-rule="evenodd" d="M21.6521 31.3653C20.8751 31.3653 20.1424 31.1269 19.595 30.6854C18.9593 30.182 18.6238 29.4579 18.6238 28.6102C18.6238 28.3982 18.7915 28.2305 19.0034 28.2305C19.2153 28.2305 19.3831 28.3982 19.3831 28.6102C19.3831 29.9789 20.5573 30.6059 21.6521 30.6059C22.2436 30.6059 22.8175 30.4205 23.2236 30.0937C23.6651 29.7405 23.9035 29.2283 23.9035 28.6102C23.9035 28.3982 24.0712 28.2305 24.2831 28.2305C24.495 28.2305 24.6627 28.3982 24.6627 28.6102C24.6716 30.4205 23.153 31.3653 21.6521 31.3653Z" fill="#009FDA" stroke="#009FDA" stroke-width="0.5"/>
<path fill-rule="evenodd" clip-rule="evenodd" d="M17.8292 12.9007H14.2623C14.0504 12.9007 13.8827 12.733 13.8827 12.5211C13.8827 12.3093 14.0504 12.1416 14.2623 12.1416H17.8292C18.0411 12.1416 18.2089 12.3093 18.2089 12.5211C18.2089 12.733 18.0411 12.9007 17.8292 12.9007Z" fill="#009FDA" stroke="#009FDA" stroke-width="0.5"/>
<path fill-rule="evenodd" clip-rule="evenodd" d="M17.8292 15.4524H14.2623C14.0504 15.4524 13.8827 15.2847 13.8827 15.0729C13.8827 14.8611 14.0504 14.6934 14.2623 14.6934H17.8292C18.0411 14.6934 18.2089 14.8611 18.2089 15.0729C18.2089 15.2847 18.0411 15.4524 17.8292 15.4524Z" fill="#009FDA" stroke="#009FDA" stroke-width="0.5"/>
<path fill-rule="evenodd" clip-rule="evenodd" d="M17.8292 18.0042H14.2623C14.0504 18.0042 13.8827 17.8365 13.8827 17.6247C13.8827 17.4128 14.0504 17.2451 14.2623 17.2451H17.8292C18.0411 17.2451 18.2089 17.4128 18.2089 17.6247C18.2089 17.8365 18.0411 18.0042 17.8292 18.0042Z" fill="#009FDA" stroke="#009FDA" stroke-width="0.5"/>
<path fill-rule="evenodd" clip-rule="evenodd" d="M17.8292 20.5569H14.2623C14.0504 20.5569 13.8827 20.3892 13.8827 20.1774C13.8827 19.9656 14.0504 19.7979 14.2623 19.7979H17.8292C18.0411 19.7979 18.2089 19.9656 18.2089 20.1774C18.2089 20.3892 18.0411 20.5569 17.8292 20.5569Z" fill="#009FDA" stroke="#009FDA" stroke-width="0.5"/>
<path fill-rule="evenodd" clip-rule="evenodd" d="M17.8292 23.1175H14.2623C14.0504 23.1175 13.8827 22.9498 13.8827 22.7379C13.8827 22.5261 14.0504 22.3584 14.2623 22.3584H17.8292C18.0411 22.3584 18.2089 22.5261 18.2089 22.7379C18.2089 22.9498 18.0411 23.1175 17.8292 23.1175Z" fill="#009FDA" stroke="#009FDA" stroke-width="0.5"/>
<path fill-rule="evenodd" clip-rule="evenodd" d="M21.6433 5.12129C21.4314 5.12129 21.2637 4.95351 21.2637 4.74157V2.55159C21.2637 2.33966 21.4314 2.17188 21.6433 2.17188C21.8552 2.17188 22.023 2.33966 22.023 2.55159V4.74157C22.023 4.94468 21.8552 5.12129 21.6433 5.12129Z" fill="#009FDA" stroke="#009FDA" stroke-width="0.5"/>
<path fill-rule="evenodd" clip-rule="evenodd" d="M21.661 2.96606C20.4691 2.96606 19.4979 1.99469 19.4979 0.802566C19.4979 0.590633 19.6657 0.422852 19.8776 0.422852C20.0895 0.422852 20.2572 0.590633 20.2572 0.802566C20.2572 1.57083 20.8841 2.1978 21.6522 2.1978C22.4203 2.1978 23.0471 1.57083 23.0471 0.802566C23.0471 0.590633 23.2149 0.422852 23.4268 0.422852C23.6387 0.422852 23.8064 0.590633 23.8064 0.802566C23.8241 1.99469 22.8529 2.96606 21.661 2.96606Z" fill="#009FDA" stroke="#009FDA" stroke-width="0.5"/>
<path fill-rule="evenodd" clip-rule="evenodd" d="M1.38099 1.18197C1.16909 1.18197 1.00134 1.00544 1.00134 0.793604C1.00134 0.581767 1.16909 0.414062 1.38099 0.414062H19.8687C20.0806 0.414062 20.2483 0.581767 20.2483 0.793604C20.2483 1.00544 20.0806 1.17314 19.8687 1.17314H1.38099V1.18197Z" fill="#009FDA" stroke="#009FDA" stroke-width="0.5"/>
<path fill-rule="evenodd" clip-rule="evenodd" d="M1.29736 28.733C1.13214 28.733 1.00134 28.6242 1.00134 28.4867V0.660364C1.00134 0.522893 1.13214 0.414062 1.29736 0.414062C1.46257 0.414062 1.59337 0.522893 1.59337 0.660364V28.481C1.60025 28.6185 1.46257 28.733 1.29736 28.733Z" fill="#009FDA" stroke="#009FDA" stroke-width="0.5"/>
<path fill-rule="evenodd" clip-rule="evenodd" d="M1.38092 17.4132C1.30146 17.4132 1.222 17.3867 1.15137 17.3337C0.983617 17.2013 0.948301 16.9629 1.08073 16.7951L13.4412 0.56448C13.5648 0.3967 13.812 0.361377 13.9798 0.493836C14.1475 0.626295 14.1828 0.86472 14.0504 1.0325L1.68993 17.2631C1.61047 17.3602 1.49569 17.4132 1.38092 17.4132Z" fill="#009FDA" stroke="#009FDA" stroke-width="0.5"/>
<path fill-rule="evenodd" clip-rule="evenodd" d="M21.6433 35.2781C21.4314 35.2781 21.2637 35.1103 21.2637 34.8984V31.1365C21.2637 30.9246 21.4314 30.7568 21.6433 30.7568C21.8552 30.7568 22.023 30.9246 22.023 31.1365V34.8984C22.023 35.1015 21.8552 35.2781 21.6433 35.2781Z" fill="#009FDA" stroke="#009FDA" stroke-width="0.5"/>
</svg>
