<svg width="26" height="34" viewBox="0 0 26 34" fill="none" xmlns="http://www.w3.org/2000/svg">
<path d="M20.6307 23.5244C20.199 25.8562 18.7063 27.8379 16.6461 28.9889" stroke="#009FDA" stroke-miterlimit="10" stroke-linecap="round" stroke-linejoin="round"/>
<path d="M20.6307 21.339V20.2461" stroke="#009FDA" stroke-miterlimit="10" stroke-linecap="round" stroke-linejoin="round"/>
<path d="M23.0187 15.874C23.6565 17.8321 24.0462 19.9264 24.0462 22.1114C24.0462 28.3262 18.8027 33.3604 12.3427 33.3604C11.4747 33.3604 10.6303 33.2696 9.81543 33.0993" stroke="#009FDA" stroke-miterlimit="10" stroke-linecap="round" stroke-linejoin="round"/>
<path d="M4.56481 30.6289C2.19345 28.5304 0.707642 25.5128 0.707642 22.1484C0.707642 9.95076 12.4872 0.574219 12.4872 0.574219C12.4872 0.574219 14.0681 1.83444 16.0769 4.03117" stroke="#009FDA" stroke-miterlimit="10" stroke-linecap="round" stroke-linejoin="round"/>
<path d="M21.8136 1.66699C18.114 6.47621 11.8182 7.66117 8.99408 12.8866C8.79022 15.0253 9.30587 18.0542 9.30587 18.0542C9.30587 18.0542 8.35251 15.9443 7.60301 14.8114C4.64097 19.5917 5.82818 24.5859 7.98675 25.7246C8.0647 25.7709 8.04671 25.8633 8.03472 25.9096C7.99874 26.0079 7.96277 26.1119 7.93279 26.2102C7.56703 27.2969 7.26123 28.4009 7.02139 29.5049C6.76356 30.7015 6.66763 31.5049 6.63165 32.6494C6.61966 33.0483 6.69161 33.3488 6.84151 33.3604C6.98542 33.372 7.11733 33.2101 7.21926 32.9269C7.54305 32.0078 7.89081 31.0541 8.30454 29.7882C8.6583 28.713 9.03006 27.6552 9.4198 26.6379C9.46177 26.5281 9.50374 26.4183 9.55171 26.3026C9.55171 26.3026 9.64765 26.083 9.74958 26.1003C12.0281 26.2159 14.4505 24.4414 17.7543 19.7304C18.6896 18.3952 19.5411 17.1698 20.3146 16.0484C19.2533 15.8865 17.1906 16.031 17.1906 16.031C17.1906 16.031 20.2846 14.6091 21.8975 13.742C28.0614 7.4473 21.8136 1.66699 21.8136 1.66699Z" stroke="#009FDA" stroke-miterlimit="10" stroke-linecap="round" stroke-linejoin="round"/>
<path d="M20.6308 7.67773C18.2123 12.1601 12.4291 15.4189 9.81543 23.5247" stroke="#009FDA" stroke-miterlimit="10" stroke-linecap="round" stroke-linejoin="round"/>
</svg>
