<svg width="34" height="33" viewBox="0 0 34 33" fill="none" xmlns="http://www.w3.org/2000/svg">
<path d="M20.8898 25.286C20.8898 25.286 26.9407 22.8574 29.1017 22.4289C30.8305 22.1432 31.983 22.8574 32.7034 23.4289C33.5678 24.1432 33.2797 25.4289 32.2712 25.8574L15.2712 31.8574C13.9746 32.286 12.678 32.286 11.3814 31.7146L1.58474 27.1432C1.00847 26.8574 0.720337 26.4289 0.720337 25.8574V18.1432C0.720337 17.286 1.44068 16.5717 2.30508 16.7146C3.88983 16.8574 6.19491 17.4289 9.3644 19.5717H9.65254H15.7034C19.0169 19.5717 20.8898 22.1432 20.8898 25.286ZM20.8898 25.286H9.3644" stroke="#009FDA" stroke-miterlimit="10" stroke-linecap="round" stroke-linejoin="round"/>
<path d="M9.36438 19.5721V8.14355H29.5339V22.2864" stroke="#009FDA" stroke-miterlimit="10" stroke-linecap="round" stroke-linejoin="round"/>
<path d="M17.5762 1.71455C19.161 3.28598 19.305 7.28598 19.305 7.28598C19.305 7.28598 15.1271 7.28598 13.5423 5.71455C11.9576 4.28598 12.3898 2.85741 13.3983 1.71455C14.5508 0.571697 15.8474 0.143125 17.5762 1.71455Z" stroke="#009FDA" stroke-miterlimit="10" stroke-linecap="round" stroke-linejoin="round"/>
<path d="M21.3221 1.71455C19.7373 3.28598 19.5933 7.28598 19.5933 7.28598C19.5933 7.28598 23.7712 7.28598 25.356 5.71455C26.9407 4.14313 26.5085 2.85741 25.5 1.71455C24.3475 0.571697 23.0509 0.143125 21.3221 1.71455Z" stroke="#009FDA" stroke-miterlimit="10" stroke-linecap="round" stroke-linejoin="round"/>
<path d="M19.4491 8.14355V21.0007" stroke="#009FDA" stroke-miterlimit="10" stroke-linecap="round" stroke-linejoin="round"/>
</svg>
