<svg width="85" height="85" viewBox="0 0 85 85" fill="none" xmlns="http://www.w3.org/2000/svg">
<g clip-path="url(#clip0_64_1626)">
<circle cx="42.5" cy="42.5" r="42" stroke="#009FDA"/>
<path d="M38.0431 40.1418L56.4296 21.7553C58.1789 20.006 60.9777 20.006 62.688 21.7553C64.4373 23.5045 64.4373 26.3033 62.688 28.0137L44.3015 46.4391" stroke="#009FDA" stroke-width="1.5" stroke-miterlimit="10" stroke-linecap="round" stroke-linejoin="round"/>
<path d="M38.0431 40.1416L35.1277 45.3116L37.149 47.333L39.1704 49.3154L44.3015 46.4389L41.1917 43.2902" stroke="#009FDA" stroke-width="1.5" stroke-miterlimit="10" stroke-linecap="round" stroke-linejoin="round"/>
<path d="M35.1277 45.3115L15.575 64.8642C27.7808 66.0304 35.9051 55.2239 39.1704 49.3154" stroke="#009FDA" stroke-width="1.5" stroke-miterlimit="10" stroke-linecap="round" stroke-linejoin="round"/>
<path d="M28.1307 64.9814H29.4913" stroke="#009FDA" stroke-width="1.5" stroke-linecap="round" stroke-linejoin="round"/>
<path d="M33.3008 64.9814H57.246" stroke="#009FDA" stroke-width="1.5" stroke-linecap="round" stroke-linejoin="round" stroke-dasharray="6.85 6.85"/>
<path d="M59.1508 64.9814H60.5113" stroke="#009FDA" stroke-width="1.5" stroke-linecap="round" stroke-linejoin="round"/>
<path d="M61.6773 24.9038C61.6773 24.3596 61.4441 23.8154 61.0554 23.4266C60.6278 22.999 60.1225 22.8047 59.5782 22.8047C59.034 22.8047 58.4898 22.999 58.1011 23.4266L43.1742 38.3147L46.1674 41.3078L61.0554 26.4198C61.4441 25.9922 61.6773 25.4869 61.6773 24.9038Z" fill="#009FDA"/>
<line x1="12.3414" y1="12.6347" x2="73.3414" y2="69.6347" stroke="#009FDA"/>
</g>
<defs>
<clipPath id="clip0_64_1626">
<rect width="85" height="85" fill="white"/>
</clipPath>
</defs>
</svg>
